<svg width="100" height="127" viewBox="0 0 100 127" fill="none" xmlns="http://www.w3.org/2000/svg">
<path fill-rule="evenodd" clip-rule="evenodd" d="M42.2793 7.84961C29.0245 7.84961 18.2793 18.5948 18.2793 31.8496V69.812C18.2793 73.678 21.4133 76.812 25.2793 76.812H33.459C32.3086 75.0737 31.6387 72.9896 31.6387 70.749V31.0293C31.6387 24.9542 36.5635 20.0293 42.6387 20.0293H47.8125C53.8876 20.0293 58.8125 24.9542 58.8125 31.0293V70.749C58.8125 72.9896 58.1426 75.0737 56.9922 76.812H62.9839C67.9544 76.812 71.9839 72.7826 71.9839 67.812V31.8496C71.9839 18.5948 61.2387 7.84961 47.9839 7.84961H42.2793Z" fill="url(#paint0_linear_2003_18748)"/>
<rect x="8.4082" y="54.4922" width="76.8887" height="62.2432" rx="11" fill="#EA8913"/>
<rect x="44.082" y="85.0029" width="7.24109" height="16.584" fill="white"/>
<circle cx="47.703" cy="79.2733" r="8.72058" fill="white"/>
<defs>
<linearGradient id="paint0_linear_2003_18748" x1="70.7104" y1="63.9991" x2="28.8747" y2="62.1352" gradientUnits="userSpaceOnUse">
<stop stop-color="#FDAF50"/>
<stop offset="1" stop-color="#FDD36E"/>
</linearGradient>
</defs>
</svg>
