<svg width="114" height="105" viewBox="0 0 114 105" fill="none" xmlns="http://www.w3.org/2000/svg">
<path d="M104.88 42.9744L104.869 91.3207C104.869 92.0329 104.741 92.7191 104.514 93.3513C103.685 95.6556 101.473 97.3019 98.8872 97.3018L14.9217 97.284C12.3234 97.2843 10.1095 95.6159 9.2924 93.2976C9.06861 92.672 8.95121 92.0013 8.94774 91.3008L8.95881 42.9748C8.95934 41.5756 9.43885 40.7319 10.241 39.714C11.191 38.5083 44.3552 39.3128 53.3957 38.9296C54.7664 38.8714 56.3447 38.8704 57.7212 38.9279C66.7888 39.3055 102.487 37.9895 103.44 39.0996C104.333 40.1407 104.875 41.4933 104.88 42.9744ZM104.88 42.9744L104.869 91.3207C104.869 92.0329 104.741 92.7191 104.514 93.3513C103.685 95.6556 101.473 97.3019 98.8872 97.3018L14.9217 97.284C12.3234 97.2843 10.1095 95.6159 9.2924 93.2976C9.06861 92.672 8.95121 92.0013 8.94774 91.3008L8.95881 42.9748C8.95934 41.5756 9.43885 40.7319 10.241 39.714C11.191 38.5083 44.3552 39.3128 53.3957 38.9296C54.7664 38.8714 56.3447 38.8704 57.7212 38.9279C66.7888 39.3055 102.487 37.9895 103.44 39.0996C104.333 40.1407 104.875 41.4933 104.88 42.9744Z" fill="black" fill-opacity="0.2"/>
<path d="M106.464 41.6877L106.452 90.0339C106.452 90.7462 106.325 91.4323 106.097 92.0645C105.268 94.3689 103.056 96.0151 100.471 96.015L16.505 95.9972C13.9067 95.9976 11.6928 94.3291 10.8757 92.0109C10.6519 91.3852 10.5345 90.7145 10.5311 90.014L10.5421 41.6881C10.5427 40.2888 11.0222 39.4451 11.8243 38.4273C12.7743 37.2215 47.1748 12.1472 56.2155 5.56615C57.5859 4.56831 59.1648 4.56139 60.5415 5.54552C69.6088 12.0298 104.07 36.7028 105.023 37.8128C105.917 38.8539 106.458 40.2065 106.464 41.6877ZM106.464 41.6877L106.452 90.0339C106.452 90.7462 106.325 91.4323 106.097 92.0645C105.268 94.3689 103.056 96.0151 100.471 96.015L16.505 95.9972C13.9067 95.9976 11.6928 94.3291 10.8757 92.0109C10.6519 91.3852 10.5345 90.7145 10.5311 90.014L10.5421 41.6881C10.5427 40.2888 11.0222 39.4451 11.8243 38.4273C12.7743 37.2215 47.1748 12.1472 56.2155 5.56615C57.5859 4.56831 59.1648 4.56139 60.5415 5.54552C69.6088 12.0298 104.07 36.7028 105.023 37.8128C105.917 38.8539 106.458 40.2065 106.464 41.6877Z" fill="#C56C00"/>
<path d="M102.26 20.4724L102.291 69.618C102.292 71.8903 100.451 73.7332 98.1786 73.7347L19.2913 73.8426C17.019 73.8441 15.1754 72.0028 15.1739 69.7305L15.1427 20.5855C15.1412 18.3131 16.983 16.4697 19.2553 16.4683L98.1432 16.3605C100.415 16.359 102.259 18.2001 102.26 20.4724ZM102.26 20.4724L102.291 69.618C102.292 71.8903 100.451 73.7332 98.1786 73.7347L19.2913 73.8426C17.019 73.8441 15.1754 72.0028 15.1739 69.7305L15.1427 20.5855C15.1412 18.3131 16.983 16.4697 19.2553 16.4683L98.1432 16.3605C100.415 16.359 102.259 18.2001 102.26 20.4724Z" fill="#FFF8F0"/>
<path d="M27.5612 33.4322C27.5612 33.4322 49.6027 33.4303 66.9991 33.4282M27.5607 24.1768L55.7224 24.2192" stroke="#FFC681" stroke-width="4" stroke-linecap="round" stroke-linejoin="round"/>
<path d="M106.462 42.1298L106.451 90.0341C106.451 90.7464 106.323 91.4325 106.096 92.0647C105.267 94.3691 103.055 96.0153 100.469 96.0153L16.5036 95.9974C13.9054 95.9978 11.6915 94.3293 10.8744 92.0111C10.6506 91.3854 10.5332 90.7147 10.5297 90.0142L10.541 42.1304C10.5428 38.8236 13.2225 37.7472 16.5162 39.7717L58.0188 65.934L100.482 39.7895C103.611 37.9241 106.449 38.8296 106.462 42.1298ZM106.462 42.1298L106.451 90.0341C106.451 90.7464 106.323 91.4325 106.096 92.0647C105.267 94.3691 103.055 96.0153 100.469 96.0153L16.5036 95.9974C13.9054 95.9978 11.6915 94.3293 10.8744 92.0111C10.6506 91.3854 10.5332 90.7147 10.5297 90.0142L10.541 42.1304C10.5428 38.8236 13.2225 37.7472 16.5162 39.7717L58.0188 65.934L100.482 39.7895C103.611 37.9241 106.449 38.8296 106.462 42.1298ZM106.096 91.9613C105.267 94.3261 103.055 96.0153 100.469 96.0153L16.5038 95.9969C13.9056 95.9972 11.6912 94.2849 10.8743 91.9064L54.9045 62.3966C54.9045 62.3966 56.9385 61.0729 58.6053 61.0921C60.272 61.1113 62.0433 62.4831 62.0433 62.4831L106.096 91.9613ZM106.096 91.9613C105.267 94.3261 103.055 96.0153 100.469 96.0153L16.5038 95.9969C13.9056 95.9972 11.6912 94.2849 10.8743 91.9064L54.9045 62.3966C54.9045 62.3966 56.9385 61.0729 58.6053 61.0921C60.272 61.1113 62.0433 62.4831 62.0433 62.4831L106.096 91.9613ZM106.096 92.0647C105.267 94.3691 103.055 96.0153 100.469 96.0153L16.5036 95.9974C13.9054 95.9978 11.6915 94.3293 10.8744 92.0111L54.9044 63.253C54.9044 63.253 56.9382 61.9631 58.6052 61.9817C60.2722 62.0004 62.0439 63.3372 62.0439 63.3372L106.096 92.0647ZM106.096 92.0647C105.267 94.3691 103.055 96.0153 100.469 96.0153L16.5036 95.9974C13.9054 95.9978 11.6915 94.3293 10.8744 92.0111L54.9044 63.253C54.9044 63.253 56.9382 61.9631 58.6052 61.9817C60.2722 62.0004 62.0439 63.3372 62.0439 63.3372L106.096 92.0647ZM13.7114 37.7135C13.71 37.7143 13.7068 37.7182 13.7043 37.7205C13.7043 37.7205 13.7037 37.7222 13.7041 37.7229C13.7043 37.7242 13.7037 37.7247 13.7042 37.7248L13.719 37.7245C13.7195 37.7247 13.7196 37.7247 13.7196 37.7228C13.7197 37.7223 13.7195 37.721 13.7195 37.721C13.7172 37.7184 13.7125 37.7139 13.7114 37.7135ZM13.7114 37.7135C13.71 37.7143 13.7068 37.7182 13.7043 37.7205C13.7043 37.7205 13.7037 37.7222 13.7041 37.7229C13.7043 37.7242 13.7037 37.7247 13.7042 37.7248L13.719 37.7245C13.7195 37.7247 13.7196 37.7247 13.7196 37.7228C13.7197 37.7223 13.7195 37.721 13.7195 37.721C13.7172 37.7184 13.7125 37.7139 13.7114 37.7135Z" fill="#EA8913"/>
<path d="M106.096 91.9611C105.268 94.3259 103.055 96.0151 100.469 96.0151L16.504 95.9967C13.9057 95.997 11.6913 94.2847 10.8745 91.9062L54.9047 62.3964C54.9047 62.3964 56.9386 61.0727 58.6054 61.0919C60.2722 61.1111 62.0435 62.4829 62.0435 62.4829L106.096 91.9611ZM106.096 91.9611C105.268 94.3259 103.055 96.0151 100.469 96.0151L16.504 95.9967C13.9057 95.997 11.6913 94.2847 10.8745 91.9062L54.9047 62.3964C54.9047 62.3964 56.9386 61.0727 58.6054 61.0919C60.2722 61.1111 62.0435 62.4829 62.0435 62.4829L106.096 91.9611ZM106.096 92.0645C105.267 94.3689 103.055 96.0151 100.469 96.0151L16.504 95.9967C13.9057 95.997 11.6917 94.3291 10.8745 92.0109L54.9045 63.2528C54.9045 63.2528 56.9384 61.9629 58.6054 61.9816C60.2723 62.0002 62.044 63.337 62.044 63.337L106.096 92.0645ZM106.096 92.0645C105.267 94.3689 103.055 96.0151 100.469 96.0151L16.504 95.9967C13.9057 95.997 11.6917 94.3291 10.8745 92.0109L54.9045 63.2528C54.9045 63.2528 56.9384 61.9629 58.6054 61.9816C60.2723 62.0002 62.044 63.337 62.044 63.337L106.096 92.0645ZM13.7115 37.7133C13.7101 37.7141 13.707 37.7181 13.7044 37.7203C13.7044 37.7203 13.7039 37.722 13.7043 37.7228C13.7045 37.724 13.7038 37.7245 13.7043 37.7246L13.7192 37.7243C13.7196 37.7245 13.7197 37.7245 13.7197 37.7226C13.7199 37.7221 13.7197 37.7208 13.7197 37.7208C13.7174 37.7182 13.7126 37.7137 13.7115 37.7133ZM13.7115 37.7133C13.7101 37.7141 13.707 37.7181 13.7044 37.7203C13.7044 37.7203 13.7039 37.722 13.7043 37.7228C13.7045 37.724 13.7038 37.7245 13.7043 37.7246L13.7192 37.7243C13.7196 37.7245 13.7197 37.7245 13.7197 37.7226C13.7199 37.7221 13.7197 37.7208 13.7197 37.7208C13.7174 37.7182 13.7126 37.7137 13.7115 37.7133Z" fill="#202020" fill-opacity="0.3"/>
<path d="M106.096 92.0645C105.267 94.3689 103.055 96.0151 100.469 96.0151L16.5038 95.9972C13.9056 95.9976 11.6917 94.3291 10.8745 92.0109L54.9045 63.2528C54.9045 63.2528 56.9384 61.9629 58.6054 61.9816C60.2723 62.0002 62.044 63.337 62.044 63.337L106.096 92.0645ZM106.096 92.0645C105.267 94.3689 103.055 96.0151 100.469 96.0151L16.5038 95.9972C13.9056 95.9976 11.6917 94.3291 10.8745 92.0109L54.9045 63.2528C54.9045 63.2528 56.9384 61.9629 58.6054 61.9816C60.2723 62.0002 62.044 63.337 62.044 63.337L106.096 92.0645ZM13.7115 37.7133C13.7101 37.7141 13.707 37.7181 13.7044 37.7203C13.7044 37.7203 13.7039 37.722 13.7043 37.7228C13.7045 37.724 13.7038 37.7245 13.7043 37.7246L13.7192 37.7243C13.7196 37.7245 13.7197 37.7245 13.7197 37.7226C13.7199 37.7221 13.7197 37.7208 13.7197 37.7208C13.7174 37.7182 13.7126 37.7137 13.7115 37.7133ZM13.7115 37.7133C13.7101 37.7141 13.707 37.7181 13.7044 37.7203C13.7044 37.7203 13.7039 37.722 13.7043 37.7228C13.7045 37.724 13.7038 37.7245 13.7043 37.7246L13.7192 37.7243C13.7196 37.7245 13.7197 37.7245 13.7197 37.7226C13.7199 37.7221 13.7197 37.7208 13.7197 37.7208C13.7174 37.7182 13.7126 37.7137 13.7115 37.7133Z" fill="#FFC681"/>
<path d="M60.2748 42.6392C64.278 43.719 66.6515 47.846 65.5716 51.8491C64.4918 55.8522 60.3649 58.2257 56.3617 57.1459C52.3586 56.0661 49.9851 51.9391 51.0649 47.936C52.1447 43.9328 56.2717 41.5594 60.2748 42.6392Z" fill="black" fill-opacity="0.18"/>
<path d="M61.0717 41.5054C65.0749 42.5852 67.4483 46.7122 66.3685 50.7153C65.2887 54.7184 61.1617 57.0919 57.1586 56.0121C53.1555 54.9323 50.782 50.8053 51.8618 46.8022C52.9416 42.7991 57.0686 40.4256 61.0717 41.5054ZM60.1069 53.2361C59.411 53.3916 58.5429 53.3374 57.7658 53.1278C55.4954 52.5153 54.2553 50.6279 54.9418 48.083C55.7268 45.1726 58.262 43.8948 60.5935 44.5237C62.9554 45.1609 63.8201 47.0451 63.2858 49.0261C62.8131 50.7785 61.7618 51.4027 61.1131 51.2026C60.6906 51.0723 60.6949 50.6321 61.0898 49.7742L62.3073 47.0785C61.9839 46.7624 61.2672 46.3892 60.5968 46.2083C58.4025 45.6164 56.5747 46.9379 56.0732 48.797C55.7361 50.0465 56.2551 50.9711 57.2457 51.2383C58.0533 51.4561 58.8458 51.245 59.5278 50.5952L59.5583 50.6034C59.4167 51.4316 59.8361 51.937 60.5523 52.1302C62.198 52.5741 63.8257 51.5093 64.4258 49.2846C65.1163 46.7245 63.6937 44.3628 61.0119 43.6394C57.568 42.7104 54.5852 44.7992 53.7467 47.9078C52.941 50.8946 54.6767 53.308 57.2061 53.9903C58.288 54.2822 59.1175 54.3587 60.1427 54.194L60.1069 53.2361ZM59.8802 48.9248C59.5046 49.7716 58.7173 50.3275 58.1535 50.1754C57.6507 50.0398 57.4902 49.6042 57.6464 49.0251C57.9629 47.8518 59.0225 47.0751 60.0282 47.3464C60.2262 47.3998 60.3704 47.4713 60.484 47.5347L59.8802 48.9248Z" fill="#FFC681"/>
<path d="M60.1066 53.2356C59.4107 53.3912 58.5427 53.3369 57.7656 53.1273C55.4951 52.5148 54.2551 50.6274 54.9415 48.0826C55.7266 45.1721 58.2618 43.8943 60.5933 44.5233C62.9552 45.1604 63.8199 47.0446 63.2855 49.0256C62.8128 50.778 61.7615 51.4022 61.1128 51.2021C60.6903 51.0718 60.6946 50.6317 61.0895 49.7737L62.3071 47.078C61.9836 46.7619 61.267 46.3887 60.5965 46.2078C58.4022 45.6159 56.5744 46.9374 56.073 48.7965C55.7359 50.046 56.2549 50.9706 57.2454 51.2378C58.053 51.4556 58.8455 51.2445 59.5276 50.5947L59.558 50.6029C59.4164 51.4311 59.8358 51.9365 60.5521 52.1298C62.1977 52.5737 63.8254 51.5088 64.4255 49.2841C65.1161 46.7241 63.6935 44.3623 61.0116 43.6389C57.5678 42.7099 54.5849 44.7987 53.7464 47.9073C52.9408 50.8941 54.6765 53.3075 57.2058 53.9898C58.2878 54.2817 59.1172 54.3583 60.1425 54.1935L60.1066 53.2356ZM59.88 48.9243C59.5044 49.7711 58.717 50.327 58.1532 50.1749C57.6505 50.0393 57.49 49.6037 57.6462 49.0246C57.9627 47.8514 59.0223 47.0746 60.028 47.3459C60.226 47.3993 60.3701 47.4708 60.4838 47.5342L59.88 48.9243Z" fill="#F28500"/>
</svg>
