<svg width="115" height="159" viewBox="0 0 115 159" fill="none" xmlns="http://www.w3.org/2000/svg">
<path d="M6.91487 32.2074C6.36933 28.9004 9.68103 26.2931 12.7598 27.6176C28.3249 34.3139 75.3394 55.1936 81.9785 65.8531C89.9534 78.658 86.213 93.2822 91.37 101.09C107.161 125 85.8608 143.333 63.9257 136.606C56.3414 134.28 49.829 130.91 43.8441 126.614C20.2527 109.677 34.8169 64.7374 34.8169 64.7374C34.8169 64.7374 12.1805 46.7167 8.54209 37.7327C7.66632 35.5705 7.16784 33.7401 6.91487 32.2074Z" fill="#FFC0A3"/>
<path d="M40.678 60.2719C40.678 60.2719 14.9437 51.7859 10.5283 52.9625C7.22093 53.8442 3.47781 61.8246 1.29956 67.1945C0.0590405 70.2537 2.63851 73.4834 5.89845 72.9645C8.11906 72.612 10.766 71.566 13.5984 69.1481C16.8952 66.3341 20.6713 67.6777 24.8788 69.4595C33.2937 73.023 37.5008 74.8047 37.5008 74.8047L40.678 60.2719Z" fill="#FFC0A3"/>
<path d="M32.5655 66.125C32.5655 66.125 8.45566 70.8078 5.81186 74.2391C3.4226 77.3399 3.69126 85.1363 4.1964 90.3631C4.52506 93.7595 8.53998 95.4115 11.1367 93.1975C12.7808 91.7958 14.4472 89.5481 15.7223 85.9537C17.5821 80.7112 36.2757 78.4137 36.2757 78.4137L32.5655 66.125Z" fill="#FFC0A3"/>
<path d="M25.0083 71.499C19.3964 79.5002 11.6227 98.4911 8.04782 107.59C6.8473 110.645 9.42796 113.836 12.6695 113.316C14.3045 113.054 15.96 112.364 17.2593 110.89C21.0801 106.554 36.804 79.9677 36.804 79.9677L25.0083 71.499Z" fill="#FFC0A3"/>
<path d="M90.7465 101.874C95.5438 107.999 111.668 131.551 111.668 131.551L75.5865 154.291C75.5865 154.291 70.4037 147.486 64.7894 135.737C48.4662 101.577 85.0769 94.6351 90.7465 101.874Z" fill="#FFC0A3"/>
<path d="M114.706 132.275L74.2781 158.082L65.127 143.746L105.554 117.939L114.706 132.275Z" fill="#EA8913"/>
<path d="M74.4091 12.1604L77.3623 94.2686C77.5562 99.6633 73.6888 104.182 68.7237 104.362L28.7818 105.806C23.8167 105.985 19.6349 101.757 19.441 96.3618L16.4878 14.2545C16.2939 8.85941 20.1613 4.34085 25.126 4.1612L65.0679 2.71735C70.033 2.53768 74.2148 6.76534 74.4091 12.1604Z" fill="white"/>
<path d="M74.4091 12.1604L77.3623 94.2686C77.5562 99.6633 73.6888 104.182 68.7237 104.362L28.7818 105.806C23.8167 105.985 19.6349 101.757 19.441 96.3618L16.4878 14.2545C16.2939 8.85941 20.1613 4.34085 25.126 4.1612L65.0679 2.71735C70.033 2.53768 74.2148 6.76534 74.4091 12.1604Z" stroke="#01182B" stroke-width="3.92196" stroke-miterlimit="10"/>
<path d="M58.4239 3.87C58.5155 5.22423 57.5809 6.39689 56.3346 6.49065L34.2055 7.26341C32.9562 7.25681 31.942 6.1522 31.939 4.79487" stroke="#01182B" stroke-width="3.92196" stroke-linecap="round" stroke-linejoin="round"/>
<path d="M83.341 103.644C83.341 103.644 77.3475 81.9785 71.47 77.7773C62.6876 71.4983 55.7743 81.2667 57.7102 86.8363C58.7715 89.8876 60.9941 97.7507 59.8249 104.105C58.3009 112.392 61.9397 121.375 64.1077 123.285L83.341 103.644Z" fill="#FFC0A3"/>
<path d="M71.5292 77.778C65.4996 72.4779 54.1 68.001 47.6978 65.7603C44.9124 64.7857 41.9988 66.8809 42.0615 69.831C42.1188 72.5242 42.9801 75.7304 45.9733 78.3683C51.5013 83.2394 56.1312 84.947 57.7694 86.837C62.6558 92.4748 77.5298 87.1739 71.5292 77.778Z" fill="#FFC0A3"/>
<path d="M52.5738 62.5109L34.8573 60.6398L23.6871 68.6521L25.2473 53.8798L27.0874 36.4561C27.4188 33.3184 30.2928 31.0496 33.5066 31.389L55.6141 33.7238C58.8278 34.0632 61.1644 36.8824 60.8331 40.02L58.9929 57.4438C58.6615 60.5818 55.7875 62.8503 52.5738 62.5109Z" fill="white"/>
<path d="M58.1798 50.5247L40.3667 50.7803L30.232 60.0679L30.0189 45.2149L29.7675 27.6961C29.7222 24.5413 32.3051 21.9458 35.5364 21.8995L57.7645 21.5805C60.9958 21.5342 63.652 24.0545 63.6973 27.2092L63.9487 44.7281C63.9939 47.8832 61.4111 50.4783 58.1798 50.5247Z" stroke="#929DAC" stroke-width="3.46258" stroke-linecap="round" stroke-linejoin="round"/>
</svg>
