<svg width="255" height="255" viewBox="0 0 255 255" fill="none" xmlns="http://www.w3.org/2000/svg">
<g opacity="0.6" clip-path="url(#clip0_2469_12392)">
<path d="M208.18 0H159.541L0 159.54V208.18L46.82 255H95.4595L255 95.4595V46.82L208.18 0ZM240 89.246L89.2465 240H53.0325L15 201.967V165.753L165.754 15H201.967L240 53.033V89.246Z" fill="#FF3B30"/>
<path d="M88.0261 183.483C80.6996 176.156 68.8386 176.155 61.5101 183.483C60.0471 184.946 57.6681 184.945 56.2066 183.483L50.9036 178.18C49.4406 176.717 49.4381 174.343 50.9036 172.877L64.1621 159.618L53.5556 149.012L40.2966 162.27C32.9696 169.597 32.9681 181.458 40.2966 188.786L45.5996 194.09C52.9096 201.4 64.8051 201.4 72.1161 194.09C73.5796 192.626 75.9541 192.624 77.4196 194.09L82.7226 199.393C84.1871 200.858 84.1881 203.231 82.7226 204.697L69.4646 217.955L80.0711 228.562L93.3291 215.304C100.657 207.976 100.658 196.116 93.3291 188.787L88.0261 183.483Z" fill="#FF3B30"/>
<path d="M111.888 122.496C103.096 113.703 88.862 113.701 80.068 122.495C71.295 131.268 71.295 145.542 80.068 154.315L101.281 175.528C110.074 184.321 124.307 184.323 133.101 175.528C141.894 166.736 141.896 152.502 133.101 143.708L111.888 122.496ZM117.192 167.118C115.188 167.118 113.305 166.338 111.889 164.922L90.675 143.709C87.7505 140.785 87.7505 136.026 90.675 133.102C93.6055 130.171 98.3505 130.17 101.282 133.102L122.495 154.316C123.912 155.732 124.692 157.616 124.692 159.619C124.692 163.763 121.337 167.118 117.192 167.118Z" fill="#FF3B30"/>
<path d="M159.617 42.9458L143.707 58.8558L196.74 111.889L212.65 95.9788L212.65 95.9783C221.422 87.2058 221.422 72.9318 212.65 64.1588L191.436 42.9453C182.664 34.1728 168.389 34.1733 159.617 42.9458ZM202.044 85.3723L196.74 90.6758L164.92 58.8558L170.223 53.5528C173.148 50.6288 177.906 50.6288 180.83 53.5528L202.043 74.7658C204.968 77.6898 204.968 82.4483 202.044 85.3723Z" fill="#FF3B30"/>
<path d="M159.618 127.8L117.192 85.373L106.586 95.9795L159.618 149.013L186.135 122.496L175.529 111.89L159.618 127.8Z" fill="#FF3B30"/>
</g>
<defs>
<clipPath id="clip0_2469_12392">
<rect width="255" height="255" fill="white"/>
</clipPath>
</defs>
</svg>
