<svg width="106" height="124" viewBox="0 0 106 124" fill="none" xmlns="http://www.w3.org/2000/svg">
<path d="M1.94016 114.424V111.464L13.2873 95.5119H2.30415V92.2676H17.5603V95.2112L6.26063 111.164H17.6553V114.424H1.94016ZM21.8645 114.424V92.2676H30.2364C31.7768 92.2676 33.1062 92.5366 34.2245 93.0747C35.3534 93.6022 36.2239 94.3566 36.8358 95.3378C37.4583 96.319 37.7695 97.4848 37.7695 98.8353C37.7695 99.9326 37.5321 100.903 37.0574 101.747C36.5931 102.591 35.939 103.288 35.0949 103.836C34.2509 104.374 33.275 104.738 32.1672 104.928L38.8457 114.424H34.5569L28.4322 105.482H25.4095V114.424H21.8645ZM25.4095 102.539H29.6508C31.0857 102.539 32.1988 102.233 32.9901 101.621C33.7919 101.009 34.1929 100.133 34.1929 98.9936C34.1929 97.8224 33.8341 96.9098 33.1167 96.2557C32.4098 95.6015 31.3389 95.2745 29.904 95.2745H25.4095V102.539ZM40.3353 114.424L48.9446 92.2676H52.7903L61.6211 114.424H57.6172L55.5756 109.138H46.1909L44.2285 114.424H40.3353ZM47.1088 106.084H54.6261L50.7962 96.4298L47.1088 106.084ZM68.0873 114.424V104.849L60.2693 92.2676H64.3207L69.9389 101.431L75.5254 92.2676H79.4661L71.6481 104.881V114.424H68.0873ZM91.5603 114.899C89.8933 114.899 88.3476 114.608 86.9233 114.028C85.5095 113.437 84.2751 112.62 83.2201 111.575C82.1755 110.531 81.3579 109.307 80.767 107.904C80.1868 106.5 79.8966 104.981 79.8966 103.346C79.8966 101.7 80.1868 100.175 80.767 98.772C81.3579 97.3688 82.1755 96.1449 83.2201 95.1004C84.2751 94.0559 85.5095 93.2435 86.9233 92.6632C88.3476 92.0829 89.8933 91.7928 91.5603 91.7928C93.2168 91.7928 94.7519 92.0882 96.1656 92.679C97.5794 93.2699 98.8139 94.0928 99.8689 95.1479C100.924 96.2029 101.742 97.4321 102.322 98.8353C102.913 100.228 103.208 101.731 103.208 103.346C103.208 104.981 102.913 106.5 102.322 107.904C101.742 109.307 100.924 110.531 99.8689 111.575C98.8139 112.62 97.5794 113.437 96.1656 114.028C94.7519 114.608 93.2168 114.899 91.5603 114.899ZM91.5603 111.544C92.6787 111.544 93.7179 111.354 94.678 110.974C95.6487 110.583 96.4927 110.03 97.2102 109.312C97.9276 108.584 98.4868 107.719 98.8877 106.717C99.2992 105.704 99.5049 104.58 99.5049 103.346C99.5049 101.689 99.1515 100.249 98.4446 99.0252C97.7482 97.7908 96.7987 96.836 95.5959 96.1607C94.3931 95.4855 93.0479 95.1479 91.5603 95.1479C90.4419 95.1479 89.3974 95.3431 88.4268 95.7334C87.4667 96.1132 86.6226 96.6619 85.8946 97.3793C85.1772 98.0968 84.6127 98.9619 84.2013 99.9748C83.8003 100.977 83.5999 102.101 83.5999 103.346C83.5999 105.002 83.9533 106.448 84.6602 107.682C85.3671 108.906 86.3167 109.855 87.5089 110.531C88.7116 111.206 90.0621 111.544 91.5603 111.544Z" fill="white"/>
<g clip-path="url(#clip0_2003_16360)">
<path d="M48.2112 31.7964V31.8164L48.2012 31.8064L48.2112 31.7964Z" fill="white"/>
<path d="M10.5209 11.7363V31.6963H34.0009L9.46094 58.6463V75.7263H36.6809L39.6609 72.6963H12.4909V60.4363L38.6609 31.6963L41.4209 28.6663H13.5609V14.7663H57.5009V11.7363H10.5209Z" fill="white"/>
<path d="M53.0502 54.6361L51.7202 55.9861L50.7902 56.9261L50.6102 35.3961L44.4002 42.2361L44.5802 63.2361L39.5702 68.3361L35.2802 72.6961H12.4902V60.4361L38.6602 31.6961L41.4202 28.6661H13.5602V14.7661H52.7202C52.8402 26.7961 52.9502 42.5361 53.0502 54.6361Z" fill="url(#paint0_linear_2003_16360)"/>
<path d="M84.221 75.7262H79.741L76.651 72.6962L63.361 59.6762L60.271 56.6462L57.821 54.2462L56.461 55.6262L54.311 57.8162L39.661 72.6962L36.681 75.7262H33.301L32.791 75.2262L35.281 72.6962L39.571 68.3362L44.581 63.2362L44.401 42.2362L50.611 35.3962L50.791 56.9262L51.721 55.9862L53.051 54.6362C52.951 42.5362 52.841 26.7962 52.721 14.7662V14.4462L56.141 11.7362L59.111 9.38623L59.411 51.4062L62.201 54.1462L61.961 25.4562L68.091 25.4062L68.331 60.1562L81.131 72.6962L84.221 75.7262Z" fill="white"/>
<path d="M85.7515 31.2461L86.0015 65.6061L79.5115 59.6561L79.2715 36.2961L85.7515 31.2461Z" fill="white"/>
<path d="M76.5005 0.576406L76.8005 57.5864L74.5705 55.8264C74.5705 55.8264 71.2405 58.8164 71.1705 58.8164C71.0205 42.7464 70.8805 22.6864 70.7305 6.61641L76.4905 0.566406L76.5005 0.576406Z" fill="white"/>
<path d="M76.9612 56.3162L71.6912 61.6662L69.4512 59.4762L74.7312 54.1162L76.9612 56.3162Z" fill="white"/>
<path d="M96.541 75.4962L92.311 75.7362L89.221 72.7062L72.541 56.3562L74.731 54.1162L93.691 72.7062L96.541 75.4962Z" fill="white"/>
<path d="M57.5311 65.9961H53.8711V69.6561H57.5311V65.9961Z" fill="url(#paint1_linear_2003_16360)"/>
<path d="M61.7909 65.9463H58.1309V69.6063H61.7909V65.9463Z" fill="url(#paint2_linear_2003_16360)"/>
<path d="M61.7909 70.2061H58.1309V73.8661H61.7909V70.2061Z" fill="url(#paint3_linear_2003_16360)"/>
<path d="M57.5819 70.2964H53.9219V73.9564H57.5819V70.2964Z" fill="url(#paint4_linear_2003_16360)"/>
</g>
<defs>
<linearGradient id="paint0_linear_2003_16360" x1="32.7702" y1="14.7661" x2="32.7702" y2="72.6961" gradientUnits="userSpaceOnUse">
<stop stop-color="#FFCE82"/>
<stop offset="1" stop-color="#FB5E1A"/>
</linearGradient>
<linearGradient id="paint1_linear_2003_16360" x1="55.7011" y1="65.9961" x2="55.7011" y2="69.6561" gradientUnits="userSpaceOnUse">
<stop stop-color="#FFCE82"/>
<stop offset="1" stop-color="#FB5E1A"/>
</linearGradient>
<linearGradient id="paint2_linear_2003_16360" x1="59.9609" y1="65.9463" x2="59.9609" y2="69.6063" gradientUnits="userSpaceOnUse">
<stop stop-color="#FFCE82"/>
<stop offset="1" stop-color="#FB5E1A"/>
</linearGradient>
<linearGradient id="paint3_linear_2003_16360" x1="59.9609" y1="70.2061" x2="59.9609" y2="73.8661" gradientUnits="userSpaceOnUse">
<stop stop-color="#FFCE82"/>
<stop offset="1" stop-color="#FB5E1A"/>
</linearGradient>
<linearGradient id="paint4_linear_2003_16360" x1="55.7519" y1="70.2964" x2="55.7519" y2="73.9564" gradientUnits="userSpaceOnUse">
<stop stop-color="#FFCE82"/>
<stop offset="1" stop-color="#FB5E1A"/>
</linearGradient>
<clipPath id="clip0_2003_16360">
<rect width="87.08" height="75.16" fill="white" transform="translate(9.46094 0.576172)"/>
</clipPath>
</defs>
</svg>
