<svg width="56" height="51" viewBox="0 0 56 51" fill="none" xmlns="http://www.w3.org/2000/svg">
<path d="M36.3327 13.9998C36.3327 18.5998 32.5993 22.3332 27.9993 22.3332C23.3993 22.3332 19.666 18.5998 19.666 13.9998C19.666 9.39984 23.3993 5.6665 27.9993 5.6665C32.5993 5.6665 36.3327 9.39984 36.3327 13.9998Z" stroke="#6F6F6F" stroke-width="1.5" stroke-linecap="round" stroke-linejoin="round"/>
<path d="M31.0914 16.65L28.5081 15.1083C28.0581 14.8416 27.6914 14.2 27.6914 13.675V10.2583" stroke="#6F6F6F" stroke-width="1.5" stroke-linecap="round" stroke-linejoin="round"/>
<path d="M18.2199 30.82V38H17.1549V34.765H13.4099V38H12.3399V30.82H13.4099V33.99H17.1549V30.82H18.2199ZM20.838 32.92V38H19.863V32.92H20.838ZM21.023 31.35C21.023 31.44 21.0047 31.5267 20.968 31.61C20.9313 31.69 20.8813 31.7617 20.818 31.825C20.758 31.885 20.6863 31.9333 20.603 31.97C20.5197 32.0033 20.433 32.02 20.343 32.02C20.253 32.02 20.168 32.0033 20.088 31.97C20.008 31.9333 19.9363 31.885 19.873 31.825C19.813 31.7617 19.7647 31.69 19.728 31.61C19.6947 31.5267 19.678 31.44 19.678 31.35C19.678 31.2567 19.6947 31.17 19.728 31.09C19.7647 31.0067 19.813 30.935 19.873 30.875C19.9363 30.8117 20.008 30.7633 20.088 30.73C20.168 30.6933 20.253 30.675 20.343 30.675C20.433 30.675 20.5197 30.6933 20.603 30.73C20.6863 30.7633 20.758 30.8117 20.818 30.875C20.8813 30.935 20.9313 31.0067 20.968 31.09C21.0047 31.17 21.023 31.2567 21.023 31.35ZM25.3446 33.795C25.318 33.8383 25.2896 33.87 25.2596 33.89C25.2296 33.9067 25.1913 33.915 25.1446 33.915C25.0913 33.915 25.0313 33.8967 24.9646 33.86C24.9013 33.8233 24.823 33.7833 24.7296 33.74C24.6396 33.6967 24.533 33.6567 24.4096 33.62C24.2863 33.5833 24.1396 33.565 23.9696 33.565C23.8296 33.565 23.7013 33.5833 23.5846 33.62C23.4713 33.6533 23.3746 33.7017 23.2946 33.765C23.2146 33.825 23.153 33.8983 23.1096 33.985C23.0663 34.0683 23.0446 34.1583 23.0446 34.255C23.0446 34.3817 23.0813 34.4867 23.1546 34.57C23.2313 34.6533 23.3296 34.725 23.4496 34.785C23.573 34.845 23.7113 34.9 23.8646 34.95C24.0213 34.9967 24.1796 35.0467 24.3396 35.1C24.503 35.1533 24.6613 35.215 24.8146 35.285C24.9713 35.3517 25.1096 35.4367 25.2296 35.54C25.353 35.64 25.4513 35.7617 25.5246 35.905C25.6013 36.0483 25.6396 36.2233 25.6396 36.43C25.6396 36.6667 25.5963 36.8867 25.5096 37.09C25.4263 37.29 25.3013 37.4633 25.1346 37.61C24.9713 37.7567 24.768 37.8717 24.5246 37.955C24.2813 38.0383 24.003 38.08 23.6896 38.08C23.3396 38.08 23.0163 38.0217 22.7196 37.905C22.423 37.7883 22.1746 37.64 21.9746 37.46L22.2046 37.085C22.2313 37.0383 22.2646 37.0033 22.3046 36.98C22.3446 36.9533 22.398 36.94 22.4646 36.94C22.528 36.94 22.593 36.9633 22.6596 37.01C22.7263 37.0567 22.8063 37.1083 22.8996 37.165C22.993 37.2183 23.1063 37.2683 23.2396 37.315C23.373 37.3583 23.5396 37.38 23.7396 37.38C23.9063 37.38 24.0513 37.36 24.1746 37.32C24.298 37.2767 24.3996 37.22 24.4796 37.15C24.563 37.0767 24.6246 36.9933 24.6646 36.9C24.7046 36.8067 24.7246 36.7083 24.7246 36.605C24.7246 36.4717 24.6863 36.3617 24.6096 36.275C24.5363 36.185 24.438 36.1083 24.3146 36.045C24.1946 35.9817 24.0563 35.9267 23.8996 35.88C23.743 35.8333 23.583 35.7833 23.4196 35.73C23.2563 35.6767 23.0963 35.615 22.9396 35.545C22.783 35.475 22.643 35.3867 22.5196 35.28C22.3996 35.1733 22.3013 35.0433 22.2246 34.89C22.1513 34.7367 22.1146 34.55 22.1146 34.33C22.1146 34.1333 22.1546 33.945 22.2346 33.765C22.318 33.585 22.4363 33.4267 22.5896 33.29C22.7463 33.1533 22.938 33.045 23.1646 32.965C23.3946 32.8817 23.6563 32.84 23.9496 32.84C24.2863 32.84 24.5896 32.8933 24.8596 33C25.133 33.1067 25.3663 33.2533 25.5596 33.44L25.3446 33.795ZM28.3854 38.08C27.9754 38.08 27.6587 37.965 27.4354 37.735C27.2154 37.505 27.1054 37.1767 27.1054 36.75V33.71H26.5154C26.4587 33.71 26.4104 33.6933 26.3704 33.66C26.3337 33.6233 26.3154 33.57 26.3154 33.5V33.105L27.1404 32.99L27.3604 31.475C27.3737 31.4183 27.3987 31.375 27.4354 31.345C27.4754 31.3117 27.5254 31.295 27.5854 31.295H28.0804V33H29.5204V33.71H28.0804V36.685C28.0804 36.885 28.1287 37.035 28.2254 37.135C28.3254 37.2317 28.452 37.28 28.6054 37.28C28.6954 37.28 28.772 37.2683 28.8354 37.245C28.902 37.2217 28.9587 37.1967 29.0054 37.17C29.052 37.14 29.092 37.1133 29.1254 37.09C29.1587 37.0667 29.1887 37.055 29.2154 37.055C29.2487 37.055 29.2737 37.0633 29.2904 37.08C29.3104 37.0933 29.3304 37.1167 29.3504 37.15L29.6404 37.62C29.4804 37.7667 29.2904 37.88 29.0704 37.96C28.8504 38.04 28.622 38.08 28.3854 38.08ZM32.6541 32.84C33.0274 32.84 33.3641 32.9017 33.6641 33.025C33.9674 33.145 34.2241 33.32 34.4341 33.55C34.6474 33.7767 34.8108 34.0517 34.9241 34.375C35.0374 34.695 35.0941 35.055 35.0941 35.455C35.0941 35.855 35.0374 36.2167 34.9241 36.54C34.8108 36.8633 34.6474 37.1383 34.4341 37.365C34.2241 37.5917 33.9674 37.7667 33.6641 37.89C33.3641 38.01 33.0274 38.07 32.6541 38.07C32.2774 38.07 31.9374 38.01 31.6341 37.89C31.3341 37.7667 31.0774 37.5917 30.8641 37.365C30.6508 37.1383 30.4858 36.8633 30.3691 36.54C30.2558 36.2167 30.1991 35.855 30.1991 35.455C30.1991 35.055 30.2558 34.695 30.3691 34.375C30.4858 34.0517 30.6508 33.7767 30.8641 33.55C31.0774 33.32 31.3341 33.145 31.6341 33.025C31.9374 32.9017 32.2774 32.84 32.6541 32.84ZM32.6541 37.31C33.1341 37.31 33.4924 37.1483 33.7291 36.825C33.9658 36.5017 34.0841 36.0467 34.0841 35.46C34.0841 34.8733 33.9658 34.4183 33.7291 34.095C33.4924 33.7683 33.1341 33.605 32.6541 33.605C32.1674 33.605 31.8041 33.7683 31.5641 34.095C31.3274 34.4183 31.2091 34.8733 31.2091 35.46C31.2091 36.0467 31.3274 36.5017 31.5641 36.825C31.8041 37.1483 32.1674 37.31 32.6541 37.31ZM37.2025 33.895C37.3658 33.5617 37.5625 33.3 37.7925 33.11C38.0225 32.92 38.2991 32.825 38.6225 32.825C38.7325 32.825 38.8358 32.8383 38.9325 32.865C39.0325 32.8883 39.1191 32.925 39.1925 32.975L39.1275 33.71C39.1041 33.8 39.0491 33.845 38.9625 33.845C38.9158 33.845 38.8458 33.8367 38.7525 33.82C38.6591 33.8 38.5591 33.79 38.4525 33.79C38.2958 33.79 38.1575 33.8133 38.0375 33.86C37.9175 33.9033 37.8091 33.97 37.7125 34.06C37.6191 34.1467 37.5358 34.255 37.4625 34.385C37.3891 34.5117 37.3208 34.6567 37.2575 34.82V38H36.2825V32.92H36.8425C36.9491 32.92 37.0208 32.94 37.0575 32.98C37.0975 33.0167 37.1258 33.0833 37.1425 33.18L37.2025 33.895ZM44.4846 32.92L41.6646 39.475C41.6346 39.5483 41.5946 39.605 41.5446 39.645C41.4946 39.685 41.4212 39.705 41.3246 39.705H40.5996L41.5296 37.68L39.4446 32.92H40.2946C40.3779 32.92 40.4429 32.94 40.4896 32.98C40.5362 33.02 40.5696 33.065 40.5896 33.115L41.8796 36.165C41.9062 36.2417 41.9312 36.32 41.9546 36.4C41.9812 36.4767 42.0029 36.5533 42.0196 36.63C42.0429 36.55 42.0679 36.4717 42.0946 36.395C42.1212 36.315 42.1496 36.2367 42.1796 36.16L43.4246 33.115C43.4479 33.0583 43.4846 33.0117 43.5346 32.975C43.5846 32.9383 43.6412 32.92 43.7046 32.92H44.4846Z" fill="#6F6F6F"/>
</svg>
