<svg width="56" height="51" viewBox="0 0 56 51" fill="none" xmlns="http://www.w3.org/2000/svg">
<path d="M27.9993 5.6665C23.4077 5.6665 19.666 9.40817 19.666 13.9998C19.666 18.5915 23.4077 22.3332 27.9993 22.3332C32.591 22.3332 36.3327 18.5915 36.3327 13.9998C36.3327 9.40817 32.591 5.6665 27.9993 5.6665ZM31.6243 16.9748C31.5077 17.1748 31.2993 17.2832 31.0827 17.2832C30.9743 17.2832 30.866 17.2582 30.766 17.1915L28.1827 15.6498C27.541 15.2665 27.066 14.4248 27.066 13.6832V10.2665C27.066 9.92484 27.3493 9.6415 27.691 9.6415C28.0327 9.6415 28.316 9.92484 28.316 10.2665V13.6832C28.316 13.9832 28.566 14.4248 28.8243 14.5748L31.4077 16.1165C31.7077 16.2915 31.8077 16.6748 31.6243 16.9748Z" fill="#262626"/>
<path d="M17.7282 38H16.3732V34.84H12.9832V38H11.6282V30.77H12.9832V33.88H16.3732V30.77H17.7282V38ZM20.5318 32.87V38H19.2968V32.87H20.5318ZM20.7168 31.375C20.7168 31.4817 20.6952 31.5817 20.6518 31.675C20.6085 31.7683 20.5502 31.85 20.4768 31.92C20.4068 31.99 20.3235 32.0467 20.2268 32.09C20.1302 32.13 20.0268 32.15 19.9168 32.15C19.8102 32.15 19.7085 32.13 19.6118 32.09C19.5185 32.0467 19.4368 31.99 19.3668 31.92C19.2968 31.85 19.2402 31.7683 19.1968 31.675C19.1568 31.5817 19.1368 31.4817 19.1368 31.375C19.1368 31.265 19.1568 31.1617 19.1968 31.065C19.2402 30.9683 19.2968 30.885 19.3668 30.815C19.4368 30.745 19.5185 30.69 19.6118 30.65C19.7085 30.6067 19.8102 30.585 19.9168 30.585C20.0268 30.585 20.1302 30.6067 20.2268 30.65C20.3235 30.69 20.4068 30.745 20.4768 30.815C20.5502 30.885 20.6085 30.9683 20.6518 31.065C20.6952 31.1617 20.7168 31.265 20.7168 31.375ZM25.0767 33.87C25.0433 33.9233 25.0083 33.9617 24.9717 33.985C24.935 34.005 24.8883 34.015 24.8317 34.015C24.7717 34.015 24.7067 33.9983 24.6367 33.965C24.57 33.9317 24.4917 33.895 24.4017 33.855C24.3117 33.8117 24.2083 33.7733 24.0917 33.74C23.9783 33.7067 23.8433 33.69 23.6867 33.69C23.4433 33.69 23.2517 33.7417 23.1117 33.845C22.9717 33.9483 22.9017 34.0833 22.9017 34.25C22.9017 34.36 22.9367 34.4533 23.0067 34.53C23.08 34.6033 23.175 34.6683 23.2917 34.725C23.4117 34.7817 23.5467 34.8333 23.6967 34.88C23.8467 34.9233 24 34.9717 24.1567 35.025C24.3133 35.0783 24.4667 35.14 24.6167 35.21C24.7667 35.2767 24.9 35.3633 25.0167 35.47C25.1367 35.5733 25.2317 35.6983 25.3017 35.845C25.375 35.9917 25.4117 36.1683 25.4117 36.375C25.4117 36.6217 25.3667 36.85 25.2767 37.06C25.1867 37.2667 25.055 37.4467 24.8817 37.6C24.7083 37.75 24.4933 37.8683 24.2367 37.955C23.9833 38.0383 23.6917 38.08 23.3617 38.08C23.185 38.08 23.0117 38.0633 22.8417 38.03C22.675 38 22.5133 37.9567 22.3567 37.9C22.2033 37.8433 22.06 37.7767 21.9267 37.7C21.7967 37.6233 21.6817 37.54 21.5817 37.45L21.8667 36.98C21.9033 36.9233 21.9467 36.88 21.9967 36.85C22.0467 36.82 22.11 36.805 22.1867 36.805C22.2633 36.805 22.335 36.8267 22.4017 36.87C22.4717 36.9133 22.5517 36.96 22.6417 37.01C22.7317 37.06 22.8367 37.1067 22.9567 37.15C23.08 37.1933 23.235 37.215 23.4217 37.215C23.5683 37.215 23.6933 37.1983 23.7967 37.165C23.9033 37.1283 23.99 37.0817 24.0567 37.025C24.1267 36.9683 24.1767 36.9033 24.2067 36.83C24.24 36.7533 24.2567 36.675 24.2567 36.595C24.2567 36.475 24.22 36.3767 24.1467 36.3C24.0767 36.2233 23.9817 36.1567 23.8617 36.1C23.745 36.0433 23.61 35.9933 23.4567 35.95C23.3067 35.9033 23.1517 35.8533 22.9917 35.8C22.835 35.7467 22.68 35.685 22.5267 35.615C22.3767 35.5417 22.2417 35.45 22.1217 35.34C22.005 35.23 21.91 35.095 21.8367 34.935C21.7667 34.775 21.7317 34.5817 21.7317 34.355C21.7317 34.145 21.7733 33.945 21.8567 33.755C21.94 33.565 22.0617 33.4 22.2217 33.26C22.385 33.1167 22.5867 33.0033 22.8267 32.92C23.07 32.8333 23.35 32.79 23.6667 32.79C24.02 32.79 24.3417 32.8483 24.6317 32.965C24.9217 33.0817 25.1633 33.235 25.3567 33.425L25.0767 33.87ZM28.1819 38.08C27.7386 38.08 27.3969 37.955 27.1569 37.705C26.9169 37.4517 26.7969 37.1033 26.7969 36.66V33.795H26.2769C26.2102 33.795 26.1519 33.7733 26.1019 33.73C26.0552 33.6867 26.0319 33.6217 26.0319 33.535V33.045L26.8569 32.91L27.1169 31.51C27.1302 31.4433 27.1602 31.3917 27.2069 31.355C27.2569 31.3183 27.3186 31.3 27.3919 31.3H28.0319V32.915H29.3819V33.795H28.0319V36.575C28.0319 36.735 28.0719 36.86 28.1519 36.95C28.2319 37.04 28.3386 37.085 28.4719 37.085C28.5486 37.085 28.6119 37.0767 28.6619 37.06C28.7152 37.04 28.7602 37.02 28.7969 37C28.8369 36.98 28.8719 36.9617 28.9019 36.945C28.9319 36.925 28.9619 36.915 28.9919 36.915C29.0286 36.915 29.0586 36.925 29.0819 36.945C29.1052 36.9617 29.1302 36.9883 29.1569 37.025L29.5269 37.625C29.3469 37.775 29.1402 37.8883 28.9069 37.965C28.6736 38.0417 28.4319 38.08 28.1819 38.08ZM32.6541 32.79C33.0374 32.79 33.3841 32.8517 33.6941 32.975C34.0074 33.0983 34.2741 33.2733 34.4941 33.5C34.7141 33.7267 34.8841 34.0033 35.0041 34.33C35.1241 34.6567 35.1841 35.0217 35.1841 35.425C35.1841 35.8317 35.1241 36.1983 35.0041 36.525C34.8841 36.8517 34.7141 37.13 34.4941 37.36C34.2741 37.59 34.0074 37.7667 33.6941 37.89C33.3841 38.0133 33.0374 38.075 32.6541 38.075C32.2708 38.075 31.9224 38.0133 31.6091 37.89C31.2958 37.7667 31.0274 37.59 30.8041 37.36C30.5841 37.13 30.4124 36.8517 30.2891 36.525C30.1691 36.1983 30.1091 35.8317 30.1091 35.425C30.1091 35.0217 30.1691 34.6567 30.2891 34.33C30.4124 34.0033 30.5841 33.7267 30.8041 33.5C31.0274 33.2733 31.2958 33.0983 31.6091 32.975C31.9224 32.8517 32.2708 32.79 32.6541 32.79ZM32.6541 37.125C33.0808 37.125 33.3958 36.9817 33.5991 36.695C33.8058 36.4083 33.9091 35.9883 33.9091 35.435C33.9091 34.8817 33.8058 34.46 33.5991 34.17C33.3958 33.88 33.0808 33.735 32.6541 33.735C32.2208 33.735 31.9008 33.8817 31.6941 34.175C31.4874 34.465 31.3841 34.885 31.3841 35.435C31.3841 35.985 31.4874 36.405 31.6941 36.695C31.9008 36.9817 32.2208 37.125 32.6541 37.125ZM36.2477 38V32.87H36.9727C37.0994 32.87 37.1877 32.8933 37.2377 32.94C37.2877 32.9867 37.321 33.0667 37.3377 33.18L37.4127 33.8C37.596 33.4833 37.811 33.2333 38.0577 33.05C38.3044 32.8667 38.581 32.775 38.8877 32.775C39.141 32.775 39.351 32.8333 39.5177 32.95L39.3577 33.875C39.3477 33.935 39.326 33.9783 39.2927 34.005C39.2594 34.0283 39.2144 34.04 39.1577 34.04C39.1077 34.04 39.0394 34.0283 38.9527 34.005C38.866 33.9817 38.751 33.97 38.6077 33.97C38.351 33.97 38.131 34.0417 37.9477 34.185C37.7644 34.325 37.6094 34.5317 37.4827 34.805V38H36.2477ZM42.2497 39.41C42.2131 39.4967 42.1647 39.5617 42.1047 39.605C42.0481 39.6517 41.9597 39.675 41.8397 39.675H40.9197L41.8797 37.62L39.8047 32.87H40.8847C40.9847 32.87 41.0614 32.8933 41.1147 32.94C41.1681 32.9867 41.2081 33.04 41.2347 33.1L42.3297 35.76C42.3664 35.8467 42.3981 35.9367 42.4247 36.03C42.4514 36.1233 42.4747 36.2167 42.4947 36.31C42.5214 36.2133 42.5497 36.12 42.5797 36.03C42.6131 35.94 42.6481 35.8483 42.6847 35.755L43.7147 33.1C43.7414 33.0333 43.7847 32.9783 43.8447 32.935C43.9081 32.8917 43.9781 32.87 44.0547 32.87H45.0447L42.2497 39.41Z" fill="#262626"/>
<rect x="25.5" y="44" width="5" height="3" rx="1.5" fill="#EA8913"/>
</svg>
