<svg width="56" height="51" viewBox="0 0 56 51" fill="none" xmlns="http://www.w3.org/2000/svg">
<g clip-path="url(#clip0_2039_1544)">
<path d="M32.6656 22.8H23.3322C21.8156 22.8 20.4322 21.6333 20.1822 20.1333L19.0739 13.5C18.8989 12.4667 19.3989 11.1417 20.2239 10.4834L25.9989 5.85834C27.1156 4.95834 28.8739 4.96669 29.9989 5.86669L35.7739 10.4834C36.5906 11.1417 37.0906 12.4667 36.9239 13.5L35.8156 20.1333C35.5656 21.6083 34.1572 22.8 32.6656 22.8ZM27.9906 6.45003C27.5489 6.45003 27.1072 6.58334 26.7822 6.84167L21.0072 11.4667C20.5322 11.85 20.2072 12.7 20.3072 13.3L21.4156 19.9334C21.5656 20.8084 22.4406 21.55 23.3322 21.55H32.6656C33.5572 21.55 34.4322 20.8083 34.5822 19.925L35.6906 13.2917C35.7906 12.6917 35.4572 11.8334 34.9906 11.4584L29.2156 6.84167C28.8822 6.58334 28.4406 6.45003 27.9906 6.45003Z" fill="#6F6F6F"/>
<path d="M27.9993 17.5417C26.5077 17.5417 25.291 16.325 25.291 14.8333C25.291 13.3417 26.5077 12.125 27.9993 12.125C29.491 12.125 30.7077 13.3417 30.7077 14.8333C30.7077 16.325 29.491 17.5417 27.9993 17.5417ZM27.9993 13.375C27.1993 13.375 26.541 14.0333 26.541 14.8333C26.541 15.6333 27.1993 16.2917 27.9993 16.2917C28.7993 16.2917 29.4577 15.6333 29.4577 14.8333C29.4577 14.0333 28.7993 13.375 27.9993 13.375Z" fill="#6F6F6F"/>
</g>
<path d="M21.241 30.82V38H20.176V34.765H16.431V38H15.361V30.82H16.431V33.99H20.176V30.82H21.241ZM24.926 32.84C25.2993 32.84 25.636 32.9017 25.936 33.025C26.2393 33.145 26.496 33.32 26.706 33.55C26.9193 33.7767 27.0826 34.0517 27.196 34.375C27.3093 34.695 27.366 35.055 27.366 35.455C27.366 35.855 27.3093 36.2167 27.196 36.54C27.0826 36.8633 26.9193 37.1383 26.706 37.365C26.496 37.5917 26.2393 37.7667 25.936 37.89C25.636 38.01 25.2993 38.07 24.926 38.07C24.5493 38.07 24.2093 38.01 23.906 37.89C23.606 37.7667 23.3493 37.5917 23.136 37.365C22.9226 37.1383 22.7576 36.8633 22.641 36.54C22.5276 36.2167 22.471 35.855 22.471 35.455C22.471 35.055 22.5276 34.695 22.641 34.375C22.7576 34.0517 22.9226 33.7767 23.136 33.55C23.3493 33.32 23.606 33.145 23.906 33.025C24.2093 32.9017 24.5493 32.84 24.926 32.84ZM24.926 37.31C25.406 37.31 25.7643 37.1483 26.001 36.825C26.2376 36.5017 26.356 36.0467 26.356 35.46C26.356 34.8733 26.2376 34.4183 26.001 34.095C25.7643 33.7683 25.406 33.605 24.926 33.605C24.4393 33.605 24.076 33.7683 23.836 34.095C23.5993 34.4183 23.481 34.8733 23.481 35.46C23.481 36.0467 23.5993 36.5017 23.836 36.825C24.076 37.1483 24.4393 37.31 24.926 37.31ZM28.5543 38V32.92H29.1393C29.276 32.92 29.361 32.985 29.3943 33.115L29.4643 33.6C29.651 33.3767 29.8577 33.195 30.0843 33.055C30.3143 32.9117 30.5827 32.84 30.8893 32.84C31.226 32.84 31.4993 32.9333 31.7093 33.12C31.9193 33.3033 32.0727 33.5533 32.1693 33.87C32.2427 33.69 32.3377 33.535 32.4543 33.405C32.571 33.275 32.701 33.1683 32.8443 33.085C32.9877 33.0017 33.1393 32.94 33.2993 32.9C33.4627 32.86 33.6277 32.84 33.7943 32.84C34.0643 32.84 34.3043 32.8833 34.5143 32.97C34.7277 33.0533 34.9077 33.1767 35.0543 33.34C35.201 33.5033 35.3127 33.705 35.3893 33.945C35.466 34.185 35.5043 34.4583 35.5043 34.765V38H34.5243V34.765C34.5243 34.385 34.441 34.0983 34.2743 33.905C34.111 33.7117 33.871 33.615 33.5543 33.615C33.4143 33.615 33.281 33.64 33.1543 33.69C33.0277 33.7367 32.916 33.8083 32.8193 33.905C32.726 34.0017 32.651 34.1217 32.5943 34.265C32.541 34.4083 32.5143 34.575 32.5143 34.765V38H31.5343V34.765C31.5343 34.3717 31.456 34.0817 31.2993 33.895C31.1427 33.7083 30.9127 33.615 30.6093 33.615C30.3993 33.615 30.2043 33.67 30.0243 33.78C29.8443 33.89 29.6793 34.04 29.5293 34.23V38H28.5543ZM40.2811 34.895C40.2811 34.7017 40.2527 34.5233 40.1961 34.36C40.1427 34.1967 40.0627 34.055 39.9561 33.935C39.8494 33.815 39.7194 33.7217 39.5661 33.655C39.4127 33.5883 39.2361 33.555 39.0361 33.555C38.6261 33.555 38.3027 33.6733 38.0661 33.91C37.8327 34.1467 37.6844 34.475 37.6211 34.895H40.2811ZM41.0861 37.275C40.9661 37.415 40.8277 37.5367 40.6711 37.64C40.5144 37.74 40.3477 37.8217 40.1711 37.885C39.9944 37.9483 39.8111 37.995 39.6211 38.025C39.4344 38.055 39.2494 38.07 39.0661 38.07C38.7161 38.07 38.3911 38.0117 38.0911 37.895C37.7944 37.775 37.5361 37.6017 37.3161 37.375C37.0994 37.145 36.9294 36.8617 36.8061 36.525C36.6861 36.185 36.6261 35.795 36.6261 35.355C36.6261 35.0017 36.6811 34.6733 36.7911 34.37C36.9011 34.0633 37.0577 33.7967 37.2611 33.57C37.4677 33.3433 37.7194 33.165 38.0161 33.035C38.3127 32.905 38.6461 32.84 39.0161 32.84C39.3261 32.84 39.6111 32.8917 39.8711 32.995C40.1344 33.095 40.3611 33.2417 40.5511 33.435C40.7411 33.6283 40.8894 33.8667 40.9961 34.15C41.1061 34.4333 41.1611 34.7567 41.1611 35.12C41.1611 35.27 41.1444 35.3717 41.1111 35.425C41.0777 35.475 41.0161 35.5 40.9261 35.5H37.5961C37.6061 35.8033 37.6494 36.0683 37.7261 36.295C37.8027 36.5183 37.9077 36.705 38.0411 36.855C38.1777 37.005 38.3394 37.1167 38.5261 37.19C38.7127 37.2633 38.9211 37.3 39.1511 37.3C39.3677 37.3 39.5544 37.275 39.7111 37.225C39.8711 37.175 40.0077 37.1217 40.1211 37.065C40.2377 37.005 40.3344 36.95 40.4111 36.9C40.4911 36.85 40.5611 36.825 40.6211 36.825C40.7011 36.825 40.7627 36.855 40.8061 36.915L41.0861 37.275Z" fill="#6F6F6F"/>
<defs>
<clipPath id="clip0_2039_1544">
<rect width="20" height="20" fill="white" transform="translate(18 4)"/>
</clipPath>
</defs>
</svg>
