<svg width="56" height="51" viewBox="0 0 56 51" fill="none" xmlns="http://www.w3.org/2000/svg">
<g clip-path="url(#clip0_2039_1542)">
<path d="M35.3834 10.975L29.6084 6.35837C28.7167 5.6417 27.2751 5.6417 26.3917 6.35004L20.6167 10.975C19.9667 11.4917 19.5501 12.5834 19.6917 13.4L20.8001 20.0334C21.0001 21.2167 22.1334 22.175 23.3334 22.175H32.6667C33.8584 22.175 35.0001 21.2084 35.2001 20.0334L36.3084 13.4C36.4417 12.5834 36.0251 11.4917 35.3834 10.975ZM28.0001 16.9167C26.8501 16.9167 25.9167 15.9834 25.9167 14.8334C25.9167 13.6834 26.8501 12.75 28.0001 12.75C29.1501 12.75 30.0834 13.6834 30.0834 14.8334C30.0834 15.9834 29.1501 16.9167 28.0001 16.9167Z" fill="#232323"/>
</g>
<path d="M21.179 38H19.824V34.84H16.434V38H15.079V30.77H16.434V33.88H19.824V30.77H21.179V38ZM24.8576 32.79C25.241 32.79 25.5876 32.8517 25.8976 32.975C26.211 33.0983 26.4776 33.2733 26.6976 33.5C26.9176 33.7267 27.0876 34.0033 27.2076 34.33C27.3276 34.6567 27.3876 35.0217 27.3876 35.425C27.3876 35.8317 27.3276 36.1983 27.2076 36.525C27.0876 36.8517 26.9176 37.13 26.6976 37.36C26.4776 37.59 26.211 37.7667 25.8976 37.89C25.5876 38.0133 25.241 38.075 24.8576 38.075C24.4743 38.075 24.126 38.0133 23.8126 37.89C23.4993 37.7667 23.231 37.59 23.0076 37.36C22.7876 37.13 22.616 36.8517 22.4926 36.525C22.3726 36.1983 22.3126 35.8317 22.3126 35.425C22.3126 35.0217 22.3726 34.6567 22.4926 34.33C22.616 34.0033 22.7876 33.7267 23.0076 33.5C23.231 33.2733 23.4993 33.0983 23.8126 32.975C24.126 32.8517 24.4743 32.79 24.8576 32.79ZM24.8576 37.125C25.2843 37.125 25.5993 36.9817 25.8026 36.695C26.0093 36.4083 26.1126 35.9883 26.1126 35.435C26.1126 34.8817 26.0093 34.46 25.8026 34.17C25.5993 33.88 25.2843 33.735 24.8576 33.735C24.4243 33.735 24.1043 33.8817 23.8976 34.175C23.691 34.465 23.5876 34.885 23.5876 35.435C23.5876 35.985 23.691 36.405 23.8976 36.695C24.1043 36.9817 24.4243 37.125 24.8576 37.125ZM28.4512 38V32.87H29.2062C29.3662 32.87 29.4712 32.945 29.5212 33.095L29.6012 33.475C29.6912 33.375 29.7845 33.2833 29.8812 33.2C29.9812 33.1167 30.0862 33.045 30.1962 32.985C30.3095 32.925 30.4295 32.8783 30.5562 32.845C30.6862 32.8083 30.8279 32.79 30.9812 32.79C31.3045 32.79 31.5695 32.8783 31.7762 33.055C31.9862 33.2283 32.1429 33.46 32.2462 33.75C32.3262 33.58 32.4262 33.435 32.5462 33.315C32.6662 33.1917 32.7979 33.0917 32.9412 33.015C33.0845 32.9383 33.2362 32.8817 33.3962 32.845C33.5595 32.8083 33.7229 32.79 33.8862 32.79C34.1695 32.79 34.4212 32.8333 34.6412 32.92C34.8612 33.0067 35.0462 33.1333 35.1962 33.3C35.3462 33.4667 35.4595 33.67 35.5362 33.91C35.6162 34.15 35.6562 34.425 35.6562 34.735V38H34.4212V34.735C34.4212 34.4083 34.3495 34.1633 34.2062 34C34.0629 33.8333 33.8529 33.75 33.5762 33.75C33.4495 33.75 33.3312 33.7717 33.2212 33.815C33.1145 33.8583 33.0195 33.9217 32.9362 34.005C32.8562 34.085 32.7929 34.1867 32.7462 34.31C32.6995 34.4333 32.6762 34.575 32.6762 34.735V38H31.4362V34.735C31.4362 34.3917 31.3662 34.1417 31.2262 33.985C31.0895 33.8283 30.8862 33.75 30.6162 33.75C30.4395 33.75 30.2729 33.795 30.1162 33.885C29.9629 33.9717 29.8195 34.0917 29.6862 34.245V38H28.4512ZM39.0892 32.79C39.4125 32.79 39.7092 32.8417 39.9792 32.945C40.2525 33.0483 40.4875 33.2 40.6842 33.4C40.8808 33.5967 41.0342 33.84 41.1442 34.13C41.2542 34.4167 41.3092 34.745 41.3092 35.115C41.3092 35.2083 41.3042 35.2867 41.2942 35.35C41.2875 35.41 41.2725 35.4583 41.2492 35.495C41.2292 35.5283 41.2008 35.5533 41.1642 35.57C41.1275 35.5833 41.0808 35.59 41.0242 35.59H37.8542C37.8908 36.1167 38.0325 36.5033 38.2792 36.75C38.5258 36.9967 38.8525 37.12 39.2592 37.12C39.4592 37.12 39.6308 37.0967 39.7742 37.05C39.9208 37.0033 40.0475 36.9517 40.1542 36.895C40.2642 36.8383 40.3592 36.7867 40.4392 36.74C40.5225 36.6933 40.6025 36.67 40.6792 36.67C40.7292 36.67 40.7725 36.68 40.8092 36.7C40.8458 36.72 40.8775 36.7483 40.9042 36.785L41.2642 37.235C41.1275 37.395 40.9742 37.53 40.8042 37.64C40.6342 37.7467 40.4558 37.8333 40.2692 37.9C40.0858 37.9633 39.8975 38.0083 39.7042 38.035C39.5142 38.0617 39.3292 38.075 39.1492 38.075C38.7925 38.075 38.4608 38.0167 38.1542 37.9C37.8475 37.78 37.5808 37.605 37.3542 37.375C37.1275 37.1417 36.9492 36.855 36.8192 36.515C36.6892 36.1717 36.6242 35.775 36.6242 35.325C36.6242 34.975 36.6808 34.6467 36.7942 34.34C36.9075 34.03 37.0692 33.7617 37.2792 33.535C37.4925 33.305 37.7508 33.1233 38.0542 32.99C38.3608 32.8567 38.7058 32.79 39.0892 32.79ZM39.1142 33.675C38.7542 33.675 38.4725 33.7767 38.2692 33.98C38.0658 34.1833 37.9358 34.4717 37.8792 34.845H40.1992C40.1992 34.685 40.1775 34.535 40.1342 34.395C40.0908 34.2517 40.0242 34.1267 39.9342 34.02C39.8442 33.9133 39.7308 33.83 39.5942 33.77C39.4575 33.7067 39.2975 33.675 39.1142 33.675Z" fill="#232323"/>
<rect x="25.5" y="44" width="5" height="3" rx="1.5" fill="#EA8913"/>
<defs>
<clipPath id="clip0_2039_1542">
<rect width="20" height="20" fill="white" transform="translate(18 4)"/>
</clipPath>
</defs>
</svg>
