<svg width="56" height="51" viewBox="0 0 56 51" fill="none" xmlns="http://www.w3.org/2000/svg">
<g clip-path="url(#clip0_2039_2310)">
<path d="M24.2438 20.4932C25.8192 21.405 27.6725 21.7127 29.458 21.359C31.2436 21.0053 32.8396 20.0143 33.9484 18.5708C35.0573 17.1273 35.6033 15.3298 35.4847 13.5134C35.3662 11.697 34.5911 9.98577 33.304 8.69866C32.0169 7.41156 30.3056 6.63646 28.4892 6.51789C26.6728 6.39932 24.8753 6.94537 23.4318 8.05422C21.9883 9.16308 20.9973 10.7591 20.6436 12.5446C20.2899 14.3302 20.5977 16.1834 21.5094 17.7588L20.5321 20.6768C20.4954 20.7869 20.49 20.9051 20.5167 21.0181C20.5434 21.131 20.601 21.2344 20.6831 21.3165C20.7651 21.3985 20.8685 21.4561 20.9814 21.4828C21.0944 21.5095 21.2126 21.5041 21.3227 21.4674L24.2438 20.4932Z" fill="#232323"/>
<path d="M28 14.7812C28.4315 14.7812 28.7812 14.4315 28.7812 14C28.7812 13.5685 28.4315 13.2188 28 13.2188C27.5685 13.2188 27.2188 13.5685 27.2188 14C27.2188 14.4315 27.5685 14.7812 28 14.7812Z" fill="white"/>
<path d="M24.5625 14.7812C24.994 14.7812 25.3438 14.4315 25.3438 14C25.3438 13.5685 24.994 13.2188 24.5625 13.2188C24.131 13.2188 23.7812 13.5685 23.7812 14C23.7812 14.4315 24.131 14.7812 24.5625 14.7812Z" fill="white"/>
<path d="M31.4375 14.7812C31.869 14.7812 32.2188 14.4315 32.2188 14C32.2188 13.5685 31.869 13.2188 31.4375 13.2188C31.006 13.2188 30.6562 13.5685 30.6562 14C30.6562 14.4315 31.006 14.7812 31.4375 14.7812Z" fill="white"/>
</g>
<path d="M10.2668 35C10.3235 35.1067 10.3752 35.2183 10.4218 35.335C10.4718 35.4483 10.5202 35.5633 10.5668 35.68C10.6135 35.56 10.6618 35.4417 10.7118 35.325C10.7618 35.2083 10.8152 35.0967 10.8718 34.99L13.0118 30.985C13.0385 30.935 13.0652 30.895 13.0918 30.865C13.1218 30.835 13.1535 30.8133 13.1868 30.8C13.2235 30.7867 13.2635 30.7783 13.3068 30.775C13.3502 30.7717 13.4018 30.77 13.4618 30.77H14.4768V38H13.2918V33.33C13.2918 33.2433 13.2935 33.1483 13.2968 33.045C13.3035 32.9417 13.3118 32.8367 13.3218 32.73L11.1368 36.83C11.0868 36.9233 11.0218 36.9967 10.9418 37.05C10.8618 37.1 10.7685 37.125 10.6618 37.125H10.4768C10.3702 37.125 10.2768 37.1 10.1968 37.05C10.1168 36.9967 10.0518 36.9233 10.0018 36.83L7.78684 32.715C7.80017 32.825 7.8085 32.9333 7.81184 33.04C7.8185 33.1433 7.82184 33.24 7.82184 33.33V38H6.63684V30.77H7.65184C7.71184 30.77 7.7635 30.7717 7.80684 30.775C7.85017 30.7783 7.8885 30.7867 7.92184 30.8C7.9585 30.8133 7.99184 30.835 8.02184 30.865C8.05184 30.895 8.08017 30.935 8.10684 30.985L10.2668 35ZM18.0837 32.79C18.407 32.79 18.7037 32.8417 18.9737 32.945C19.247 33.0483 19.482 33.2 19.6787 33.4C19.8754 33.5967 20.0287 33.84 20.1387 34.13C20.2487 34.4167 20.3037 34.745 20.3037 35.115C20.3037 35.2083 20.2987 35.2867 20.2887 35.35C20.282 35.41 20.267 35.4583 20.2437 35.495C20.2237 35.5283 20.1954 35.5533 20.1587 35.57C20.122 35.5833 20.0754 35.59 20.0187 35.59H16.8487C16.8854 36.1167 17.027 36.5033 17.2737 36.75C17.5204 36.9967 17.847 37.12 18.2537 37.12C18.4537 37.12 18.6254 37.0967 18.7687 37.05C18.9154 37.0033 19.042 36.9517 19.1487 36.895C19.2587 36.8383 19.3537 36.7867 19.4337 36.74C19.517 36.6933 19.597 36.67 19.6737 36.67C19.7237 36.67 19.767 36.68 19.8037 36.7C19.8404 36.72 19.872 36.7483 19.8987 36.785L20.2587 37.235C20.122 37.395 19.9687 37.53 19.7987 37.64C19.6287 37.7467 19.4504 37.8333 19.2637 37.9C19.0804 37.9633 18.892 38.0083 18.6987 38.035C18.5087 38.0617 18.3237 38.075 18.1437 38.075C17.787 38.075 17.4554 38.0167 17.1487 37.9C16.842 37.78 16.5754 37.605 16.3487 37.375C16.122 37.1417 15.9437 36.855 15.8137 36.515C15.6837 36.1717 15.6187 35.775 15.6187 35.325C15.6187 34.975 15.6754 34.6467 15.7887 34.34C15.902 34.03 16.0637 33.7617 16.2737 33.535C16.487 33.305 16.7454 33.1233 17.0487 32.99C17.3554 32.8567 17.7004 32.79 18.0837 32.79ZM18.1087 33.675C17.7487 33.675 17.467 33.7767 17.2637 33.98C17.0604 34.1833 16.9304 34.4717 16.8737 34.845H19.1937C19.1937 34.685 19.172 34.535 19.1287 34.395C19.0854 34.2517 19.0187 34.1267 18.9287 34.02C18.8387 33.9133 18.7254 33.83 18.5887 33.77C18.452 33.7067 18.292 33.675 18.1087 33.675ZM24.4505 33.87C24.4172 33.9233 24.3822 33.9617 24.3455 33.985C24.3088 34.005 24.2622 34.015 24.2055 34.015C24.1455 34.015 24.0805 33.9983 24.0105 33.965C23.9438 33.9317 23.8655 33.895 23.7755 33.855C23.6855 33.8117 23.5822 33.7733 23.4655 33.74C23.3522 33.7067 23.2172 33.69 23.0605 33.69C22.8172 33.69 22.6255 33.7417 22.4855 33.845C22.3455 33.9483 22.2755 34.0833 22.2755 34.25C22.2755 34.36 22.3105 34.4533 22.3805 34.53C22.4538 34.6033 22.5488 34.6683 22.6655 34.725C22.7855 34.7817 22.9205 34.8333 23.0705 34.88C23.2205 34.9233 23.3738 34.9717 23.5305 35.025C23.6872 35.0783 23.8405 35.14 23.9905 35.21C24.1405 35.2767 24.2738 35.3633 24.3905 35.47C24.5105 35.5733 24.6055 35.6983 24.6755 35.845C24.7488 35.9917 24.7855 36.1683 24.7855 36.375C24.7855 36.6217 24.7405 36.85 24.6505 37.06C24.5605 37.2667 24.4288 37.4467 24.2555 37.6C24.0822 37.75 23.8672 37.8683 23.6105 37.955C23.3572 38.0383 23.0655 38.08 22.7355 38.08C22.5588 38.08 22.3855 38.0633 22.2155 38.03C22.0488 38 21.8872 37.9567 21.7305 37.9C21.5772 37.8433 21.4338 37.7767 21.3005 37.7C21.1705 37.6233 21.0555 37.54 20.9555 37.45L21.2405 36.98C21.2772 36.9233 21.3205 36.88 21.3705 36.85C21.4205 36.82 21.4838 36.805 21.5605 36.805C21.6372 36.805 21.7088 36.8267 21.7755 36.87C21.8455 36.9133 21.9255 36.96 22.0155 37.01C22.1055 37.06 22.2105 37.1067 22.3305 37.15C22.4538 37.1933 22.6088 37.215 22.7955 37.215C22.9422 37.215 23.0672 37.1983 23.1705 37.165C23.2772 37.1283 23.3638 37.0817 23.4305 37.025C23.5005 36.9683 23.5505 36.9033 23.5805 36.83C23.6138 36.7533 23.6305 36.675 23.6305 36.595C23.6305 36.475 23.5938 36.3767 23.5205 36.3C23.4505 36.2233 23.3555 36.1567 23.2355 36.1C23.1188 36.0433 22.9838 35.9933 22.8305 35.95C22.6805 35.9033 22.5255 35.8533 22.3655 35.8C22.2088 35.7467 22.0538 35.685 21.9005 35.615C21.7505 35.5417 21.6155 35.45 21.4955 35.34C21.3788 35.23 21.2838 35.095 21.2105 34.935C21.1405 34.775 21.1055 34.5817 21.1055 34.355C21.1055 34.145 21.1472 33.945 21.2305 33.755C21.3138 33.565 21.4355 33.4 21.5955 33.26C21.7588 33.1167 21.9605 33.0033 22.2005 32.92C22.4438 32.8333 22.7238 32.79 23.0405 32.79C23.3938 32.79 23.7155 32.8483 24.0055 32.965C24.2955 33.0817 24.5372 33.235 24.7305 33.425L24.4505 33.87ZM28.9157 33.87C28.8824 33.9233 28.8474 33.9617 28.8107 33.985C28.7741 34.005 28.7274 34.015 28.6707 34.015C28.6107 34.015 28.5457 33.9983 28.4757 33.965C28.4091 33.9317 28.3307 33.895 28.2407 33.855C28.1507 33.8117 28.0474 33.7733 27.9307 33.74C27.8174 33.7067 27.6824 33.69 27.5257 33.69C27.2824 33.69 27.0907 33.7417 26.9507 33.845C26.8107 33.9483 26.7407 34.0833 26.7407 34.25C26.7407 34.36 26.7757 34.4533 26.8457 34.53C26.9191 34.6033 27.0141 34.6683 27.1307 34.725C27.2507 34.7817 27.3857 34.8333 27.5357 34.88C27.6857 34.9233 27.8391 34.9717 27.9957 35.025C28.1524 35.0783 28.3057 35.14 28.4557 35.21C28.6057 35.2767 28.7391 35.3633 28.8557 35.47C28.9757 35.5733 29.0707 35.6983 29.1407 35.845C29.2141 35.9917 29.2507 36.1683 29.2507 36.375C29.2507 36.6217 29.2057 36.85 29.1157 37.06C29.0257 37.2667 28.8941 37.4467 28.7207 37.6C28.5474 37.75 28.3324 37.8683 28.0757 37.955C27.8224 38.0383 27.5307 38.08 27.2007 38.08C27.0241 38.08 26.8507 38.0633 26.6807 38.03C26.5141 38 26.3524 37.9567 26.1957 37.9C26.0424 37.8433 25.8991 37.7767 25.7657 37.7C25.6357 37.6233 25.5207 37.54 25.4207 37.45L25.7057 36.98C25.7424 36.9233 25.7857 36.88 25.8357 36.85C25.8857 36.82 25.9491 36.805 26.0257 36.805C26.1024 36.805 26.1741 36.8267 26.2407 36.87C26.3107 36.9133 26.3907 36.96 26.4807 37.01C26.5707 37.06 26.6757 37.1067 26.7957 37.15C26.9191 37.1933 27.0741 37.215 27.2607 37.215C27.4074 37.215 27.5324 37.1983 27.6357 37.165C27.7424 37.1283 27.8291 37.0817 27.8957 37.025C27.9657 36.9683 28.0157 36.9033 28.0457 36.83C28.0791 36.7533 28.0957 36.675 28.0957 36.595C28.0957 36.475 28.0591 36.3767 27.9857 36.3C27.9157 36.2233 27.8207 36.1567 27.7007 36.1C27.5841 36.0433 27.4491 35.9933 27.2957 35.95C27.1457 35.9033 26.9907 35.8533 26.8307 35.8C26.6741 35.7467 26.5191 35.685 26.3657 35.615C26.2157 35.5417 26.0807 35.45 25.9607 35.34C25.8441 35.23 25.7491 35.095 25.6757 34.935C25.6057 34.775 25.5707 34.5817 25.5707 34.355C25.5707 34.145 25.6124 33.945 25.6957 33.755C25.7791 33.565 25.9007 33.4 26.0607 33.26C26.2241 33.1167 26.4257 33.0033 26.6657 32.92C26.9091 32.8333 27.1891 32.79 27.5057 32.79C27.8591 32.79 28.1807 32.8483 28.4707 32.965C28.7607 33.0817 29.0024 33.235 29.1957 33.425L28.9157 33.87ZM34.356 38H33.801C33.6843 38 33.5926 37.9833 33.526 37.95C33.4593 37.9133 33.4093 37.8417 33.376 37.735L33.266 37.37C33.136 37.4867 33.0076 37.59 32.881 37.68C32.7576 37.7667 32.6293 37.84 32.496 37.9C32.3626 37.96 32.221 38.005 32.071 38.035C31.921 38.065 31.7543 38.08 31.571 38.08C31.3543 38.08 31.1543 38.0517 30.971 37.995C30.7876 37.935 30.6293 37.8467 30.496 37.73C30.366 37.6133 30.2643 37.4683 30.191 37.295C30.1176 37.1217 30.081 36.92 30.081 36.69C30.081 36.4967 30.131 36.3067 30.231 36.12C30.3343 35.93 30.5043 35.76 30.741 35.61C30.9776 35.4567 31.2926 35.33 31.686 35.23C32.0793 35.13 32.5676 35.0733 33.151 35.06V34.76C33.151 34.4167 33.0776 34.1633 32.931 34C32.7876 33.8333 32.5776 33.75 32.301 33.75C32.101 33.75 31.9343 33.7733 31.801 33.82C31.6676 33.8667 31.551 33.92 31.451 33.98C31.3543 34.0367 31.2643 34.0883 31.181 34.135C31.0976 34.1817 31.006 34.205 30.906 34.205C30.8226 34.205 30.751 34.1833 30.691 34.14C30.631 34.0967 30.5826 34.0433 30.546 33.98L30.321 33.585C30.911 33.045 31.6226 32.775 32.456 32.775C32.756 32.775 33.0226 32.825 33.256 32.925C33.4926 33.0217 33.6926 33.1583 33.856 33.335C34.0193 33.5083 34.1426 33.7167 34.226 33.96C34.3126 34.2033 34.356 34.47 34.356 34.76V38ZM31.956 37.23C32.0826 37.23 32.1993 37.2183 32.306 37.195C32.4126 37.1717 32.5126 37.1367 32.606 37.09C32.7026 37.0433 32.7943 36.9867 32.881 36.92C32.971 36.85 33.061 36.7683 33.151 36.675V35.81C32.791 35.8267 32.4893 35.8583 32.246 35.905C32.006 35.9483 31.8126 36.005 31.666 36.075C31.5193 36.145 31.4143 36.2267 31.351 36.32C31.291 36.4133 31.261 36.515 31.261 36.625C31.261 36.8417 31.3243 36.9967 31.451 37.09C31.581 37.1833 31.7493 37.23 31.956 37.23ZM37.4454 32.78C37.6654 32.78 37.872 32.8033 38.0654 32.85C38.2587 32.8933 38.4354 32.9583 38.5954 33.045H40.0704V33.505C40.0704 33.5817 40.0504 33.6417 40.0104 33.685C39.9704 33.7283 39.902 33.7583 39.8054 33.775L39.3454 33.86C39.3787 33.9467 39.4037 34.0383 39.4204 34.135C39.4404 34.2317 39.4504 34.3333 39.4504 34.44C39.4504 34.6933 39.3987 34.9233 39.2954 35.13C39.1954 35.3333 39.0554 35.5067 38.8754 35.65C38.6987 35.7933 38.487 35.905 38.2404 35.985C37.997 36.0617 37.732 36.1 37.4454 36.1C37.252 36.1 37.0637 36.0817 36.8804 36.045C36.7204 36.1417 36.6404 36.25 36.6404 36.37C36.6404 36.4733 36.687 36.55 36.7804 36.6C36.877 36.6467 37.002 36.68 37.1554 36.7C37.312 36.72 37.4887 36.7333 37.6854 36.74C37.882 36.7433 38.0837 36.7533 38.2904 36.77C38.497 36.7867 38.6987 36.8167 38.8954 36.86C39.092 36.9 39.267 36.965 39.4204 37.055C39.577 37.145 39.702 37.2683 39.7954 37.425C39.892 37.5783 39.9404 37.7767 39.9404 38.02C39.9404 38.2467 39.8837 38.4667 39.7704 38.68C39.6604 38.8933 39.4987 39.0833 39.2854 39.25C39.0754 39.4167 38.817 39.55 38.5104 39.65C38.2037 39.7533 37.8537 39.805 37.4604 39.805C37.0704 39.805 36.732 39.7667 36.4454 39.69C36.1587 39.6167 35.9204 39.5167 35.7304 39.39C35.5437 39.2667 35.4037 39.1233 35.3104 38.96C35.217 38.7967 35.1704 38.6267 35.1704 38.45C35.1704 38.21 35.2437 38.0083 35.3904 37.845C35.537 37.6817 35.7404 37.5517 36.0004 37.455C35.8737 37.385 35.772 37.2917 35.6954 37.175C35.6187 37.0583 35.5804 36.9067 35.5804 36.72C35.5804 36.6433 35.5937 36.565 35.6204 36.485C35.647 36.4017 35.687 36.32 35.7404 36.24C35.797 36.16 35.867 36.085 35.9504 36.015C36.0337 35.9417 36.132 35.8767 36.2454 35.82C35.9854 35.68 35.7804 35.4933 35.6304 35.26C35.4837 35.0267 35.4104 34.7533 35.4104 34.44C35.4104 34.1867 35.4604 33.9583 35.5604 33.755C35.6637 33.5483 35.8054 33.3733 35.9854 33.23C36.1687 33.0833 36.3837 32.9717 36.6304 32.895C36.8804 32.8183 37.152 32.78 37.4454 32.78ZM38.8004 38.23C38.8004 38.13 38.7704 38.0483 38.7104 37.985C38.6504 37.9217 38.5687 37.8733 38.4654 37.84C38.362 37.8033 38.2404 37.7767 38.1004 37.76C37.9637 37.7433 37.817 37.7317 37.6604 37.725C37.507 37.715 37.347 37.7067 37.1804 37.7C37.017 37.69 36.8587 37.675 36.7054 37.655C36.5654 37.7317 36.452 37.8233 36.3654 37.93C36.282 38.0333 36.2404 38.1533 36.2404 38.29C36.2404 38.38 36.262 38.4633 36.3054 38.54C36.352 38.62 36.4237 38.6883 36.5204 38.745C36.6204 38.8017 36.7487 38.845 36.9054 38.875C37.062 38.9083 37.2537 38.925 37.4804 38.925C37.7104 38.925 37.9087 38.9067 38.0754 38.87C38.242 38.8367 38.3787 38.7883 38.4854 38.725C38.5954 38.665 38.6754 38.5917 38.7254 38.505C38.7754 38.4217 38.8004 38.33 38.8004 38.23ZM37.4454 35.31C37.5987 35.31 37.732 35.29 37.8454 35.25C37.9587 35.2067 38.052 35.1483 38.1254 35.075C38.202 35.0017 38.2587 34.9133 38.2954 34.81C38.3354 34.7067 38.3554 34.5933 38.3554 34.47C38.3554 34.2167 38.2787 34.0167 38.1254 33.87C37.9754 33.72 37.7487 33.645 37.4454 33.645C37.142 33.645 36.9137 33.72 36.7604 33.87C36.6104 34.0167 36.5354 34.2167 36.5354 34.47C36.5354 34.59 36.5537 34.7017 36.5904 34.805C36.6304 34.9083 36.687 34.9983 36.7604 35.075C36.837 35.1483 36.932 35.2067 37.0454 35.25C37.162 35.29 37.2954 35.31 37.4454 35.31ZM43.0661 32.79C43.3895 32.79 43.6861 32.8417 43.9561 32.945C44.2295 33.0483 44.4645 33.2 44.6611 33.4C44.8578 33.5967 45.0111 33.84 45.1211 34.13C45.2311 34.4167 45.2861 34.745 45.2861 35.115C45.2861 35.2083 45.2811 35.2867 45.2711 35.35C45.2645 35.41 45.2495 35.4583 45.2261 35.495C45.2061 35.5283 45.1778 35.5533 45.1411 35.57C45.1045 35.5833 45.0578 35.59 45.0011 35.59H41.8311C41.8678 36.1167 42.0095 36.5033 42.2561 36.75C42.5028 36.9967 42.8295 37.12 43.2361 37.12C43.4361 37.12 43.6078 37.0967 43.7511 37.05C43.8978 37.0033 44.0245 36.9517 44.1311 36.895C44.2411 36.8383 44.3361 36.7867 44.4161 36.74C44.4995 36.6933 44.5795 36.67 44.6561 36.67C44.7061 36.67 44.7495 36.68 44.7861 36.7C44.8228 36.72 44.8545 36.7483 44.8811 36.785L45.2411 37.235C45.1045 37.395 44.9511 37.53 44.7811 37.64C44.6111 37.7467 44.4328 37.8333 44.2461 37.9C44.0628 37.9633 43.8745 38.0083 43.6811 38.035C43.4911 38.0617 43.3061 38.075 43.1261 38.075C42.7695 38.075 42.4378 38.0167 42.1311 37.9C41.8245 37.78 41.5578 37.605 41.3311 37.375C41.1045 37.1417 40.9261 36.855 40.7961 36.515C40.6661 36.1717 40.6011 35.775 40.6011 35.325C40.6011 34.975 40.6578 34.6467 40.7711 34.34C40.8845 34.03 41.0461 33.7617 41.2561 33.535C41.4695 33.305 41.7278 33.1233 42.0311 32.99C42.3378 32.8567 42.6828 32.79 43.0661 32.79ZM43.0911 33.675C42.7311 33.675 42.4495 33.7767 42.2461 33.98C42.0428 34.1833 41.9128 34.4717 41.8561 34.845H44.1761C44.1761 34.685 44.1545 34.535 44.1111 34.395C44.0678 34.2517 44.0011 34.1267 43.9111 34.02C43.8211 33.9133 43.7078 33.83 43.5711 33.77C43.4345 33.7067 43.2745 33.675 43.0911 33.675ZM49.4329 33.87C49.3996 33.9233 49.3646 33.9617 49.3279 33.985C49.2913 34.005 49.2446 34.015 49.1879 34.015C49.1279 34.015 49.0629 33.9983 48.9929 33.965C48.9263 33.9317 48.8479 33.895 48.7579 33.855C48.6679 33.8117 48.5646 33.7733 48.4479 33.74C48.3346 33.7067 48.1996 33.69 48.0429 33.69C47.7996 33.69 47.6079 33.7417 47.4679 33.845C47.3279 33.9483 47.2579 34.0833 47.2579 34.25C47.2579 34.36 47.2929 34.4533 47.3629 34.53C47.4363 34.6033 47.5313 34.6683 47.6479 34.725C47.7679 34.7817 47.9029 34.8333 48.0529 34.88C48.2029 34.9233 48.3563 34.9717 48.5129 35.025C48.6696 35.0783 48.8229 35.14 48.9729 35.21C49.1229 35.2767 49.2563 35.3633 49.3729 35.47C49.4929 35.5733 49.5879 35.6983 49.6579 35.845C49.7313 35.9917 49.7679 36.1683 49.7679 36.375C49.7679 36.6217 49.7229 36.85 49.6329 37.06C49.5429 37.2667 49.4113 37.4467 49.2379 37.6C49.0646 37.75 48.8496 37.8683 48.5929 37.955C48.3396 38.0383 48.0479 38.08 47.7179 38.08C47.5413 38.08 47.3679 38.0633 47.1979 38.03C47.0313 38 46.8696 37.9567 46.7129 37.9C46.5596 37.8433 46.4163 37.7767 46.2829 37.7C46.1529 37.6233 46.0379 37.54 45.9379 37.45L46.2229 36.98C46.2596 36.9233 46.3029 36.88 46.3529 36.85C46.4029 36.82 46.4663 36.805 46.5429 36.805C46.6196 36.805 46.6913 36.8267 46.7579 36.87C46.8279 36.9133 46.9079 36.96 46.9979 37.01C47.0879 37.06 47.1929 37.1067 47.3129 37.15C47.4363 37.1933 47.5913 37.215 47.7779 37.215C47.9246 37.215 48.0496 37.1983 48.1529 37.165C48.2596 37.1283 48.3463 37.0817 48.4129 37.025C48.4829 36.9683 48.5329 36.9033 48.5629 36.83C48.5963 36.7533 48.6129 36.675 48.6129 36.595C48.6129 36.475 48.5763 36.3767 48.5029 36.3C48.4329 36.2233 48.3379 36.1567 48.2179 36.1C48.1013 36.0433 47.9663 35.9933 47.8129 35.95C47.6629 35.9033 47.5079 35.8533 47.3479 35.8C47.1913 35.7467 47.0363 35.685 46.8829 35.615C46.7329 35.5417 46.5979 35.45 46.4779 35.34C46.3613 35.23 46.2663 35.095 46.1929 34.935C46.1229 34.775 46.0879 34.5817 46.0879 34.355C46.0879 34.145 46.1296 33.945 46.2129 33.755C46.2963 33.565 46.4179 33.4 46.5779 33.26C46.7413 33.1167 46.9429 33.0033 47.1829 32.92C47.4263 32.8333 47.7063 32.79 48.0229 32.79C48.3763 32.79 48.6979 32.8483 48.9879 32.965C49.2779 33.0817 49.5196 33.235 49.7129 33.425L49.4329 33.87Z" fill="#232323"/>
<rect x="25.5" y="44" width="5" height="3" rx="1.5" fill="#EA8913"/>
<defs>
<clipPath id="clip0_2039_2310">
<rect width="20" height="20" fill="white" transform="translate(18 4)"/>
</clipPath>
</defs>
</svg>
