<svg width="56" height="51" viewBox="0 0 56 51" fill="none" xmlns="http://www.w3.org/2000/svg">
<g clip-path="url(#clip0_2039_2331)">
<path d="M28 14.7812C28.4315 14.7812 28.7812 14.4315 28.7812 14C28.7812 13.5685 28.4315 13.2188 28 13.2188C27.5685 13.2188 27.2188 13.5685 27.2188 14C27.2188 14.4315 27.5685 14.7812 28 14.7812Z" fill="#6F6F6F"/>
<path d="M24.5625 14.7812C24.994 14.7812 25.3438 14.4315 25.3438 14C25.3438 13.5685 24.994 13.2188 24.5625 13.2188C24.131 13.2188 23.7812 13.5685 23.7812 14C23.7812 14.4315 24.131 14.7812 24.5625 14.7812Z" fill="#6F6F6F"/>
<path d="M31.4375 14.7812C31.869 14.7812 32.2188 14.4315 32.2188 14C32.2188 13.5685 31.869 13.2188 31.4375 13.2188C31.006 13.2188 30.6562 13.5685 30.6562 14C30.6562 14.4315 31.006 14.7812 31.4375 14.7812Z" fill="#6F6F6F"/>
<path d="M24.2438 20.4932C25.8192 21.405 27.6725 21.7127 29.458 21.359C31.2436 21.0053 32.8396 20.0143 33.9484 18.5708C35.0573 17.1273 35.6033 15.3298 35.4847 13.5134C35.3662 11.697 34.5911 9.98577 33.304 8.69866C32.0169 7.41156 30.3056 6.63646 28.4892 6.51789C26.6728 6.39932 24.8753 6.94537 23.4318 8.05422C21.9883 9.16308 20.9973 10.7591 20.6436 12.5446C20.2899 14.3302 20.5977 16.1834 21.5094 17.7588L20.5321 20.6768C20.4954 20.7869 20.49 20.9051 20.5167 21.0181C20.5434 21.131 20.601 21.2344 20.6831 21.3165C20.7651 21.3985 20.8685 21.4561 20.9814 21.4828C21.0944 21.5095 21.2126 21.5041 21.3227 21.4674L24.2438 20.4932Z" stroke="#6F6F6F" stroke-width="1.2" stroke-linecap="round" stroke-linejoin="round"/>
</g>
<path d="M14.6202 30.82V38H13.6902V32.89C13.6902 32.8133 13.6918 32.7317 13.6952 32.645C13.7018 32.5583 13.7085 32.47 13.7152 32.38L11.3252 36.765C11.2418 36.9283 11.1135 37.01 10.9402 37.01H10.7902C10.6168 37.01 10.4902 36.9283 10.4102 36.765L7.97516 32.365C7.99516 32.5517 8.00516 32.7267 8.00516 32.89V38H7.07016V30.82H7.86016C7.95349 30.82 8.02516 30.83 8.07516 30.85C8.12849 30.8667 8.17849 30.9167 8.22516 31L10.6252 35.3C10.6718 35.3867 10.7152 35.4783 10.7552 35.575C10.7952 35.6717 10.8335 35.7683 10.8702 35.865C10.9402 35.6683 11.0218 35.4783 11.1152 35.295L13.4702 31C13.5135 30.9167 13.5602 30.8667 13.6102 30.85C13.6635 30.83 13.7368 30.82 13.8302 30.82H14.6202ZM19.5051 34.895C19.5051 34.7017 19.4767 34.5233 19.4201 34.36C19.3667 34.1967 19.2867 34.055 19.1801 33.935C19.0734 33.815 18.9434 33.7217 18.7901 33.655C18.6367 33.5883 18.4601 33.555 18.2601 33.555C17.8501 33.555 17.5267 33.6733 17.2901 33.91C17.0567 34.1467 16.9084 34.475 16.8451 34.895H19.5051ZM20.3101 37.275C20.1901 37.415 20.0517 37.5367 19.8951 37.64C19.7384 37.74 19.5717 37.8217 19.3951 37.885C19.2184 37.9483 19.0351 37.995 18.8451 38.025C18.6584 38.055 18.4734 38.07 18.2901 38.07C17.9401 38.07 17.6151 38.0117 17.3151 37.895C17.0184 37.775 16.7601 37.6017 16.5401 37.375C16.3234 37.145 16.1534 36.8617 16.0301 36.525C15.9101 36.185 15.8501 35.795 15.8501 35.355C15.8501 35.0017 15.9051 34.6733 16.0151 34.37C16.1251 34.0633 16.2817 33.7967 16.4851 33.57C16.6917 33.3433 16.9434 33.165 17.2401 33.035C17.5367 32.905 17.8701 32.84 18.2401 32.84C18.5501 32.84 18.8351 32.8917 19.0951 32.995C19.3584 33.095 19.5851 33.2417 19.7751 33.435C19.9651 33.6283 20.1134 33.8667 20.2201 34.15C20.3301 34.4333 20.3851 34.7567 20.3851 35.12C20.3851 35.27 20.3684 35.3717 20.3351 35.425C20.3017 35.475 20.2401 35.5 20.1501 35.5H16.8201C16.8301 35.8033 16.8734 36.0683 16.9501 36.295C17.0267 36.5183 17.1317 36.705 17.2651 36.855C17.4017 37.005 17.5634 37.1167 17.7501 37.19C17.9367 37.2633 18.1451 37.3 18.3751 37.3C18.5917 37.3 18.7784 37.275 18.9351 37.225C19.0951 37.175 19.2317 37.1217 19.3451 37.065C19.4617 37.005 19.5584 36.95 19.6351 36.9C19.7151 36.85 19.7851 36.825 19.8451 36.825C19.9251 36.825 19.9867 36.855 20.0301 36.915L20.3101 37.275ZM24.528 33.795C24.5014 33.8383 24.473 33.87 24.443 33.89C24.413 33.9067 24.3747 33.915 24.328 33.915C24.2747 33.915 24.2147 33.8967 24.148 33.86C24.0847 33.8233 24.0064 33.7833 23.913 33.74C23.823 33.6967 23.7164 33.6567 23.593 33.62C23.4697 33.5833 23.323 33.565 23.153 33.565C23.013 33.565 22.8847 33.5833 22.768 33.62C22.6547 33.6533 22.558 33.7017 22.478 33.765C22.398 33.825 22.3364 33.8983 22.293 33.985C22.2497 34.0683 22.228 34.1583 22.228 34.255C22.228 34.3817 22.2647 34.4867 22.338 34.57C22.4147 34.6533 22.513 34.725 22.633 34.785C22.7564 34.845 22.8947 34.9 23.048 34.95C23.2047 34.9967 23.363 35.0467 23.523 35.1C23.6864 35.1533 23.8447 35.215 23.998 35.285C24.1547 35.3517 24.293 35.4367 24.413 35.54C24.5364 35.64 24.6347 35.7617 24.708 35.905C24.7847 36.0483 24.823 36.2233 24.823 36.43C24.823 36.6667 24.7797 36.8867 24.693 37.09C24.6097 37.29 24.4847 37.4633 24.318 37.61C24.1547 37.7567 23.9514 37.8717 23.708 37.955C23.4647 38.0383 23.1864 38.08 22.873 38.08C22.523 38.08 22.1997 38.0217 21.903 37.905C21.6064 37.7883 21.358 37.64 21.158 37.46L21.388 37.085C21.4147 37.0383 21.448 37.0033 21.488 36.98C21.528 36.9533 21.5814 36.94 21.648 36.94C21.7114 36.94 21.7764 36.9633 21.843 37.01C21.9097 37.0567 21.9897 37.1083 22.083 37.165C22.1764 37.2183 22.2897 37.2683 22.423 37.315C22.5564 37.3583 22.723 37.38 22.923 37.38C23.0897 37.38 23.2347 37.36 23.358 37.32C23.4814 37.2767 23.583 37.22 23.663 37.15C23.7464 37.0767 23.808 36.9933 23.848 36.9C23.888 36.8067 23.908 36.7083 23.908 36.605C23.908 36.4717 23.8697 36.3617 23.793 36.275C23.7197 36.185 23.6214 36.1083 23.498 36.045C23.378 35.9817 23.2397 35.9267 23.083 35.88C22.9264 35.8333 22.7664 35.7833 22.603 35.73C22.4397 35.6767 22.2797 35.615 22.123 35.545C21.9664 35.475 21.8264 35.3867 21.703 35.28C21.583 35.1733 21.4847 35.0433 21.408 34.89C21.3347 34.7367 21.298 34.55 21.298 34.33C21.298 34.1333 21.338 33.945 21.418 33.765C21.5014 33.585 21.6197 33.4267 21.773 33.29C21.9297 33.1533 22.1214 33.045 22.348 32.965C22.578 32.8817 22.8397 32.84 23.133 32.84C23.4697 32.84 23.773 32.8933 24.043 33C24.3164 33.1067 24.5497 33.2533 24.743 33.44L24.528 33.795ZM28.9737 33.795C28.9471 33.8383 28.9187 33.87 28.8887 33.89C28.8587 33.9067 28.8204 33.915 28.7737 33.915C28.7204 33.915 28.6604 33.8967 28.5937 33.86C28.5304 33.8233 28.4521 33.7833 28.3587 33.74C28.2687 33.6967 28.1621 33.6567 28.0387 33.62C27.9154 33.5833 27.7687 33.565 27.5987 33.565C27.4587 33.565 27.3304 33.5833 27.2137 33.62C27.1004 33.6533 27.0037 33.7017 26.9237 33.765C26.8437 33.825 26.7821 33.8983 26.7387 33.985C26.6954 34.0683 26.6737 34.1583 26.6737 34.255C26.6737 34.3817 26.7104 34.4867 26.7837 34.57C26.8604 34.6533 26.9587 34.725 27.0787 34.785C27.2021 34.845 27.3404 34.9 27.4937 34.95C27.6504 34.9967 27.8087 35.0467 27.9687 35.1C28.1321 35.1533 28.2904 35.215 28.4437 35.285C28.6004 35.3517 28.7387 35.4367 28.8587 35.54C28.9821 35.64 29.0804 35.7617 29.1537 35.905C29.2304 36.0483 29.2687 36.2233 29.2687 36.43C29.2687 36.6667 29.2254 36.8867 29.1387 37.09C29.0554 37.29 28.9304 37.4633 28.7637 37.61C28.6004 37.7567 28.3971 37.8717 28.1537 37.955C27.9104 38.0383 27.6321 38.08 27.3187 38.08C26.9687 38.08 26.6454 38.0217 26.3487 37.905C26.0521 37.7883 25.8037 37.64 25.6037 37.46L25.8337 37.085C25.8604 37.0383 25.8937 37.0033 25.9337 36.98C25.9737 36.9533 26.0271 36.94 26.0937 36.94C26.1571 36.94 26.2221 36.9633 26.2887 37.01C26.3554 37.0567 26.4354 37.1083 26.5287 37.165C26.6221 37.2183 26.7354 37.2683 26.8687 37.315C27.0021 37.3583 27.1687 37.38 27.3687 37.38C27.5354 37.38 27.6804 37.36 27.8037 37.32C27.9271 37.2767 28.0287 37.22 28.1087 37.15C28.1921 37.0767 28.2537 36.9933 28.2937 36.9C28.3337 36.8067 28.3537 36.7083 28.3537 36.605C28.3537 36.4717 28.3154 36.3617 28.2387 36.275C28.1654 36.185 28.0671 36.1083 27.9437 36.045C27.8237 35.9817 27.6854 35.9267 27.5287 35.88C27.3721 35.8333 27.2121 35.7833 27.0487 35.73C26.8854 35.6767 26.7254 35.615 26.5687 35.545C26.4121 35.475 26.2721 35.3867 26.1487 35.28C26.0287 35.1733 25.9304 35.0433 25.8537 34.89C25.7804 34.7367 25.7437 34.55 25.7437 34.33C25.7437 34.1333 25.7837 33.945 25.8637 33.765C25.9471 33.585 26.0654 33.4267 26.2187 33.29C26.3754 33.1533 26.5671 33.045 26.7937 32.965C27.0237 32.8817 27.2854 32.84 27.5787 32.84C27.9154 32.84 28.2187 32.8933 28.4887 33C28.7621 33.1067 28.9954 33.2533 29.1887 33.44L28.9737 33.795ZM33.1545 35.745C32.7578 35.7583 32.4211 35.79 32.1445 35.84C31.8678 35.8867 31.6428 35.95 31.4695 36.03C31.2961 36.11 31.1711 36.205 31.0945 36.315C31.0178 36.4217 30.9795 36.5417 30.9795 36.675C30.9795 36.8017 30.9995 36.9117 31.0395 37.005C31.0828 37.095 31.1395 37.17 31.2095 37.23C31.2828 37.2867 31.3678 37.3283 31.4645 37.355C31.5611 37.3817 31.6661 37.395 31.7795 37.395C31.9295 37.395 32.0661 37.38 32.1895 37.35C32.3161 37.32 32.4345 37.2783 32.5445 37.225C32.6545 37.1683 32.7595 37.1 32.8595 37.02C32.9595 36.94 33.0578 36.8483 33.1545 36.745V35.745ZM30.2945 33.63C30.5778 33.36 30.8845 33.1583 31.2145 33.025C31.5478 32.8917 31.9128 32.825 32.3095 32.825C32.5995 32.825 32.8561 32.8733 33.0795 32.97C33.3028 33.0633 33.4911 33.195 33.6445 33.365C33.7978 33.535 33.9128 33.7383 33.9895 33.975C34.0695 34.2117 34.1095 34.4733 34.1095 34.76V38H33.6745C33.5778 38 33.5045 37.985 33.4545 37.955C33.4045 37.9217 33.3645 37.8617 33.3345 37.775L33.2295 37.33C33.0995 37.45 32.9711 37.5567 32.8445 37.65C32.7178 37.74 32.5845 37.8183 32.4445 37.885C32.3078 37.9483 32.1611 37.9967 32.0045 38.03C31.8478 38.0633 31.6745 38.08 31.4845 38.08C31.2845 38.08 31.0961 38.0533 30.9195 38C30.7461 37.9433 30.5945 37.8583 30.4645 37.745C30.3345 37.6317 30.2311 37.49 30.1545 37.32C30.0811 37.15 30.0445 36.9517 30.0445 36.725C30.0445 36.525 30.0978 36.3333 30.2045 36.15C30.3145 35.9633 30.4911 35.7967 30.7345 35.65C30.9811 35.5033 31.3011 35.3833 31.6945 35.29C32.0911 35.1967 32.5778 35.1433 33.1545 35.13V34.76C33.1545 34.3767 33.0728 34.09 32.9095 33.9C32.7461 33.71 32.5061 33.615 32.1895 33.615C31.9761 33.615 31.7961 33.6417 31.6495 33.695C31.5061 33.7483 31.3811 33.8083 31.2745 33.875C31.1711 33.9383 31.0795 33.9967 30.9995 34.05C30.9228 34.1033 30.8428 34.13 30.7595 34.13C30.6928 34.13 30.6345 34.1117 30.5845 34.075C30.5378 34.0383 30.4995 33.995 30.4695 33.945L30.2945 33.63ZM37.2997 35.465C37.473 35.465 37.6247 35.4417 37.7547 35.395C37.888 35.3483 37.998 35.2833 38.0847 35.2C38.1747 35.1133 38.2414 35.01 38.2847 34.89C38.3314 34.77 38.3547 34.6383 38.3547 34.495C38.3547 34.2017 38.2647 33.9683 38.0847 33.795C37.908 33.6183 37.6464 33.53 37.2997 33.53C36.9564 33.53 36.6947 33.6183 36.5147 33.795C36.338 33.9683 36.2497 34.2017 36.2497 34.495C36.2497 34.6383 36.2714 34.77 36.3147 34.89C36.3614 35.0067 36.428 35.1083 36.5147 35.195C36.6047 35.2783 36.7147 35.345 36.8447 35.395C36.978 35.4417 37.1297 35.465 37.2997 35.465ZM38.8547 38.265C38.8547 38.145 38.8214 38.05 38.7547 37.98C38.688 37.9067 38.5964 37.85 38.4797 37.81C38.3664 37.7667 38.233 37.7367 38.0797 37.72C37.9264 37.7 37.7647 37.685 37.5947 37.675C37.428 37.665 37.2564 37.6567 37.0797 37.65C36.903 37.64 36.733 37.6233 36.5697 37.6C36.3964 37.6867 36.253 37.7917 36.1397 37.915C36.0297 38.0383 35.9747 38.1833 35.9747 38.35C35.9747 38.4567 36.0014 38.5567 36.0547 38.65C36.1114 38.7433 36.1964 38.8233 36.3097 38.89C36.4264 38.96 36.5714 39.0133 36.7447 39.05C36.9214 39.09 37.1314 39.11 37.3747 39.11C37.6147 39.11 37.8264 39.0883 38.0097 39.045C38.193 39.005 38.3464 38.9467 38.4697 38.87C38.5964 38.7967 38.6914 38.7083 38.7547 38.605C38.8214 38.5017 38.8547 38.3883 38.8547 38.265ZM39.8447 33.11V33.475C39.8447 33.595 39.7697 33.67 39.6197 33.7L39.0747 33.78C39.1214 33.8833 39.158 33.9933 39.1847 34.11C39.2114 34.2233 39.2247 34.3433 39.2247 34.47C39.2247 34.72 39.1764 34.9467 39.0797 35.15C38.983 35.35 38.8497 35.5217 38.6797 35.665C38.5097 35.8083 38.3064 35.9183 38.0697 35.995C37.8364 36.0717 37.5797 36.11 37.2997 36.11C37.0697 36.11 36.8547 36.085 36.6547 36.035C36.5547 36.095 36.478 36.1617 36.4247 36.235C36.3747 36.305 36.3497 36.375 36.3497 36.445C36.3497 36.5617 36.398 36.6483 36.4947 36.705C36.5947 36.7617 36.723 36.8033 36.8797 36.83C37.0397 36.8533 37.2214 36.8683 37.4247 36.875C37.6314 36.8817 37.8397 36.8933 38.0497 36.91C38.263 36.9233 38.4714 36.95 38.6747 36.99C38.8814 37.0267 39.063 37.0883 39.2197 37.175C39.3797 37.2583 39.508 37.375 39.6047 37.525C39.7047 37.6717 39.7547 37.8633 39.7547 38.1C39.7547 38.32 39.6997 38.5333 39.5897 38.74C39.483 38.9467 39.3264 39.13 39.1197 39.29C38.913 39.45 38.6614 39.5783 38.3647 39.675C38.068 39.7717 37.7314 39.82 37.3547 39.82C36.978 39.82 36.6497 39.7833 36.3697 39.71C36.093 39.6367 35.8614 39.5383 35.6747 39.415C35.4914 39.2917 35.353 39.1483 35.2597 38.985C35.1697 38.8217 35.1247 38.6517 35.1247 38.475C35.1247 38.2283 35.2014 38.02 35.3547 37.85C35.508 37.6767 35.7197 37.5417 35.9897 37.445C35.843 37.3783 35.7264 37.2883 35.6397 37.175C35.553 37.0583 35.5097 36.905 35.5097 36.715C35.5097 36.6417 35.523 36.5667 35.5497 36.49C35.5764 36.41 35.6164 36.3317 35.6697 36.255C35.7264 36.175 35.7947 36.1 35.8747 36.03C35.958 35.96 36.053 35.8967 36.1597 35.84C35.9097 35.7 35.713 35.515 35.5697 35.285C35.4264 35.0517 35.3547 34.78 35.3547 34.47C35.3547 34.22 35.403 33.995 35.4997 33.795C35.5964 33.595 35.7297 33.4233 35.8997 33.28C36.073 33.1367 36.278 33.0267 36.5147 32.95C36.7547 32.8733 37.0164 32.835 37.2997 32.835C37.7397 32.835 38.118 32.9267 38.4347 33.11H39.8447ZM44.1262 34.895C44.1262 34.7017 44.0978 34.5233 44.0412 34.36C43.9878 34.1967 43.9078 34.055 43.8012 33.935C43.6945 33.815 43.5645 33.7217 43.4112 33.655C43.2578 33.5883 43.0812 33.555 42.8812 33.555C42.4712 33.555 42.1478 33.6733 41.9112 33.91C41.6778 34.1467 41.5295 34.475 41.4662 34.895H44.1262ZM44.9312 37.275C44.8112 37.415 44.6728 37.5367 44.5162 37.64C44.3595 37.74 44.1928 37.8217 44.0162 37.885C43.8395 37.9483 43.6562 37.995 43.4662 38.025C43.2795 38.055 43.0945 38.07 42.9112 38.07C42.5612 38.07 42.2362 38.0117 41.9362 37.895C41.6395 37.775 41.3812 37.6017 41.1612 37.375C40.9445 37.145 40.7745 36.8617 40.6512 36.525C40.5312 36.185 40.4712 35.795 40.4712 35.355C40.4712 35.0017 40.5262 34.6733 40.6362 34.37C40.7462 34.0633 40.9028 33.7967 41.1062 33.57C41.3128 33.3433 41.5645 33.165 41.8612 33.035C42.1578 32.905 42.4912 32.84 42.8612 32.84C43.1712 32.84 43.4562 32.8917 43.7162 32.995C43.9795 33.095 44.2062 33.2417 44.3962 33.435C44.5862 33.6283 44.7345 33.8667 44.8412 34.15C44.9512 34.4333 45.0062 34.7567 45.0062 35.12C45.0062 35.27 44.9895 35.3717 44.9562 35.425C44.9228 35.475 44.8612 35.5 44.7712 35.5H41.4412C41.4512 35.8033 41.4945 36.0683 41.5712 36.295C41.6478 36.5183 41.7528 36.705 41.8862 36.855C42.0228 37.005 42.1845 37.1167 42.3712 37.19C42.5578 37.2633 42.7662 37.3 42.9962 37.3C43.2128 37.3 43.3995 37.275 43.5562 37.225C43.7162 37.175 43.8528 37.1217 43.9662 37.065C44.0828 37.005 44.1795 36.95 44.2562 36.9C44.3362 36.85 44.4062 36.825 44.4662 36.825C44.5462 36.825 44.6078 36.855 44.6512 36.915L44.9312 37.275ZM49.1491 33.795C49.1225 33.8383 49.0941 33.87 49.0641 33.89C49.0341 33.9067 48.9958 33.915 48.9491 33.915C48.8958 33.915 48.8358 33.8967 48.7691 33.86C48.7058 33.8233 48.6275 33.7833 48.5341 33.74C48.4441 33.6967 48.3375 33.6567 48.2141 33.62C48.0908 33.5833 47.9441 33.565 47.7741 33.565C47.6341 33.565 47.5058 33.5833 47.3891 33.62C47.2758 33.6533 47.1791 33.7017 47.0991 33.765C47.0191 33.825 46.9575 33.8983 46.9141 33.985C46.8708 34.0683 46.8491 34.1583 46.8491 34.255C46.8491 34.3817 46.8858 34.4867 46.9591 34.57C47.0358 34.6533 47.1341 34.725 47.2541 34.785C47.3775 34.845 47.5158 34.9 47.6691 34.95C47.8258 34.9967 47.9841 35.0467 48.1441 35.1C48.3075 35.1533 48.4658 35.215 48.6191 35.285C48.7758 35.3517 48.9141 35.4367 49.0341 35.54C49.1575 35.64 49.2558 35.7617 49.3291 35.905C49.4058 36.0483 49.4441 36.2233 49.4441 36.43C49.4441 36.6667 49.4008 36.8867 49.3141 37.09C49.2308 37.29 49.1058 37.4633 48.9391 37.61C48.7758 37.7567 48.5725 37.8717 48.3291 37.955C48.0858 38.0383 47.8075 38.08 47.4941 38.08C47.1441 38.08 46.8208 38.0217 46.5241 37.905C46.2275 37.7883 45.9791 37.64 45.7791 37.46L46.0091 37.085C46.0358 37.0383 46.0691 37.0033 46.1091 36.98C46.1491 36.9533 46.2025 36.94 46.2691 36.94C46.3325 36.94 46.3975 36.9633 46.4641 37.01C46.5308 37.0567 46.6108 37.1083 46.7041 37.165C46.7975 37.2183 46.9108 37.2683 47.0441 37.315C47.1775 37.3583 47.3441 37.38 47.5441 37.38C47.7108 37.38 47.8558 37.36 47.9791 37.32C48.1025 37.2767 48.2041 37.22 48.2841 37.15C48.3675 37.0767 48.4291 36.9933 48.4691 36.9C48.5091 36.8067 48.5291 36.7083 48.5291 36.605C48.5291 36.4717 48.4908 36.3617 48.4141 36.275C48.3408 36.185 48.2425 36.1083 48.1191 36.045C47.9991 35.9817 47.8608 35.9267 47.7041 35.88C47.5475 35.8333 47.3875 35.7833 47.2241 35.73C47.0608 35.6767 46.9008 35.615 46.7441 35.545C46.5875 35.475 46.4475 35.3867 46.3241 35.28C46.2041 35.1733 46.1058 35.0433 46.0291 34.89C45.9558 34.7367 45.9191 34.55 45.9191 34.33C45.9191 34.1333 45.9591 33.945 46.0391 33.765C46.1225 33.585 46.2408 33.4267 46.3941 33.29C46.5508 33.1533 46.7425 33.045 46.9691 32.965C47.1991 32.8817 47.4608 32.84 47.7541 32.84C48.0908 32.84 48.3941 32.8933 48.6641 33C48.9375 33.1067 49.1708 33.2533 49.3641 33.44L49.1491 33.795Z" fill="#6F6F6F"/>
<defs>
<clipPath id="clip0_2039_2331">
<rect width="20" height="20" fill="white" transform="translate(18 4)"/>
</clipPath>
</defs>
</svg>
