<svg width="56" height="51" viewBox="0 0 56 51" fill="none" xmlns="http://www.w3.org/2000/svg">
<path d="M28.1322 13.6832C28.1072 13.6832 28.0905 13.6832 28.0655 13.6832C28.0238 13.6748 27.9655 13.6748 27.9155 13.6832C25.4988 13.6082 23.6738 11.7082 23.6738 9.3665C23.6738 6.98317 25.6155 5.0415 27.9988 5.0415C30.3822 5.0415 32.3238 6.98317 32.3238 9.3665C32.3155 11.7082 30.4822 13.6082 28.1572 13.6832C28.1488 13.6832 28.1405 13.6832 28.1322 13.6832ZM27.9988 6.2915C26.3072 6.2915 24.9238 7.67484 24.9238 9.3665C24.9238 11.0332 26.2238 12.3748 27.8822 12.4332C27.9238 12.4248 28.0405 12.4248 28.1488 12.4332C29.7822 12.3582 31.0655 11.0165 31.0738 9.3665C31.0738 7.67484 29.6905 6.2915 27.9988 6.2915Z" fill="#6F6F6F"/>
<path d="M28.1404 22.7918C26.507 22.7918 24.8654 22.3752 23.6237 21.5418C22.4654 20.7752 21.832 19.7252 21.832 18.5835C21.832 17.4418 22.4654 16.3835 23.6237 15.6085C26.1237 13.9502 30.1737 13.9502 32.657 15.6085C33.807 16.3752 34.4487 17.4252 34.4487 18.5668C34.4487 19.7085 33.8154 20.7668 32.657 21.5418C31.407 22.3752 29.7737 22.7918 28.1404 22.7918ZM24.3154 16.6585C23.5154 17.1918 23.082 17.8752 23.082 18.5918C23.082 19.3002 23.5237 19.9835 24.3154 20.5085C26.3904 21.9002 29.8904 21.9002 31.9654 20.5085C32.7654 19.9752 33.1987 19.2918 33.1987 18.5752C33.1987 17.8668 32.757 17.1835 31.9654 16.6585C29.8904 15.2752 26.3904 15.2752 24.3154 16.6585Z" fill="#6F6F6F"/>
<path d="M16.562 34.515C16.832 34.515 17.0686 34.48 17.272 34.41C17.4786 34.34 17.6503 34.2417 17.787 34.115C17.927 33.985 18.032 33.8317 18.102 33.655C18.172 33.475 18.207 33.2767 18.207 33.06C18.207 32.6233 18.0703 32.28 17.797 32.03C17.527 31.78 17.1153 31.655 16.562 31.655H15.452V34.515H16.562ZM16.562 30.82C17.022 30.82 17.422 30.8733 17.762 30.98C18.102 31.0867 18.3836 31.2383 18.607 31.435C18.8303 31.6283 18.9953 31.8633 19.102 32.14C19.212 32.4167 19.267 32.7233 19.267 33.06C19.267 33.3967 19.2086 33.7067 19.092 33.99C18.9753 34.27 18.8036 34.5117 18.577 34.715C18.3503 34.9183 18.067 35.0767 17.727 35.19C17.3903 35.3 17.002 35.355 16.562 35.355H15.452V38H14.387V30.82H16.562ZM21.1737 33.895C21.3371 33.5617 21.5337 33.3 21.7637 33.11C21.9937 32.92 22.2704 32.825 22.5938 32.825C22.7037 32.825 22.8071 32.8383 22.9038 32.865C23.0038 32.8883 23.0904 32.925 23.1638 32.975L23.0988 33.71C23.0754 33.8 23.0204 33.845 22.9338 33.845C22.8871 33.845 22.8171 33.8367 22.7238 33.82C22.6304 33.8 22.5304 33.79 22.4238 33.79C22.2671 33.79 22.1288 33.8133 22.0088 33.86C21.8888 33.9033 21.7804 33.97 21.6837 34.06C21.5904 34.1467 21.5071 34.255 21.4338 34.385C21.3604 34.5117 21.2921 34.6567 21.2287 34.82V38H20.2537V32.92H20.8137C20.9204 32.92 20.9921 32.94 21.0288 32.98C21.0688 33.0167 21.0971 33.0833 21.1137 33.18L21.1737 33.895ZM25.9953 32.84C26.3686 32.84 26.7053 32.9017 27.0053 33.025C27.3086 33.145 27.5653 33.32 27.7753 33.55C27.9886 33.7767 28.152 34.0517 28.2653 34.375C28.3786 34.695 28.4353 35.055 28.4353 35.455C28.4353 35.855 28.3786 36.2167 28.2653 36.54C28.152 36.8633 27.9886 37.1383 27.7753 37.365C27.5653 37.5917 27.3086 37.7667 27.0053 37.89C26.7053 38.01 26.3686 38.07 25.9953 38.07C25.6186 38.07 25.2786 38.01 24.9753 37.89C24.6753 37.7667 24.4186 37.5917 24.2053 37.365C23.992 37.1383 23.827 36.8633 23.7103 36.54C23.597 36.2167 23.5403 35.855 23.5403 35.455C23.5403 35.055 23.597 34.695 23.7103 34.375C23.827 34.0517 23.992 33.7767 24.2053 33.55C24.4186 33.32 24.6753 33.145 24.9753 33.025C25.2786 32.9017 25.6186 32.84 25.9953 32.84ZM25.9953 37.31C26.4753 37.31 26.8336 37.1483 27.0703 36.825C27.307 36.5017 27.4253 36.0467 27.4253 35.46C27.4253 34.8733 27.307 34.4183 27.0703 34.095C26.8336 33.7683 26.4753 33.605 25.9953 33.605C25.5086 33.605 25.1453 33.7683 24.9053 34.095C24.6686 34.4183 24.5503 34.8733 24.5503 35.46C24.5503 36.0467 24.6686 36.5017 24.9053 36.825C25.1453 37.1483 25.5086 37.31 25.9953 37.31ZM29.8465 38V33.72L29.3165 33.655C29.2398 33.6383 29.1765 33.6117 29.1265 33.575C29.0798 33.535 29.0565 33.4783 29.0565 33.405V33H29.8465V32.755C29.8465 32.445 29.8948 32.16 29.9915 31.9C30.0915 31.6367 30.2398 31.41 30.4365 31.22C30.6365 31.03 30.8832 30.8833 31.1765 30.78C31.4732 30.6733 31.8198 30.62 32.2165 30.62C32.3432 30.62 32.4765 30.6283 32.6165 30.645C32.7565 30.6617 32.8748 30.6867 32.9715 30.72L32.9365 31.23C32.9298 31.2967 32.8882 31.3317 32.8115 31.335C32.7348 31.3383 32.6282 31.34 32.4915 31.34C32.1882 31.34 31.9298 31.37 31.7165 31.43C31.5032 31.49 31.3282 31.58 31.1915 31.7C31.0548 31.82 30.9548 31.9717 30.8915 32.155C30.8282 32.335 30.7965 32.545 30.7965 32.785V33H33.8865V38H32.9065V33.71H30.8265V38H29.8465ZM36.3975 30.62V38H35.4175V30.62H36.3975ZM41.2551 34.895C41.2551 34.7017 41.2267 34.5233 41.1701 34.36C41.1167 34.1967 41.0367 34.055 40.9301 33.935C40.8234 33.815 40.6934 33.7217 40.5401 33.655C40.3867 33.5883 40.2101 33.555 40.0101 33.555C39.6001 33.555 39.2767 33.6733 39.0401 33.91C38.8067 34.1467 38.6584 34.475 38.5951 34.895H41.2551ZM42.0601 37.275C41.9401 37.415 41.8017 37.5367 41.6451 37.64C41.4884 37.74 41.3217 37.8217 41.1451 37.885C40.9684 37.9483 40.7851 37.995 40.5951 38.025C40.4084 38.055 40.2234 38.07 40.0401 38.07C39.6901 38.07 39.3651 38.0117 39.0651 37.895C38.7684 37.775 38.5101 37.6017 38.2901 37.375C38.0734 37.145 37.9034 36.8617 37.7801 36.525C37.6601 36.185 37.6001 35.795 37.6001 35.355C37.6001 35.0017 37.6551 34.6733 37.7651 34.37C37.8751 34.0633 38.0317 33.7967 38.2351 33.57C38.4417 33.3433 38.6934 33.165 38.9901 33.035C39.2867 32.905 39.6201 32.84 39.9901 32.84C40.3001 32.84 40.5851 32.8917 40.8451 32.995C41.1084 33.095 41.3351 33.2417 41.5251 33.435C41.7151 33.6283 41.8634 33.8667 41.9701 34.15C42.0801 34.4333 42.1351 34.7567 42.1351 35.12C42.1351 35.27 42.1184 35.3717 42.0851 35.425C42.0517 35.475 41.9901 35.5 41.9001 35.5H38.5701C38.5801 35.8033 38.6234 36.0683 38.7001 36.295C38.7767 36.5183 38.8817 36.705 39.0151 36.855C39.1517 37.005 39.3134 37.1167 39.5001 37.19C39.6867 37.2633 39.8951 37.3 40.1251 37.3C40.3417 37.3 40.5284 37.275 40.6851 37.225C40.8451 37.175 40.9817 37.1217 41.0951 37.065C41.2117 37.005 41.3084 36.95 41.3851 36.9C41.4651 36.85 41.5351 36.825 41.5951 36.825C41.6751 36.825 41.7367 36.855 41.7801 36.915L42.0601 37.275Z" fill="#6F6F6F"/>
</svg>
