<svg width="56" height="51" viewBox="0 0 56 51" fill="none" xmlns="http://www.w3.org/2000/svg">
<path d="M27.9993 5.6665C25.816 5.6665 24.041 7.4415 24.041 9.62484C24.041 11.7665 25.716 13.4998 27.8993 13.5748C27.966 13.5665 28.0327 13.5665 28.0827 13.5748C28.0993 13.5748 28.1077 13.5748 28.1243 13.5748C28.1327 13.5748 28.1327 13.5748 28.141 13.5748C30.2743 13.4998 31.9493 11.7665 31.9577 9.62484C31.9577 7.4415 30.1827 5.6665 27.9993 5.6665Z" fill="#262626"/>
<path d="M32.2328 15.7919C29.9078 14.2419 26.1161 14.2419 23.7745 15.7919C22.7161 16.5002 22.1328 17.4586 22.1328 18.4836C22.1328 19.5086 22.7161 20.4586 23.7661 21.1586C24.9328 21.9419 26.4661 22.3336 27.9995 22.3336C29.5328 22.3336 31.0661 21.9419 32.2328 21.1586C33.2828 20.4502 33.8661 19.5002 33.8661 18.4669C33.8578 17.4419 33.2828 16.4919 32.2328 15.7919Z" fill="#262626"/>
<path d="M14.8309 35.455V38H13.4859V30.77H15.8409C16.3243 30.77 16.7426 30.8267 17.0959 30.94C17.4493 31.0533 17.7409 31.2117 17.9709 31.415C18.2009 31.6183 18.3709 31.8617 18.4809 32.145C18.5909 32.4283 18.6459 32.7383 18.6459 33.075C18.6459 33.425 18.5876 33.7467 18.4709 34.04C18.3543 34.33 18.1793 34.58 17.9459 34.79C17.7126 35 17.4209 35.1633 17.0709 35.28C16.7209 35.3967 16.3109 35.455 15.8409 35.455H14.8309ZM14.8309 34.405H15.8409C16.0876 34.405 16.3026 34.375 16.4859 34.315C16.6693 34.2517 16.8209 34.1633 16.9409 34.05C17.0609 33.9333 17.1509 33.7933 17.2109 33.63C17.2709 33.4633 17.3009 33.2783 17.3009 33.075C17.3009 32.8817 17.2709 32.7067 17.2109 32.55C17.1509 32.3933 17.0609 32.26 16.9409 32.15C16.8209 32.04 16.6693 31.9567 16.4859 31.9C16.3026 31.84 16.0876 31.81 15.8409 31.81H14.8309V34.405ZM19.7209 38V32.87H20.4459C20.5726 32.87 20.6609 32.8933 20.7109 32.94C20.7609 32.9867 20.7943 33.0667 20.8109 33.18L20.8859 33.8C21.0693 33.4833 21.2843 33.2333 21.5309 33.05C21.7776 32.8667 22.0543 32.775 22.3609 32.775C22.6143 32.775 22.8243 32.8333 22.9909 32.95L22.8309 33.875C22.8209 33.935 22.7993 33.9783 22.7659 34.005C22.7326 34.0283 22.6876 34.04 22.6309 34.04C22.5809 34.04 22.5126 34.0283 22.4259 34.005C22.3393 33.9817 22.2243 33.97 22.0809 33.97C21.8243 33.97 21.6043 34.0417 21.4209 34.185C21.2376 34.325 21.0826 34.5317 20.9559 34.805V38H19.7209ZM26.093 32.79C26.4763 32.79 26.823 32.8517 27.133 32.975C27.4463 33.0983 27.713 33.2733 27.933 33.5C28.153 33.7267 28.323 34.0033 28.443 34.33C28.563 34.6567 28.623 35.0217 28.623 35.425C28.623 35.8317 28.563 36.1983 28.443 36.525C28.323 36.8517 28.153 37.13 27.933 37.36C27.713 37.59 27.4463 37.7667 27.133 37.89C26.823 38.0133 26.4763 38.075 26.093 38.075C25.7096 38.075 25.3613 38.0133 25.048 37.89C24.7346 37.7667 24.4663 37.59 24.243 37.36C24.023 37.13 23.8513 36.8517 23.728 36.525C23.608 36.1983 23.548 35.8317 23.548 35.425C23.548 35.0217 23.608 34.6567 23.728 34.33C23.8513 34.0033 24.023 33.7267 24.243 33.5C24.4663 33.2733 24.7346 33.0983 25.048 32.975C25.3613 32.8517 25.7096 32.79 26.093 32.79ZM26.093 37.125C26.5196 37.125 26.8346 36.9817 27.038 36.695C27.2446 36.4083 27.348 35.9883 27.348 35.435C27.348 34.8817 27.2446 34.46 27.038 34.17C26.8346 33.88 26.5196 33.735 26.093 33.735C25.6596 33.735 25.3396 33.8817 25.133 34.175C24.9263 34.465 24.823 34.885 24.823 35.435C24.823 35.985 24.9263 36.405 25.133 36.695C25.3396 36.9817 25.6596 37.125 26.093 37.125ZM29.9066 38V33.8L29.4616 33.73C29.3649 33.7133 29.2866 33.68 29.2266 33.63C29.1699 33.58 29.1416 33.51 29.1416 33.42V32.915H29.9066V32.75C29.9066 32.4367 29.9582 32.1467 30.0616 31.88C30.1649 31.61 30.3216 31.3767 30.5316 31.18C30.7416 30.9833 31.0066 30.83 31.3266 30.72C31.6466 30.6067 32.0249 30.55 32.4616 30.55C32.6016 30.55 32.7449 30.5583 32.8916 30.575C33.0382 30.5883 33.1649 30.6117 33.2716 30.645L33.2316 31.285C33.2249 31.3617 33.1832 31.4083 33.1066 31.425C33.0299 31.4383 32.9349 31.445 32.8216 31.445C32.4982 31.445 32.2266 31.4733 32.0066 31.53C31.7899 31.5867 31.6132 31.6717 31.4766 31.785C31.3432 31.895 31.2466 32.035 31.1866 32.205C31.1299 32.3717 31.1016 32.5667 31.1016 32.79V32.915H34.2816V38H33.0466V33.795H31.1416V38H29.9066ZM37.1074 30.57V38H35.8724V30.57H37.1074ZM40.7273 32.79C41.0506 32.79 41.3473 32.8417 41.6173 32.945C41.8906 33.0483 42.1256 33.2 42.3223 33.4C42.5189 33.5967 42.6723 33.84 42.7823 34.13C42.8923 34.4167 42.9473 34.745 42.9473 35.115C42.9473 35.2083 42.9423 35.2867 42.9323 35.35C42.9256 35.41 42.9106 35.4583 42.8873 35.495C42.8673 35.5283 42.8389 35.5533 42.8023 35.57C42.7656 35.5833 42.7189 35.59 42.6623 35.59H39.4923C39.5289 36.1167 39.6706 36.5033 39.9173 36.75C40.1639 36.9967 40.4906 37.12 40.8973 37.12C41.0973 37.12 41.2689 37.0967 41.4123 37.05C41.5589 37.0033 41.6856 36.9517 41.7923 36.895C41.9023 36.8383 41.9973 36.7867 42.0773 36.74C42.1606 36.6933 42.2406 36.67 42.3173 36.67C42.3673 36.67 42.4106 36.68 42.4473 36.7C42.4839 36.72 42.5156 36.7483 42.5423 36.785L42.9023 37.235C42.7656 37.395 42.6123 37.53 42.4423 37.64C42.2723 37.7467 42.0939 37.8333 41.9073 37.9C41.7239 37.9633 41.5356 38.0083 41.3423 38.035C41.1523 38.0617 40.9673 38.075 40.7873 38.075C40.4306 38.075 40.0989 38.0167 39.7923 37.9C39.4856 37.78 39.2189 37.605 38.9923 37.375C38.7656 37.1417 38.5873 36.855 38.4573 36.515C38.3273 36.1717 38.2623 35.775 38.2623 35.325C38.2623 34.975 38.3189 34.6467 38.4323 34.34C38.5456 34.03 38.7073 33.7617 38.9173 33.535C39.1306 33.305 39.3889 33.1233 39.6923 32.99C39.9989 32.8567 40.3439 32.79 40.7273 32.79ZM40.7523 33.675C40.3923 33.675 40.1106 33.7767 39.9073 33.98C39.7039 34.1833 39.5739 34.4717 39.5173 34.845H41.8373C41.8373 34.685 41.8156 34.535 41.7723 34.395C41.7289 34.2517 41.6623 34.1267 41.5723 34.02C41.4823 33.9133 41.3689 33.83 41.2323 33.77C41.0956 33.7067 40.9356 33.675 40.7523 33.675Z" fill="#232323"/>
<rect x="25.5" y="44" width="5" height="3" rx="1.5" fill="#EA8913"/>
</svg>
