<svg width="65" height="51" viewBox="0 0 65 51" fill="none" xmlns="http://www.w3.org/2000/svg">
<path d="M37.5576 5.6665H35.9742C34.1576 5.6665 33.1992 6.62484 33.1992 8.4415V10.0248C33.1992 11.8415 34.1576 12.7998 35.9742 12.7998H37.5576C39.3742 12.7998 40.3326 11.8415 40.3326 10.0248V8.4415C40.3326 6.62484 39.3742 5.6665 37.5576 5.6665Z" fill="#232323"/>
<path d="M28.0327 15.1919H26.4493C24.6243 15.1919 23.666 16.1502 23.666 17.9669V19.5502C23.666 21.3752 24.6243 22.3336 26.441 22.3336H28.0243C29.841 22.3336 30.7993 21.3752 30.7993 19.5586V17.9752C30.8077 16.1502 29.8493 15.1919 28.0327 15.1919Z" fill="#232323"/>
<path d="M27.241 12.8165C29.2154 12.8165 30.816 11.2159 30.816 9.2415C30.816 7.26709 29.2154 5.6665 27.241 5.6665C25.2666 5.6665 23.666 7.26709 23.666 9.2415C23.666 11.2159 25.2666 12.8165 27.241 12.8165Z" fill="#232323"/>
<path d="M36.7586 22.3331C38.733 22.3331 40.3336 20.7325 40.3336 18.7581C40.3336 16.7837 38.733 15.1831 36.7586 15.1831C34.7842 15.1831 33.1836 16.7837 33.1836 18.7581C33.1836 20.7325 34.7842 22.3331 36.7586 22.3331Z" fill="#232323"/>
<path d="M3.78735 35C3.84401 35.1067 3.89568 35.2183 3.94235 35.335C3.99235 35.4483 4.04068 35.5633 4.08735 35.68C4.13401 35.56 4.18235 35.4417 4.23235 35.325C4.28235 35.2083 4.33568 35.0967 4.39235 34.99L6.53235 30.985C6.55901 30.935 6.58568 30.895 6.61235 30.865C6.64235 30.835 6.67401 30.8133 6.70735 30.8C6.74401 30.7867 6.78401 30.7783 6.82735 30.775C6.87068 30.7717 6.92235 30.77 6.98235 30.77H7.99735V38H6.81235V33.33C6.81235 33.2433 6.81401 33.1483 6.81735 33.045C6.82401 32.9417 6.83235 32.8367 6.84235 32.73L4.65735 36.83C4.60735 36.9233 4.54235 36.9967 4.46235 37.05C4.38235 37.1 4.28901 37.125 4.18235 37.125H3.99735C3.89068 37.125 3.79735 37.1 3.71735 37.05C3.63735 36.9967 3.57235 36.9233 3.52235 36.83L1.30735 32.715C1.32068 32.825 1.32901 32.9333 1.33235 33.04C1.33901 33.1433 1.34235 33.24 1.34235 33.33V38H0.157345V30.77H1.17235C1.23235 30.77 1.28401 30.7717 1.32735 30.775C1.37068 30.7783 1.40901 30.7867 1.44235 30.8C1.47901 30.8133 1.51235 30.835 1.54235 30.865C1.57235 30.895 1.60068 30.935 1.62735 30.985L3.78735 35ZM11.3042 39.41C11.2676 39.4967 11.2192 39.5617 11.1592 39.605C11.1026 39.6517 11.0142 39.675 10.8942 39.675H9.97422L10.9342 37.62L8.85922 32.87H9.93922C10.0392 32.87 10.1159 32.8933 10.1692 32.94C10.2226 32.9867 10.2626 33.04 10.2892 33.1L11.3842 35.76C11.4209 35.8467 11.4526 35.9367 11.4792 36.03C11.5059 36.1233 11.5292 36.2167 11.5492 36.31C11.5759 36.2133 11.6042 36.12 11.6342 36.03C11.6676 35.94 11.7026 35.8483 11.7392 35.755L12.7692 33.1C12.7959 33.0333 12.8392 32.9783 12.8992 32.935C12.9626 32.8917 13.0326 32.87 13.1092 32.87H14.0992L11.3042 39.41ZM18.4098 35.455V38H17.0648V30.77H19.4198C19.9032 30.77 20.3215 30.8267 20.6748 30.94C21.0282 31.0533 21.3198 31.2117 21.5498 31.415C21.7798 31.6183 21.9498 31.8617 22.0598 32.145C22.1698 32.4283 22.2248 32.7383 22.2248 33.075C22.2248 33.425 22.1665 33.7467 22.0498 34.04C21.9332 34.33 21.7582 34.58 21.5248 34.79C21.2915 35 20.9998 35.1633 20.6498 35.28C20.2998 35.3967 19.8898 35.455 19.4198 35.455H18.4098ZM18.4098 34.405H19.4198C19.6665 34.405 19.8815 34.375 20.0648 34.315C20.2482 34.2517 20.3998 34.1633 20.5198 34.05C20.6398 33.9333 20.7298 33.7933 20.7898 33.63C20.8498 33.4633 20.8798 33.2783 20.8798 33.075C20.8798 32.8817 20.8498 32.7067 20.7898 32.55C20.7298 32.3933 20.6398 32.26 20.5198 32.15C20.3998 32.04 20.2482 31.9567 20.0648 31.9C19.8815 31.84 19.6665 31.81 19.4198 31.81H18.4098V34.405ZM23.2998 38V32.87H24.0248C24.1515 32.87 24.2398 32.8933 24.2898 32.94C24.3398 32.9867 24.3732 33.0667 24.3898 33.18L24.4648 33.8C24.6482 33.4833 24.8632 33.2333 25.1098 33.05C25.3565 32.8667 25.6332 32.775 25.9398 32.775C26.1932 32.775 26.4032 32.8333 26.5698 32.95L26.4098 33.875C26.3998 33.935 26.3782 33.9783 26.3448 34.005C26.3115 34.0283 26.2665 34.04 26.2098 34.04C26.1598 34.04 26.0915 34.0283 26.0048 34.005C25.9182 33.9817 25.8032 33.97 25.6598 33.97C25.4032 33.97 25.1832 34.0417 24.9998 34.185C24.8165 34.325 24.6615 34.5317 24.5348 34.805V38H23.2998ZM29.6719 32.79C30.0552 32.79 30.4019 32.8517 30.7119 32.975C31.0252 33.0983 31.2919 33.2733 31.5119 33.5C31.7319 33.7267 31.9019 34.0033 32.0219 34.33C32.1419 34.6567 32.2019 35.0217 32.2019 35.425C32.2019 35.8317 32.1419 36.1983 32.0219 36.525C31.9019 36.8517 31.7319 37.13 31.5119 37.36C31.2919 37.59 31.0252 37.7667 30.7119 37.89C30.4019 38.0133 30.0552 38.075 29.6719 38.075C29.2885 38.075 28.9402 38.0133 28.6269 37.89C28.3135 37.7667 28.0452 37.59 27.8219 37.36C27.6019 37.13 27.4302 36.8517 27.3069 36.525C27.1869 36.1983 27.1269 35.8317 27.1269 35.425C27.1269 35.0217 27.1869 34.6567 27.3069 34.33C27.4302 34.0033 27.6019 33.7267 27.8219 33.5C28.0452 33.2733 28.3135 33.0983 28.6269 32.975C28.9402 32.8517 29.2885 32.79 29.6719 32.79ZM29.6719 37.125C30.0985 37.125 30.4135 36.9817 30.6169 36.695C30.8235 36.4083 30.9269 35.9883 30.9269 35.435C30.9269 34.8817 30.8235 34.46 30.6169 34.17C30.4135 33.88 30.0985 33.735 29.6719 33.735C29.2385 33.735 28.9185 33.8817 28.7119 34.175C28.5052 34.465 28.4019 34.885 28.4019 35.435C28.4019 35.985 28.5052 36.405 28.7119 36.695C28.9185 36.9817 29.2385 37.125 29.6719 37.125ZM33.2655 39.675V32.87H34.0205C34.1005 32.87 34.1688 32.8883 34.2255 32.925C34.2821 32.9617 34.3188 33.0183 34.3355 33.095L34.4355 33.57C34.6421 33.3333 34.8788 33.1417 35.1455 32.995C35.4155 32.8483 35.7305 32.775 36.0905 32.775C36.3705 32.775 36.6255 32.8333 36.8555 32.95C37.0888 33.0667 37.2888 33.2367 37.4555 33.46C37.6255 33.68 37.7555 33.9533 37.8455 34.28C37.9388 34.6033 37.9855 34.975 37.9855 35.395C37.9855 35.7783 37.9338 36.1333 37.8305 36.46C37.7271 36.7867 37.5788 37.07 37.3855 37.31C37.1955 37.55 36.9638 37.7383 36.6905 37.875C36.4205 38.0083 36.1171 38.075 35.7805 38.075C35.4905 38.075 35.2438 38.0317 35.0405 37.945C34.8405 37.855 34.6605 37.7317 34.5005 37.575V39.675H33.2655ZM35.6655 33.75C35.4088 33.75 35.1888 33.805 35.0055 33.915C34.8255 34.0217 34.6571 34.1733 34.5005 34.37V36.67C34.6405 36.8433 34.7921 36.965 34.9555 37.035C35.1221 37.1017 35.3005 37.135 35.4905 37.135C35.6771 37.135 35.8455 37.1 35.9955 37.03C36.1488 36.96 36.2771 36.8533 36.3805 36.71C36.4871 36.5667 36.5688 36.3867 36.6255 36.17C36.6821 35.95 36.7105 35.6917 36.7105 35.395C36.7105 35.095 36.6855 34.8417 36.6355 34.635C36.5888 34.425 36.5205 34.255 36.4305 34.125C36.3405 33.995 36.2305 33.9 36.1005 33.84C35.9738 33.78 35.8288 33.75 35.6655 33.75ZM41.1398 32.79C41.4631 32.79 41.7598 32.8417 42.0298 32.945C42.3031 33.0483 42.5381 33.2 42.7348 33.4C42.9314 33.5967 43.0848 33.84 43.1948 34.13C43.3048 34.4167 43.3598 34.745 43.3598 35.115C43.3598 35.2083 43.3548 35.2867 43.3448 35.35C43.3381 35.41 43.3231 35.4583 43.2998 35.495C43.2798 35.5283 43.2514 35.5533 43.2148 35.57C43.1781 35.5833 43.1314 35.59 43.0748 35.59H39.9048C39.9414 36.1167 40.0831 36.5033 40.3298 36.75C40.5764 36.9967 40.9031 37.12 41.3098 37.12C41.5098 37.12 41.6814 37.0967 41.8248 37.05C41.9714 37.0033 42.0981 36.9517 42.2048 36.895C42.3148 36.8383 42.4098 36.7867 42.4898 36.74C42.5731 36.6933 42.6531 36.67 42.7298 36.67C42.7798 36.67 42.8231 36.68 42.8598 36.7C42.8964 36.72 42.9281 36.7483 42.9548 36.785L43.3148 37.235C43.1781 37.395 43.0248 37.53 42.8548 37.64C42.6848 37.7467 42.5064 37.8333 42.3198 37.9C42.1364 37.9633 41.9481 38.0083 41.7548 38.035C41.5648 38.0617 41.3798 38.075 41.1998 38.075C40.8431 38.075 40.5114 38.0167 40.2048 37.9C39.8981 37.78 39.6314 37.605 39.4048 37.375C39.1781 37.1417 38.9998 36.855 38.8698 36.515C38.7398 36.1717 38.6748 35.775 38.6748 35.325C38.6748 34.975 38.7314 34.6467 38.8448 34.34C38.9581 34.03 39.1198 33.7617 39.3298 33.535C39.5431 33.305 39.8014 33.1233 40.1048 32.99C40.4114 32.8567 40.7564 32.79 41.1398 32.79ZM41.1648 33.675C40.8048 33.675 40.5231 33.7767 40.3198 33.98C40.1164 34.1833 39.9864 34.4717 39.9298 34.845H42.2498C42.2498 34.685 42.2281 34.535 42.1848 34.395C42.1414 34.2517 42.0748 34.1267 41.9848 34.02C41.8948 33.9133 41.7814 33.83 41.6448 33.77C41.5081 33.7067 41.3481 33.675 41.1648 33.675ZM44.4616 38V32.87H45.1866C45.3132 32.87 45.4016 32.8933 45.4516 32.94C45.5016 32.9867 45.5349 33.0667 45.5516 33.18L45.6266 33.8C45.8099 33.4833 46.0249 33.2333 46.2716 33.05C46.5182 32.8667 46.7949 32.775 47.1016 32.775C47.3549 32.775 47.5649 32.8333 47.7316 32.95L47.5716 33.875C47.5616 33.935 47.5399 33.9783 47.5066 34.005C47.4732 34.0283 47.4282 34.04 47.3716 34.04C47.3216 34.04 47.2532 34.0283 47.1666 34.005C47.0799 33.9817 46.9649 33.97 46.8216 33.97C46.5649 33.97 46.3449 34.0417 46.1616 34.185C45.9782 34.325 45.8232 34.5317 45.6966 34.805V38H44.4616ZM50.3286 38.08C49.8853 38.08 49.5436 37.955 49.3036 37.705C49.0636 37.4517 48.9436 37.1033 48.9436 36.66V33.795H48.4236C48.3569 33.795 48.2986 33.7733 48.2486 33.73C48.2019 33.6867 48.1786 33.6217 48.1786 33.535V33.045L49.0036 32.91L49.2636 31.51C49.2769 31.4433 49.3069 31.3917 49.3536 31.355C49.4036 31.3183 49.4653 31.3 49.5386 31.3H50.1786V32.915H51.5286V33.795H50.1786V36.575C50.1786 36.735 50.2186 36.86 50.2986 36.95C50.3786 37.04 50.4853 37.085 50.6186 37.085C50.6953 37.085 50.7586 37.0767 50.8086 37.06C50.8619 37.04 50.9069 37.02 50.9436 37C50.9836 36.98 51.0186 36.9617 51.0486 36.945C51.0786 36.925 51.1086 36.915 51.1386 36.915C51.1753 36.915 51.2053 36.925 51.2286 36.945C51.2519 36.9617 51.2769 36.9883 51.3036 37.025L51.6736 37.625C51.4936 37.775 51.2869 37.8883 51.0536 37.965C50.8203 38.0417 50.5786 38.08 50.3286 38.08ZM53.9258 32.87V38H52.6908V32.87H53.9258ZM54.1108 31.375C54.1108 31.4817 54.0891 31.5817 54.0458 31.675C54.0024 31.7683 53.9441 31.85 53.8708 31.92C53.8008 31.99 53.7174 32.0467 53.6208 32.09C53.5241 32.13 53.4208 32.15 53.3108 32.15C53.2041 32.15 53.1024 32.13 53.0058 32.09C52.9124 32.0467 52.8308 31.99 52.7608 31.92C52.6908 31.85 52.6341 31.7683 52.5908 31.675C52.5508 31.5817 52.5308 31.4817 52.5308 31.375C52.5308 31.265 52.5508 31.1617 52.5908 31.065C52.6341 30.9683 52.6908 30.885 52.7608 30.815C52.8308 30.745 52.9124 30.69 53.0058 30.65C53.1024 30.6067 53.2041 30.585 53.3108 30.585C53.4208 30.585 53.5241 30.6067 53.6208 30.65C53.7174 30.69 53.8008 30.745 53.8708 30.815C53.9441 30.885 54.0024 30.9683 54.0458 31.065C54.0891 31.1617 54.1108 31.265 54.1108 31.375ZM57.5456 32.79C57.869 32.79 58.1656 32.8417 58.4356 32.945C58.709 33.0483 58.944 33.2 59.1406 33.4C59.3373 33.5967 59.4906 33.84 59.6006 34.13C59.7106 34.4167 59.7656 34.745 59.7656 35.115C59.7656 35.2083 59.7606 35.2867 59.7506 35.35C59.744 35.41 59.729 35.4583 59.7056 35.495C59.6856 35.5283 59.6573 35.5533 59.6206 35.57C59.584 35.5833 59.5373 35.59 59.4806 35.59H56.3106C56.3473 36.1167 56.489 36.5033 56.7356 36.75C56.9823 36.9967 57.309 37.12 57.7156 37.12C57.9156 37.12 58.0873 37.0967 58.2306 37.05C58.3773 37.0033 58.504 36.9517 58.6106 36.895C58.7206 36.8383 58.8156 36.7867 58.8956 36.74C58.979 36.6933 59.059 36.67 59.1356 36.67C59.1856 36.67 59.229 36.68 59.2656 36.7C59.3023 36.72 59.334 36.7483 59.3606 36.785L59.7206 37.235C59.584 37.395 59.4306 37.53 59.2606 37.64C59.0906 37.7467 58.9123 37.8333 58.7256 37.9C58.5423 37.9633 58.354 38.0083 58.1606 38.035C57.9706 38.0617 57.7856 38.075 57.6056 38.075C57.249 38.075 56.9173 38.0167 56.6106 37.9C56.304 37.78 56.0373 37.605 55.8106 37.375C55.584 37.1417 55.4056 36.855 55.2756 36.515C55.1456 36.1717 55.0806 35.775 55.0806 35.325C55.0806 34.975 55.1373 34.6467 55.2506 34.34C55.364 34.03 55.5256 33.7617 55.7356 33.535C55.949 33.305 56.2073 33.1233 56.5106 32.99C56.8173 32.8567 57.1623 32.79 57.5456 32.79ZM57.5706 33.675C57.2106 33.675 56.929 33.7767 56.7256 33.98C56.5223 34.1833 56.3923 34.4717 56.3356 34.845H58.6556C58.6556 34.685 58.634 34.535 58.5906 34.395C58.5473 34.2517 58.4806 34.1267 58.3906 34.02C58.3006 33.9133 58.1873 33.83 58.0506 33.77C57.914 33.7067 57.754 33.675 57.5706 33.675ZM63.9124 33.87C63.8791 33.9233 63.8441 33.9617 63.8074 33.985C63.7708 34.005 63.7241 34.015 63.6674 34.015C63.6074 34.015 63.5424 33.9983 63.4724 33.965C63.4058 33.9317 63.3274 33.895 63.2374 33.855C63.1474 33.8117 63.0441 33.7733 62.9274 33.74C62.8141 33.7067 62.6791 33.69 62.5224 33.69C62.2791 33.69 62.0874 33.7417 61.9474 33.845C61.8074 33.9483 61.7374 34.0833 61.7374 34.25C61.7374 34.36 61.7724 34.4533 61.8424 34.53C61.9158 34.6033 62.0108 34.6683 62.1274 34.725C62.2474 34.7817 62.3824 34.8333 62.5324 34.88C62.6824 34.9233 62.8358 34.9717 62.9924 35.025C63.1491 35.0783 63.3024 35.14 63.4524 35.21C63.6024 35.2767 63.7358 35.3633 63.8524 35.47C63.9724 35.5733 64.0674 35.6983 64.1374 35.845C64.2108 35.9917 64.2474 36.1683 64.2474 36.375C64.2474 36.6217 64.2024 36.85 64.1124 37.06C64.0224 37.2667 63.8908 37.4467 63.7174 37.6C63.5441 37.75 63.3291 37.8683 63.0724 37.955C62.8191 38.0383 62.5274 38.08 62.1974 38.08C62.0208 38.08 61.8474 38.0633 61.6774 38.03C61.5108 38 61.3491 37.9567 61.1924 37.9C61.0391 37.8433 60.8958 37.7767 60.7624 37.7C60.6324 37.6233 60.5174 37.54 60.4174 37.45L60.7024 36.98C60.7391 36.9233 60.7824 36.88 60.8324 36.85C60.8824 36.82 60.9458 36.805 61.0224 36.805C61.0991 36.805 61.1708 36.8267 61.2374 36.87C61.3074 36.9133 61.3874 36.96 61.4774 37.01C61.5674 37.06 61.6724 37.1067 61.7924 37.15C61.9158 37.1933 62.0708 37.215 62.2574 37.215C62.4041 37.215 62.5291 37.1983 62.6324 37.165C62.7391 37.1283 62.8258 37.0817 62.8924 37.025C62.9624 36.9683 63.0124 36.9033 63.0424 36.83C63.0758 36.7533 63.0924 36.675 63.0924 36.595C63.0924 36.475 63.0558 36.3767 62.9824 36.3C62.9124 36.2233 62.8174 36.1567 62.6974 36.1C62.5808 36.0433 62.4458 35.9933 62.2924 35.95C62.1424 35.9033 61.9874 35.8533 61.8274 35.8C61.6708 35.7467 61.5158 35.685 61.3624 35.615C61.2124 35.5417 61.0774 35.45 60.9574 35.34C60.8408 35.23 60.7458 35.095 60.6724 34.935C60.6024 34.775 60.5674 34.5817 60.5674 34.355C60.5674 34.145 60.6091 33.945 60.6924 33.755C60.7758 33.565 60.8974 33.4 61.0574 33.26C61.2208 33.1167 61.4224 33.0033 61.6624 32.92C61.9058 32.8333 62.1858 32.79 62.5024 32.79C62.8558 32.79 63.1774 32.8483 63.4674 32.965C63.7574 33.0817 63.9991 33.235 64.1924 33.425L63.9124 33.87Z" fill="#232323"/>
<rect x="29.5" y="44" width="5" height="3" rx="1.5" fill="#EA8913"/>
</svg>
