<svg width="63" height="51" viewBox="0 0 63 51" fill="none" xmlns="http://www.w3.org/2000/svg">
<path d="M36.8327 12.9582H35.166C33.1493 12.9582 32.041 11.8498 32.041 9.83317V8.1665C32.041 6.14984 33.1493 5.0415 35.166 5.0415H36.8327C38.8493 5.0415 39.9577 6.14984 39.9577 8.1665V9.83317C39.9577 11.8498 38.8493 12.9582 36.8327 12.9582ZM35.166 6.2915C33.8493 6.2915 33.291 6.84984 33.291 8.1665V9.83317C33.291 11.1498 33.8493 11.7082 35.166 11.7082H36.8327C38.1493 11.7082 38.7077 11.1498 38.7077 9.83317V8.1665C38.7077 6.84984 38.1493 6.2915 36.8327 6.2915H35.166Z" fill="#6F6F6F"/>
<path d="M26.8327 22.9582H25.166C23.1493 22.9582 22.041 21.8498 22.041 19.8332V18.1665C22.041 16.1498 23.1493 15.0415 25.166 15.0415H26.8327C28.8493 15.0415 29.9577 16.1498 29.9577 18.1665V19.8332C29.9577 21.8498 28.8493 22.9582 26.8327 22.9582ZM25.166 16.2915C23.8493 16.2915 23.291 16.8498 23.291 18.1665V19.8332C23.291 21.1498 23.8493 21.7082 25.166 21.7082H26.8327C28.1493 21.7082 28.7077 21.1498 28.7077 19.8332V18.1665C28.7077 16.8498 28.1493 16.2915 26.8327 16.2915H25.166Z" fill="#6F6F6F"/>
<path d="M25.9993 12.9582C23.816 12.9582 22.041 11.1832 22.041 8.99984C22.041 6.8165 23.816 5.0415 25.9993 5.0415C28.1827 5.0415 29.9577 6.8165 29.9577 8.99984C29.9577 11.1832 28.1827 12.9582 25.9993 12.9582ZM25.9993 6.2915C24.5077 6.2915 23.291 7.50817 23.291 8.99984C23.291 10.4915 24.5077 11.7082 25.9993 11.7082C27.491 11.7082 28.7077 10.4915 28.7077 8.99984C28.7077 7.50817 27.491 6.2915 25.9993 6.2915Z" fill="#6F6F6F"/>
<path d="M35.9993 22.9582C33.816 22.9582 32.041 21.1832 32.041 18.9998C32.041 16.8165 33.816 15.0415 35.9993 15.0415C38.1827 15.0415 39.9577 16.8165 39.9577 18.9998C39.9577 21.1832 38.1827 22.9582 35.9993 22.9582ZM35.9993 16.2915C34.5077 16.2915 33.291 17.5082 33.291 18.9998C33.291 20.4915 34.5077 21.7082 35.9993 21.7082C37.491 21.7082 38.7077 20.4915 38.7077 18.9998C38.7077 17.5082 37.491 16.2915 35.9993 16.2915Z" fill="#6F6F6F"/>
<path d="M7.74731 30.82V38H6.81731V32.89C6.81731 32.8133 6.81897 32.7317 6.82231 32.645C6.82897 32.5583 6.83564 32.47 6.84231 32.38L4.45231 36.765C4.36897 36.9283 4.24064 37.01 4.06731 37.01H3.91731C3.74397 37.01 3.61731 36.9283 3.53731 36.765L1.10231 32.365C1.12231 32.5517 1.13231 32.7267 1.13231 32.89V38H0.197305V30.82H0.987305C1.08064 30.82 1.15231 30.83 1.20231 30.85C1.25564 30.8667 1.30564 30.9167 1.35231 31L3.75231 35.3C3.79897 35.3867 3.84231 35.4783 3.88231 35.575C3.92231 35.6717 3.96064 35.7683 3.99731 35.865C4.06731 35.6683 4.14897 35.4783 4.24231 35.295L6.59731 31C6.64064 30.9167 6.68731 30.8667 6.73731 30.85C6.79064 30.83 6.86397 30.82 6.95731 30.82H7.74731ZM13.7561 32.92L10.9361 39.475C10.9061 39.5483 10.8661 39.605 10.8161 39.645C10.7661 39.685 10.6927 39.705 10.5961 39.705H9.87106L10.8011 37.68L8.71606 32.92H9.56606C9.64939 32.92 9.71439 32.94 9.76106 32.98C9.80772 33.02 9.84106 33.065 9.86106 33.115L11.1511 36.165C11.1777 36.2417 11.2027 36.32 11.2261 36.4C11.2527 36.4767 11.2744 36.5533 11.2911 36.63C11.3144 36.55 11.3394 36.4717 11.3661 36.395C11.3927 36.315 11.4211 36.2367 11.4511 36.16L12.6961 33.115C12.7194 33.0583 12.7561 33.0117 12.8061 32.975C12.8561 32.9383 12.9127 32.92 12.9761 32.92H13.7561ZM19.3618 34.515C19.6318 34.515 19.8684 34.48 20.0718 34.41C20.2784 34.34 20.4501 34.2417 20.5868 34.115C20.7268 33.985 20.8318 33.8317 20.9018 33.655C20.9718 33.475 21.0068 33.2767 21.0068 33.06C21.0068 32.6233 20.8701 32.28 20.5968 32.03C20.3268 31.78 19.9151 31.655 19.3618 31.655H18.2518V34.515H19.3618ZM19.3618 30.82C19.8218 30.82 20.2218 30.8733 20.5618 30.98C20.9018 31.0867 21.1834 31.2383 21.4068 31.435C21.6301 31.6283 21.7951 31.8633 21.9018 32.14C22.0118 32.4167 22.0668 32.7233 22.0668 33.06C22.0668 33.3967 22.0084 33.7067 21.8918 33.99C21.7751 34.27 21.6034 34.5117 21.3768 34.715C21.1501 34.9183 20.8668 35.0767 20.5268 35.19C20.1901 35.3 19.8018 35.355 19.3618 35.355H18.2518V38H17.1868V30.82H19.3618ZM23.9736 33.895C24.1369 33.5617 24.3336 33.3 24.5636 33.11C24.7936 32.92 25.0702 32.825 25.3936 32.825C25.5036 32.825 25.6069 32.8383 25.7036 32.865C25.8036 32.8883 25.8902 32.925 25.9636 32.975L25.8986 33.71C25.8752 33.8 25.8202 33.845 25.7336 33.845C25.6869 33.845 25.6169 33.8367 25.5236 33.82C25.4302 33.8 25.3302 33.79 25.2236 33.79C25.0669 33.79 24.9286 33.8133 24.8086 33.86C24.6886 33.9033 24.5802 33.97 24.4836 34.06C24.3902 34.1467 24.3069 34.255 24.2336 34.385C24.1602 34.5117 24.0919 34.6567 24.0286 34.82V38H23.0536V32.92H23.6136C23.7202 32.92 23.7919 32.94 23.8286 32.98C23.8686 33.0167 23.8969 33.0833 23.9136 33.18L23.9736 33.895ZM28.7951 32.84C29.1685 32.84 29.5051 32.9017 29.8051 33.025C30.1085 33.145 30.3651 33.32 30.5751 33.55C30.7885 33.7767 30.9518 34.0517 31.0651 34.375C31.1785 34.695 31.2351 35.055 31.2351 35.455C31.2351 35.855 31.1785 36.2167 31.0651 36.54C30.9518 36.8633 30.7885 37.1383 30.5751 37.365C30.3651 37.5917 30.1085 37.7667 29.8051 37.89C29.5051 38.01 29.1685 38.07 28.7951 38.07C28.4185 38.07 28.0785 38.01 27.7751 37.89C27.4751 37.7667 27.2185 37.5917 27.0051 37.365C26.7918 37.1383 26.6268 36.8633 26.5101 36.54C26.3968 36.2167 26.3401 35.855 26.3401 35.455C26.3401 35.055 26.3968 34.695 26.5101 34.375C26.6268 34.0517 26.7918 33.7767 27.0051 33.55C27.2185 33.32 27.4751 33.145 27.7751 33.025C28.0785 32.9017 28.4185 32.84 28.7951 32.84ZM28.7951 37.31C29.2751 37.31 29.6335 37.1483 29.8701 36.825C30.1068 36.5017 30.2251 36.0467 30.2251 35.46C30.2251 34.8733 30.1068 34.4183 29.8701 34.095C29.6335 33.7683 29.2751 33.605 28.7951 33.605C28.3085 33.605 27.9451 33.7683 27.7051 34.095C27.4685 34.4183 27.3501 34.8733 27.3501 35.46C27.3501 36.0467 27.4685 36.5017 27.7051 36.825C27.9451 37.1483 28.3085 37.31 28.7951 37.31ZM33.3985 36.75C33.5585 36.96 33.7301 37.1067 33.9135 37.19C34.1001 37.2733 34.3085 37.315 34.5385 37.315C34.9851 37.315 35.3301 37.155 35.5735 36.835C35.8201 36.5117 35.9435 36.0417 35.9435 35.425C35.9435 35.1017 35.9151 34.8267 35.8585 34.6C35.8051 34.37 35.7251 34.1833 35.6185 34.04C35.5151 33.8933 35.3868 33.7867 35.2335 33.72C35.0801 33.65 34.9068 33.615 34.7135 33.615C34.4301 33.615 34.1835 33.6783 33.9735 33.805C33.7668 33.9317 33.5751 34.1117 33.3985 34.345V36.75ZM33.3485 33.68C33.4551 33.5533 33.5685 33.4383 33.6885 33.335C33.8118 33.2283 33.9435 33.1383 34.0835 33.065C34.2235 32.9883 34.3718 32.93 34.5285 32.89C34.6885 32.8467 34.8585 32.825 35.0385 32.825C35.3285 32.825 35.5901 32.8817 35.8235 32.995C36.0601 33.1083 36.2618 33.275 36.4285 33.495C36.5951 33.715 36.7235 33.9867 36.8135 34.31C36.9068 34.6333 36.9535 35.005 36.9535 35.425C36.9535 35.8017 36.9018 36.1517 36.7985 36.475C36.6985 36.795 36.5535 37.0733 36.3635 37.31C36.1768 37.5467 35.9468 37.7333 35.6735 37.87C35.4035 38.0033 35.0985 38.07 34.7585 38.07C34.4551 38.07 34.1951 38.02 33.9785 37.92C33.7618 37.82 33.5685 37.68 33.3985 37.5V39.705H32.4235V32.92H33.0085C33.1451 32.92 33.2301 32.985 33.2635 33.115L33.3485 33.68ZM41.5135 34.895C41.5135 34.7017 41.4851 34.5233 41.4285 34.36C41.3751 34.1967 41.2951 34.055 41.1885 33.935C41.0818 33.815 40.9518 33.7217 40.7985 33.655C40.6451 33.5883 40.4685 33.555 40.2685 33.555C39.8585 33.555 39.5351 33.6733 39.2985 33.91C39.0651 34.1467 38.9168 34.475 38.8535 34.895H41.5135ZM42.3185 37.275C42.1985 37.415 42.0601 37.5367 41.9035 37.64C41.7468 37.74 41.5801 37.8217 41.4035 37.885C41.2268 37.9483 41.0435 37.995 40.8535 38.025C40.6668 38.055 40.4818 38.07 40.2985 38.07C39.9485 38.07 39.6235 38.0117 39.3235 37.895C39.0268 37.775 38.7685 37.6017 38.5485 37.375C38.3318 37.145 38.1618 36.8617 38.0385 36.525C37.9185 36.185 37.8585 35.795 37.8585 35.355C37.8585 35.0017 37.9135 34.6733 38.0235 34.37C38.1335 34.0633 38.2901 33.7967 38.4935 33.57C38.7001 33.3433 38.9518 33.165 39.2485 33.035C39.5451 32.905 39.8785 32.84 40.2485 32.84C40.5585 32.84 40.8435 32.8917 41.1035 32.995C41.3668 33.095 41.5935 33.2417 41.7835 33.435C41.9735 33.6283 42.1218 33.8667 42.2285 34.15C42.3385 34.4333 42.3935 34.7567 42.3935 35.12C42.3935 35.27 42.3768 35.3717 42.3435 35.425C42.3101 35.475 42.2485 35.5 42.1585 35.5H38.8285C38.8385 35.8033 38.8818 36.0683 38.9585 36.295C39.0351 36.5183 39.1401 36.705 39.2735 36.855C39.4101 37.005 39.5718 37.1167 39.7585 37.19C39.9451 37.2633 40.1535 37.3 40.3835 37.3C40.6001 37.3 40.7868 37.275 40.9435 37.225C41.1035 37.175 41.2401 37.1217 41.3535 37.065C41.4701 37.005 41.5668 36.95 41.6435 36.9C41.7235 36.85 41.7935 36.825 41.8535 36.825C41.9335 36.825 41.9951 36.855 42.0385 36.915L42.3185 37.275ZM44.4614 33.895C44.6248 33.5617 44.8214 33.3 45.0514 33.11C45.2814 32.92 45.5581 32.825 45.8814 32.825C45.9914 32.825 46.0948 32.8383 46.1914 32.865C46.2914 32.8883 46.3781 32.925 46.4514 32.975L46.3864 33.71C46.3631 33.8 46.3081 33.845 46.2214 33.845C46.1748 33.845 46.1048 33.8367 46.0114 33.82C45.9181 33.8 45.8181 33.79 45.7114 33.79C45.5548 33.79 45.4164 33.8133 45.2964 33.86C45.1764 33.9033 45.0681 33.97 44.9714 34.06C44.8781 34.1467 44.7948 34.255 44.7214 34.385C44.6481 34.5117 44.5798 34.6567 44.5164 34.82V38H43.5414V32.92H44.1014C44.2081 32.92 44.2798 32.94 44.3164 32.98C44.3564 33.0167 44.3848 33.0833 44.4014 33.18L44.4614 33.895ZM52.1186 38H51.1386V33.71H48.5886V36.685C48.5886 36.885 48.6369 37.035 48.7336 37.135C48.8336 37.2317 48.9602 37.28 49.1136 37.28C49.2036 37.28 49.2802 37.2683 49.3436 37.245C49.4102 37.2217 49.4669 37.1967 49.5136 37.17C49.5602 37.14 49.6002 37.1133 49.6336 37.09C49.6669 37.0667 49.6969 37.055 49.7236 37.055C49.7569 37.055 49.7819 37.0633 49.7986 37.08C49.8186 37.0933 49.8386 37.1167 49.8586 37.15L50.1486 37.62C49.9886 37.7667 49.7986 37.88 49.5786 37.96C49.3586 38.04 49.1302 38.08 48.8936 38.08C48.4836 38.08 48.1669 37.965 47.9436 37.735C47.7236 37.505 47.6136 37.1767 47.6136 36.75V33.71H47.0236C46.9669 33.71 46.9186 33.6933 46.8786 33.66C46.8419 33.6233 46.8236 33.57 46.8236 33.5V33.105L47.6536 32.99L47.8686 31.475C47.8819 31.4183 47.9069 31.375 47.9436 31.345C47.9836 31.3117 48.0336 31.295 48.0936 31.295H48.5886V33H52.1186V38ZM52.3386 31.32C52.3386 31.41 52.3202 31.4967 52.2836 31.58C52.2469 31.66 52.1969 31.7317 52.1336 31.795C52.0736 31.855 52.0019 31.9033 51.9186 31.94C51.8352 31.9733 51.7486 31.99 51.6586 31.99C51.5686 31.99 51.4836 31.9733 51.4036 31.94C51.3236 31.9033 51.2519 31.855 51.1886 31.795C51.1286 31.7317 51.0802 31.66 51.0436 31.58C51.0102 31.4967 50.9936 31.41 50.9936 31.32C50.9936 31.2267 51.0102 31.1383 51.0436 31.055C51.0802 30.9717 51.1286 30.9 51.1886 30.84C51.2519 30.7767 51.3236 30.7283 51.4036 30.695C51.4836 30.6583 51.5686 30.64 51.6586 30.64C51.7486 30.64 51.8352 30.6583 51.9186 30.695C52.0019 30.7283 52.0736 30.7767 52.1336 30.84C52.1969 30.9 52.2469 30.9717 52.2836 31.055C52.3202 31.1383 52.3386 31.2267 52.3386 31.32ZM56.999 34.895C56.999 34.7017 56.9707 34.5233 56.914 34.36C56.8607 34.1967 56.7807 34.055 56.674 33.935C56.5674 33.815 56.4374 33.7217 56.284 33.655C56.1307 33.5883 55.954 33.555 55.754 33.555C55.344 33.555 55.0207 33.6733 54.784 33.91C54.5507 34.1467 54.4024 34.475 54.339 34.895H56.999ZM57.804 37.275C57.684 37.415 57.5457 37.5367 57.389 37.64C57.2324 37.74 57.0657 37.8217 56.889 37.885C56.7124 37.9483 56.529 37.995 56.339 38.025C56.1524 38.055 55.9674 38.07 55.784 38.07C55.434 38.07 55.109 38.0117 54.809 37.895C54.5124 37.775 54.254 37.6017 54.034 37.375C53.8174 37.145 53.6474 36.8617 53.524 36.525C53.404 36.185 53.344 35.795 53.344 35.355C53.344 35.0017 53.399 34.6733 53.509 34.37C53.619 34.0633 53.7757 33.7967 53.979 33.57C54.1857 33.3433 54.4374 33.165 54.734 33.035C55.0307 32.905 55.364 32.84 55.734 32.84C56.044 32.84 56.329 32.8917 56.589 32.995C56.8524 33.095 57.079 33.2417 57.269 33.435C57.459 33.6283 57.6074 33.8667 57.714 34.15C57.824 34.4333 57.879 34.7567 57.879 35.12C57.879 35.27 57.8624 35.3717 57.829 35.425C57.7957 35.475 57.734 35.5 57.644 35.5H54.314C54.324 35.8033 54.3674 36.0683 54.444 36.295C54.5207 36.5183 54.6257 36.705 54.759 36.855C54.8957 37.005 55.0574 37.1167 55.244 37.19C55.4307 37.2633 55.639 37.3 55.869 37.3C56.0857 37.3 56.2724 37.275 56.429 37.225C56.589 37.175 56.7257 37.1217 56.839 37.065C56.9557 37.005 57.0524 36.95 57.129 36.9C57.209 36.85 57.279 36.825 57.339 36.825C57.419 36.825 57.4807 36.855 57.524 36.915L57.804 37.275ZM62.022 33.795C61.9953 33.8383 61.967 33.87 61.937 33.89C61.907 33.9067 61.8687 33.915 61.822 33.915C61.7687 33.915 61.7087 33.8967 61.642 33.86C61.5787 33.8233 61.5003 33.7833 61.407 33.74C61.317 33.6967 61.2103 33.6567 61.087 33.62C60.9637 33.5833 60.817 33.565 60.647 33.565C60.507 33.565 60.3787 33.5833 60.262 33.62C60.1487 33.6533 60.052 33.7017 59.972 33.765C59.892 33.825 59.8303 33.8983 59.787 33.985C59.7437 34.0683 59.722 34.1583 59.722 34.255C59.722 34.3817 59.7587 34.4867 59.832 34.57C59.9087 34.6533 60.007 34.725 60.127 34.785C60.2503 34.845 60.3887 34.9 60.542 34.95C60.6987 34.9967 60.857 35.0467 61.017 35.1C61.1803 35.1533 61.3387 35.215 61.492 35.285C61.6487 35.3517 61.787 35.4367 61.907 35.54C62.0303 35.64 62.1287 35.7617 62.202 35.905C62.2787 36.0483 62.317 36.2233 62.317 36.43C62.317 36.6667 62.2737 36.8867 62.187 37.09C62.1037 37.29 61.9787 37.4633 61.812 37.61C61.6487 37.7567 61.4453 37.8717 61.202 37.955C60.9587 38.0383 60.6803 38.08 60.367 38.08C60.017 38.08 59.6937 38.0217 59.397 37.905C59.1003 37.7883 58.852 37.64 58.652 37.46L58.882 37.085C58.9087 37.0383 58.942 37.0033 58.982 36.98C59.022 36.9533 59.0753 36.94 59.142 36.94C59.2053 36.94 59.2703 36.9633 59.337 37.01C59.4037 37.0567 59.4837 37.1083 59.577 37.165C59.6703 37.2183 59.7837 37.2683 59.917 37.315C60.0503 37.3583 60.217 37.38 60.417 37.38C60.5837 37.38 60.7287 37.36 60.852 37.32C60.9753 37.2767 61.077 37.22 61.157 37.15C61.2403 37.0767 61.302 36.9933 61.342 36.9C61.382 36.8067 61.402 36.7083 61.402 36.605C61.402 36.4717 61.3637 36.3617 61.287 36.275C61.2137 36.185 61.1153 36.1083 60.992 36.045C60.872 35.9817 60.7337 35.9267 60.577 35.88C60.4203 35.8333 60.2603 35.7833 60.097 35.73C59.9337 35.6767 59.7737 35.615 59.617 35.545C59.4603 35.475 59.3203 35.3867 59.197 35.28C59.077 35.1733 58.9787 35.0433 58.902 34.89C58.8287 34.7367 58.792 34.55 58.792 34.33C58.792 34.1333 58.832 33.945 58.912 33.765C58.9953 33.585 59.1137 33.4267 59.267 33.29C59.4237 33.1533 59.6153 33.045 59.842 32.965C60.072 32.8817 60.3337 32.84 60.627 32.84C60.9637 32.84 61.267 32.8933 61.537 33C61.8103 33.1067 62.0437 33.2533 62.237 33.44L62.022 33.795Z" fill="#6F6F6F"/>
</svg>
