<svg width="56" height="51" viewBox="0 0 56 51" fill="none" xmlns="http://www.w3.org/2000/svg">
<path d="M36.1653 23.2083L34.4075 18.5208C34.3217 18.2921 34.1031 18.1406 33.8588 18.1406H33.3146C33.0504 18.5011 32.7682 18.8597 32.4677 19.2154C30.7895 21.2017 29.1071 22.4385 29.0363 22.4902C28.7331 22.7114 28.3749 22.8281 28 22.8281C27.6251 22.8281 27.2668 22.7113 26.9639 22.4903C26.8933 22.4388 25.2121 21.2035 23.5323 19.2154C23.2318 18.8597 22.9496 18.5012 22.6854 18.1406H22.1412C21.8969 18.1406 21.6783 18.2921 21.5925 18.5208L19.8347 23.2083C19.6911 23.5914 19.9742 24 20.3834 24H35.6167C36.0258 24 36.309 23.5914 36.1653 23.2083Z" fill="#262626"/>
<path d="M29.5625 11.4219H26.4375C25.899 11.4219 25.4609 11.86 25.4609 12.3984V12.9844H30.5391V12.3984C30.5391 11.86 30.101 11.4219 29.5625 11.4219Z" fill="#262626"/>
<path d="M28 10.25C28.5385 10.25 28.9766 9.81191 28.9766 9.27344V8.49219C28.9766 7.95371 28.5385 7.51562 28 7.51562C27.4615 7.51562 27.0234 7.95371 27.0234 8.49219V9.27344C27.0234 9.81191 27.4615 10.25 28 10.25Z" fill="#262626"/>
<path d="M28 4C24.2307 4 21.1641 7.0666 21.1641 10.8359C21.1641 12.2184 21.5119 13.6468 22.198 15.0816C22.7379 16.2108 23.488 17.3471 24.4274 18.4591C26.017 20.3405 27.5885 21.4954 27.6546 21.5437C27.8604 21.6938 28.1396 21.6938 28.3454 21.5437H28.3454C28.4115 21.4954 29.983 20.3405 31.5726 18.4591C32.512 17.3471 33.2621 16.2108 33.802 15.0816C34.4881 13.6468 34.8359 12.2184 34.8359 10.8359C34.8359 7.0666 31.7693 4 28 4ZM31.7109 13.5703C31.7109 13.8939 31.4486 14.1562 31.125 14.1562H24.875C24.5514 14.1562 24.2891 13.8939 24.2891 13.5703V12.3984C24.2891 11.3283 25.0756 10.4386 26.1009 10.2766C25.942 9.97691 25.8516 9.63559 25.8516 9.27344V8.49219C25.8516 7.30754 26.8154 6.34375 28 6.34375C29.1846 6.34375 30.1484 7.30754 30.1484 8.49219V9.27344C30.1484 9.63559 30.058 9.97691 29.8991 10.2766C30.9244 10.4386 31.7109 11.3283 31.7109 12.3984V13.5703Z" fill="#262626"/>
<path d="M15.2065 30.77H16.2915C16.4082 30.77 16.5032 30.7983 16.5765 30.855C16.6499 30.9117 16.7049 30.985 16.7415 31.075L18.4415 35.485C18.4982 35.6283 18.5515 35.7867 18.6015 35.96C18.6549 36.13 18.7049 36.31 18.7515 36.5C18.8282 36.1167 18.9232 35.7783 19.0365 35.485L20.7315 31.075C20.7615 30.9983 20.8149 30.9283 20.8915 30.865C20.9682 30.8017 21.0632 30.77 21.1765 30.77H22.2615L19.3415 38H18.1265L15.2065 30.77ZM24.3611 32.87V38H23.1261V32.87H24.3611ZM24.5461 31.375C24.5461 31.4817 24.5245 31.5817 24.4811 31.675C24.4378 31.7683 24.3795 31.85 24.3061 31.92C24.2361 31.99 24.1528 32.0467 24.0561 32.09C23.9595 32.13 23.8561 32.15 23.7461 32.15C23.6395 32.15 23.5378 32.13 23.4411 32.09C23.3478 32.0467 23.2661 31.99 23.1961 31.92C23.1261 31.85 23.0695 31.7683 23.0261 31.675C22.9861 31.5817 22.9661 31.4817 22.9661 31.375C22.9661 31.265 22.9861 31.1617 23.0261 31.065C23.0695 30.9683 23.1261 30.885 23.1961 30.815C23.2661 30.745 23.3478 30.69 23.4411 30.65C23.5378 30.6067 23.6395 30.585 23.7461 30.585C23.8561 30.585 23.9595 30.6067 24.0561 30.65C24.1528 30.69 24.2361 30.745 24.3061 30.815C24.3795 30.885 24.4378 30.9683 24.4811 31.065C24.5245 31.1617 24.5461 31.265 24.5461 31.375ZM28.906 33.87C28.8726 33.9233 28.8376 33.9617 28.801 33.985C28.7643 34.005 28.7176 34.015 28.661 34.015C28.601 34.015 28.536 33.9983 28.466 33.965C28.3993 33.9317 28.321 33.895 28.231 33.855C28.141 33.8117 28.0376 33.7733 27.921 33.74C27.8076 33.7067 27.6726 33.69 27.516 33.69C27.2726 33.69 27.081 33.7417 26.941 33.845C26.801 33.9483 26.731 34.0833 26.731 34.25C26.731 34.36 26.766 34.4533 26.836 34.53C26.9093 34.6033 27.0043 34.6683 27.121 34.725C27.241 34.7817 27.376 34.8333 27.526 34.88C27.676 34.9233 27.8293 34.9717 27.986 35.025C28.1426 35.0783 28.296 35.14 28.446 35.21C28.596 35.2767 28.7293 35.3633 28.846 35.47C28.966 35.5733 29.061 35.6983 29.131 35.845C29.2043 35.9917 29.241 36.1683 29.241 36.375C29.241 36.6217 29.196 36.85 29.106 37.06C29.016 37.2667 28.8843 37.4467 28.711 37.6C28.5376 37.75 28.3226 37.8683 28.066 37.955C27.8126 38.0383 27.521 38.08 27.191 38.08C27.0143 38.08 26.841 38.0633 26.671 38.03C26.5043 38 26.3426 37.9567 26.186 37.9C26.0326 37.8433 25.8893 37.7767 25.756 37.7C25.626 37.6233 25.511 37.54 25.411 37.45L25.696 36.98C25.7326 36.9233 25.776 36.88 25.826 36.85C25.876 36.82 25.9393 36.805 26.016 36.805C26.0926 36.805 26.1643 36.8267 26.231 36.87C26.301 36.9133 26.381 36.96 26.471 37.01C26.561 37.06 26.666 37.1067 26.786 37.15C26.9093 37.1933 27.0643 37.215 27.251 37.215C27.3976 37.215 27.5226 37.1983 27.626 37.165C27.7326 37.1283 27.8193 37.0817 27.886 37.025C27.956 36.9683 28.006 36.9033 28.036 36.83C28.0693 36.7533 28.086 36.675 28.086 36.595C28.086 36.475 28.0493 36.3767 27.976 36.3C27.906 36.2233 27.811 36.1567 27.691 36.1C27.5743 36.0433 27.4393 35.9933 27.286 35.95C27.136 35.9033 26.981 35.8533 26.821 35.8C26.6643 35.7467 26.5093 35.685 26.356 35.615C26.206 35.5417 26.071 35.45 25.951 35.34C25.8343 35.23 25.7393 35.095 25.666 34.935C25.596 34.775 25.561 34.5817 25.561 34.355C25.561 34.145 25.6026 33.945 25.686 33.755C25.7693 33.565 25.891 33.4 26.051 33.26C26.2143 33.1167 26.416 33.0033 26.656 32.92C26.8993 32.8333 27.1793 32.79 27.496 32.79C27.8493 32.79 28.171 32.8483 28.461 32.965C28.751 33.0817 28.9926 33.235 29.186 33.425L28.906 33.87ZM31.6412 32.87V38H30.4062V32.87H31.6412ZM31.8262 31.375C31.8262 31.4817 31.8045 31.5817 31.7612 31.675C31.7179 31.7683 31.6595 31.85 31.5862 31.92C31.5162 31.99 31.4329 32.0467 31.3362 32.09C31.2395 32.13 31.1362 32.15 31.0262 32.15C30.9195 32.15 30.8179 32.13 30.7212 32.09C30.6279 32.0467 30.5462 31.99 30.4762 31.92C30.4062 31.85 30.3495 31.7683 30.3062 31.675C30.2662 31.5817 30.2462 31.4817 30.2462 31.375C30.2462 31.265 30.2662 31.1617 30.3062 31.065C30.3495 30.9683 30.4062 30.885 30.4762 30.815C30.5462 30.745 30.6279 30.69 30.7212 30.65C30.8179 30.6067 30.9195 30.585 31.0262 30.585C31.1362 30.585 31.2395 30.6067 31.3362 30.65C31.4329 30.69 31.5162 30.745 31.5862 30.815C31.6595 30.885 31.7179 30.9683 31.7612 31.065C31.8045 31.1617 31.8262 31.265 31.8262 31.375ZM34.8261 38.08C34.3827 38.08 34.0411 37.955 33.8011 37.705C33.5611 37.4517 33.4411 37.1033 33.4411 36.66V33.795H32.9211C32.8544 33.795 32.7961 33.7733 32.7461 33.73C32.6994 33.6867 32.6761 33.6217 32.6761 33.535V33.045L33.5011 32.91L33.7611 31.51C33.7744 31.4433 33.8044 31.3917 33.8511 31.355C33.9011 31.3183 33.9627 31.3 34.0361 31.3H34.6761V32.915H36.0261V33.795H34.6761V36.575C34.6761 36.735 34.7161 36.86 34.7961 36.95C34.8761 37.04 34.9827 37.085 35.1161 37.085C35.1927 37.085 35.2561 37.0767 35.3061 37.06C35.3594 37.04 35.4044 37.02 35.4411 37C35.4811 36.98 35.5161 36.9617 35.5461 36.945C35.5761 36.925 35.6061 36.915 35.6361 36.915C35.6727 36.915 35.7027 36.925 35.7261 36.945C35.7494 36.9617 35.7744 36.9883 35.8011 37.025L36.1711 37.625C35.9911 37.775 35.7844 37.8883 35.5511 37.965C35.3177 38.0417 35.0761 38.08 34.8261 38.08ZM40.1532 33.87C40.1199 33.9233 40.0849 33.9617 40.0482 33.985C40.0116 34.005 39.9649 34.015 39.9082 34.015C39.8482 34.015 39.7832 33.9983 39.7132 33.965C39.6466 33.9317 39.5682 33.895 39.4782 33.855C39.3882 33.8117 39.2849 33.7733 39.1682 33.74C39.0549 33.7067 38.9199 33.69 38.7632 33.69C38.5199 33.69 38.3282 33.7417 38.1882 33.845C38.0482 33.9483 37.9782 34.0833 37.9782 34.25C37.9782 34.36 38.0132 34.4533 38.0832 34.53C38.1566 34.6033 38.2516 34.6683 38.3682 34.725C38.4882 34.7817 38.6232 34.8333 38.7732 34.88C38.9232 34.9233 39.0766 34.9717 39.2332 35.025C39.3899 35.0783 39.5432 35.14 39.6932 35.21C39.8432 35.2767 39.9766 35.3633 40.0932 35.47C40.2132 35.5733 40.3082 35.6983 40.3782 35.845C40.4516 35.9917 40.4882 36.1683 40.4882 36.375C40.4882 36.6217 40.4432 36.85 40.3532 37.06C40.2632 37.2667 40.1316 37.4467 39.9582 37.6C39.7849 37.75 39.5699 37.8683 39.3132 37.955C39.0599 38.0383 38.7682 38.08 38.4382 38.08C38.2616 38.08 38.0882 38.0633 37.9182 38.03C37.7516 38 37.5899 37.9567 37.4332 37.9C37.2799 37.8433 37.1366 37.7767 37.0032 37.7C36.8732 37.6233 36.7582 37.54 36.6582 37.45L36.9432 36.98C36.9799 36.9233 37.0232 36.88 37.0732 36.85C37.1232 36.82 37.1866 36.805 37.2632 36.805C37.3399 36.805 37.4116 36.8267 37.4782 36.87C37.5482 36.9133 37.6282 36.96 37.7182 37.01C37.8082 37.06 37.9132 37.1067 38.0332 37.15C38.1566 37.1933 38.3116 37.215 38.4982 37.215C38.6449 37.215 38.7699 37.1983 38.8732 37.165C38.9799 37.1283 39.0666 37.0817 39.1332 37.025C39.2032 36.9683 39.2532 36.9033 39.2832 36.83C39.3166 36.7533 39.3332 36.675 39.3332 36.595C39.3332 36.475 39.2966 36.3767 39.2232 36.3C39.1532 36.2233 39.0582 36.1567 38.9382 36.1C38.8216 36.0433 38.6866 35.9933 38.5332 35.95C38.3832 35.9033 38.2282 35.8533 38.0682 35.8C37.9116 35.7467 37.7566 35.685 37.6032 35.615C37.4532 35.5417 37.3182 35.45 37.1982 35.34C37.0816 35.23 36.9866 35.095 36.9132 34.935C36.8432 34.775 36.8082 34.5817 36.8082 34.355C36.8082 34.145 36.8499 33.945 36.9332 33.755C37.0166 33.565 37.1382 33.4 37.2982 33.26C37.4616 33.1167 37.6632 33.0033 37.9032 32.92C38.1466 32.8333 38.4266 32.79 38.7432 32.79C39.0966 32.79 39.4182 32.8483 39.7082 32.965C39.9982 33.0817 40.2399 33.235 40.4332 33.425L40.1532 33.87Z" fill="#262626"/>
<rect x="25.5" y="44" width="5" height="3" rx="1.5" fill="#EA8913"/>
</svg>
