<svg width="56" height="51" viewBox="0 0 56 51" fill="none" xmlns="http://www.w3.org/2000/svg">
<path d="M36.1663 23.2083L34.4085 18.5208C34.3227 18.2921 34.1041 18.1406 33.8599 18.1406H31.8358C32.653 17.1307 33.3141 16.1032 33.8026 15.0816C34.4886 13.6468 34.8364 12.2184 34.8364 10.8359C34.8364 7.0666 31.7698 4 28.0005 4C24.2312 4 21.1646 7.0666 21.1646 10.8359C21.1646 12.2184 21.5124 13.6468 22.1985 15.0816C22.687 16.1033 23.3481 17.1307 24.1652 18.1406H22.1412C21.8969 18.1406 21.6783 18.2921 21.5925 18.5208L19.8347 23.2083C19.6911 23.5914 19.9742 24 20.3834 24H35.6177C36.0268 24 36.31 23.5914 36.1663 23.2083ZM22.3364 10.8359C22.3364 7.71277 24.8773 5.17188 28.0005 5.17188C31.1237 5.17188 33.6646 7.71277 33.6646 10.8359C33.6646 13.5813 32.0497 16.0744 30.695 17.6824C29.6228 18.9552 28.5376 19.8922 28.0005 20.327C27.4633 19.8921 26.3781 18.9551 25.306 17.6824C23.9513 16.0744 22.3364 13.5813 22.3364 10.8359ZM21.2288 22.8281L22.5472 19.3125H25.191C26.4862 20.6846 27.5997 21.5032 27.6552 21.5436C27.758 21.6187 27.8793 21.6562 28.0005 21.6562C28.1218 21.6562 28.243 21.6187 28.3459 21.5436C28.4014 21.5032 29.5149 20.6846 30.8101 19.3125H33.4539L34.7723 22.8281H21.2288Z" fill="#6F6F6F"/>
<path d="M31.7109 13.5703V12.3984C31.7109 11.3283 30.9244 10.4386 29.8991 10.2766C30.058 9.97691 30.1484 9.63559 30.1484 9.27344V8.49219C30.1484 7.30754 29.1846 6.34375 28 6.34375C26.8154 6.34375 25.8516 7.30754 25.8516 8.49219V9.27344C25.8516 9.63559 25.942 9.97691 26.1009 10.2766C25.0756 10.4386 24.2891 11.3283 24.2891 12.3984V13.5703C24.2891 13.8939 24.5514 14.1562 24.875 14.1562H31.125C31.4486 14.1562 31.7109 13.8939 31.7109 13.5703ZM27.0234 8.49219C27.0234 7.95371 27.4615 7.51562 28 7.51562C28.5385 7.51562 28.9766 7.95371 28.9766 8.49219V9.27344C28.9766 9.81191 28.5385 10.25 28 10.25C27.4615 10.25 27.0234 9.81191 27.0234 9.27344V8.49219ZM30.5391 12.9844H25.4609V12.3984C25.4609 11.86 25.899 11.4219 26.4375 11.4219H29.5625C30.101 11.4219 30.5391 11.86 30.5391 12.3984V12.9844Z" fill="#6F6F6F"/>
<path d="M22.5579 30.82L19.6379 38H18.6829L15.7629 30.82H16.6129C16.7063 30.82 16.7813 30.8433 16.8379 30.89C16.8979 30.9367 16.9429 30.9967 16.9729 31.07L18.9129 35.95C18.9596 36.07 19.0046 36.2017 19.0479 36.345C19.0946 36.4883 19.1363 36.6383 19.1729 36.795C19.2063 36.6383 19.2429 36.4883 19.2829 36.345C19.3229 36.2017 19.3663 36.07 19.4129 35.95L21.3479 31.07C21.3713 31.0033 21.4129 30.945 21.4729 30.895C21.5363 30.845 21.6129 30.82 21.7029 30.82H22.5579ZM24.3743 32.92V38H23.3993V32.92H24.3743ZM24.5593 31.35C24.5593 31.44 24.541 31.5267 24.5043 31.61C24.4677 31.69 24.4177 31.7617 24.3543 31.825C24.2943 31.885 24.2227 31.9333 24.1393 31.97C24.056 32.0033 23.9693 32.02 23.8793 32.02C23.7893 32.02 23.7043 32.0033 23.6243 31.97C23.5443 31.9333 23.4727 31.885 23.4093 31.825C23.3493 31.7617 23.301 31.69 23.2643 31.61C23.231 31.5267 23.2143 31.44 23.2143 31.35C23.2143 31.2567 23.231 31.17 23.2643 31.09C23.301 31.0067 23.3493 30.935 23.4093 30.875C23.4727 30.8117 23.5443 30.7633 23.6243 30.73C23.7043 30.6933 23.7893 30.675 23.8793 30.675C23.9693 30.675 24.056 30.6933 24.1393 30.73C24.2227 30.7633 24.2943 30.8117 24.3543 30.875C24.4177 30.935 24.4677 31.0067 24.5043 31.09C24.541 31.17 24.5593 31.2567 24.5593 31.35ZM28.881 33.795C28.8543 33.8383 28.826 33.87 28.796 33.89C28.766 33.9067 28.7276 33.915 28.681 33.915C28.6276 33.915 28.5676 33.8967 28.501 33.86C28.4376 33.8233 28.3593 33.7833 28.266 33.74C28.176 33.6967 28.0693 33.6567 27.946 33.62C27.8226 33.5833 27.676 33.565 27.506 33.565C27.366 33.565 27.2376 33.5833 27.121 33.62C27.0076 33.6533 26.911 33.7017 26.831 33.765C26.751 33.825 26.6893 33.8983 26.646 33.985C26.6026 34.0683 26.581 34.1583 26.581 34.255C26.581 34.3817 26.6176 34.4867 26.691 34.57C26.7676 34.6533 26.866 34.725 26.986 34.785C27.1093 34.845 27.2476 34.9 27.401 34.95C27.5576 34.9967 27.716 35.0467 27.876 35.1C28.0393 35.1533 28.1976 35.215 28.351 35.285C28.5076 35.3517 28.646 35.4367 28.766 35.54C28.8893 35.64 28.9876 35.7617 29.061 35.905C29.1376 36.0483 29.176 36.2233 29.176 36.43C29.176 36.6667 29.1326 36.8867 29.046 37.09C28.9626 37.29 28.8376 37.4633 28.671 37.61C28.5076 37.7567 28.3043 37.8717 28.061 37.955C27.8176 38.0383 27.5393 38.08 27.226 38.08C26.876 38.08 26.5526 38.0217 26.256 37.905C25.9593 37.7883 25.711 37.64 25.511 37.46L25.741 37.085C25.7676 37.0383 25.801 37.0033 25.841 36.98C25.881 36.9533 25.9343 36.94 26.001 36.94C26.0643 36.94 26.1293 36.9633 26.196 37.01C26.2626 37.0567 26.3426 37.1083 26.436 37.165C26.5293 37.2183 26.6426 37.2683 26.776 37.315C26.9093 37.3583 27.076 37.38 27.276 37.38C27.4426 37.38 27.5876 37.36 27.711 37.32C27.8343 37.2767 27.936 37.22 28.016 37.15C28.0993 37.0767 28.161 36.9933 28.201 36.9C28.241 36.8067 28.261 36.7083 28.261 36.605C28.261 36.4717 28.2226 36.3617 28.146 36.275C28.0726 36.185 27.9743 36.1083 27.851 36.045C27.731 35.9817 27.5926 35.9267 27.436 35.88C27.2793 35.8333 27.1193 35.7833 26.956 35.73C26.7926 35.6767 26.6326 35.615 26.476 35.545C26.3193 35.475 26.1793 35.3867 26.056 35.28C25.936 35.1733 25.8376 35.0433 25.761 34.89C25.6876 34.7367 25.651 34.55 25.651 34.33C25.651 34.1333 25.691 33.945 25.771 33.765C25.8543 33.585 25.9726 33.4267 26.126 33.29C26.2826 33.1533 26.4743 33.045 26.701 32.965C26.931 32.8817 27.1926 32.84 27.486 32.84C27.8226 32.84 28.126 32.8933 28.396 33C28.6693 33.1067 28.9026 33.2533 29.096 33.44L28.881 33.795ZM31.3517 32.92V38H30.3767V32.92H31.3517ZM31.5367 31.35C31.5367 31.44 31.5183 31.5267 31.4817 31.61C31.445 31.69 31.395 31.7617 31.3317 31.825C31.2717 31.885 31.2 31.9333 31.1167 31.97C31.0333 32.0033 30.9467 32.02 30.8567 32.02C30.7667 32.02 30.6817 32.0033 30.6017 31.97C30.5217 31.9333 30.45 31.885 30.3867 31.825C30.3267 31.7617 30.2783 31.69 30.2417 31.61C30.2083 31.5267 30.1917 31.44 30.1917 31.35C30.1917 31.2567 30.2083 31.17 30.2417 31.09C30.2783 31.0067 30.3267 30.935 30.3867 30.875C30.45 30.8117 30.5217 30.7633 30.6017 30.73C30.6817 30.6933 30.7667 30.675 30.8567 30.675C30.9467 30.675 31.0333 30.6933 31.1167 30.73C31.2 30.7633 31.2717 30.8117 31.3317 30.875C31.395 30.935 31.445 31.0067 31.4817 31.09C31.5183 31.17 31.5367 31.2567 31.5367 31.35ZM34.4533 38.08C34.0433 38.08 33.7267 37.965 33.5033 37.735C33.2833 37.505 33.1733 37.1767 33.1733 36.75V33.71H32.5833C32.5267 33.71 32.4783 33.6933 32.4383 33.66C32.4017 33.6233 32.3833 33.57 32.3833 33.5V33.105L33.2083 32.99L33.4283 31.475C33.4417 31.4183 33.4667 31.375 33.5033 31.345C33.5433 31.3117 33.5933 31.295 33.6533 31.295H34.1483V33H35.5883V33.71H34.1483V36.685C34.1483 36.885 34.1967 37.035 34.2933 37.135C34.3933 37.2317 34.52 37.28 34.6733 37.28C34.7633 37.28 34.84 37.2683 34.9033 37.245C34.97 37.2217 35.0267 37.1967 35.0733 37.17C35.12 37.14 35.16 37.1133 35.1933 37.09C35.2267 37.0667 35.2567 37.055 35.2833 37.055C35.3167 37.055 35.3417 37.0633 35.3583 37.08C35.3783 37.0933 35.3983 37.1167 35.4183 37.15L35.7083 37.62C35.5483 37.7667 35.3583 37.88 35.1383 37.96C34.9183 38.04 34.69 38.08 34.4533 38.08ZM39.5814 33.795C39.5547 33.8383 39.5264 33.87 39.4964 33.89C39.4664 33.9067 39.428 33.915 39.3814 33.915C39.328 33.915 39.268 33.8967 39.2014 33.86C39.138 33.8233 39.0597 33.7833 38.9664 33.74C38.8764 33.6967 38.7697 33.6567 38.6464 33.62C38.523 33.5833 38.3764 33.565 38.2064 33.565C38.0664 33.565 37.938 33.5833 37.8214 33.62C37.708 33.6533 37.6114 33.7017 37.5314 33.765C37.4514 33.825 37.3897 33.8983 37.3464 33.985C37.303 34.0683 37.2814 34.1583 37.2814 34.255C37.2814 34.3817 37.318 34.4867 37.3914 34.57C37.468 34.6533 37.5664 34.725 37.6864 34.785C37.8097 34.845 37.948 34.9 38.1014 34.95C38.258 34.9967 38.4164 35.0467 38.5764 35.1C38.7397 35.1533 38.898 35.215 39.0514 35.285C39.208 35.3517 39.3464 35.4367 39.4664 35.54C39.5897 35.64 39.688 35.7617 39.7614 35.905C39.838 36.0483 39.8764 36.2233 39.8764 36.43C39.8764 36.6667 39.833 36.8867 39.7464 37.09C39.663 37.29 39.538 37.4633 39.3714 37.61C39.208 37.7567 39.0047 37.8717 38.7614 37.955C38.518 38.0383 38.2397 38.08 37.9264 38.08C37.5764 38.08 37.253 38.0217 36.9564 37.905C36.6597 37.7883 36.4114 37.64 36.2114 37.46L36.4414 37.085C36.468 37.0383 36.5014 37.0033 36.5414 36.98C36.5814 36.9533 36.6347 36.94 36.7014 36.94C36.7647 36.94 36.8297 36.9633 36.8964 37.01C36.963 37.0567 37.043 37.1083 37.1364 37.165C37.2297 37.2183 37.343 37.2683 37.4764 37.315C37.6097 37.3583 37.7764 37.38 37.9764 37.38C38.143 37.38 38.288 37.36 38.4114 37.32C38.5347 37.2767 38.6364 37.22 38.7164 37.15C38.7997 37.0767 38.8614 36.9933 38.9014 36.9C38.9414 36.8067 38.9614 36.7083 38.9614 36.605C38.9614 36.4717 38.923 36.3617 38.8464 36.275C38.773 36.185 38.6747 36.1083 38.5514 36.045C38.4314 35.9817 38.293 35.9267 38.1364 35.88C37.9797 35.8333 37.8197 35.7833 37.6564 35.73C37.493 35.6767 37.333 35.615 37.1764 35.545C37.0197 35.475 36.8797 35.3867 36.7564 35.28C36.6364 35.1733 36.538 35.0433 36.4614 34.89C36.388 34.7367 36.3514 34.55 36.3514 34.33C36.3514 34.1333 36.3914 33.945 36.4714 33.765C36.5547 33.585 36.673 33.4267 36.8264 33.29C36.983 33.1533 37.1747 33.045 37.4014 32.965C37.6314 32.8817 37.893 32.84 38.1864 32.84C38.523 32.84 38.8264 32.8933 39.0964 33C39.3697 33.1067 39.603 33.2533 39.7964 33.44L39.5814 33.795Z" fill="#6F6F6F"/>
</svg>
