<svg width="21" height="24" viewBox="0 0 21 24" fill="none" xmlns="http://www.w3.org/2000/svg">
<path d="M14.8672 0C14.9231 0 14.979 0 15.038 0C15.175 1.69253 14.529 2.95719 13.7438 3.87301C12.9734 4.78251 11.9185 5.6646 10.2123 5.53076C10.0984 3.86247 10.7455 2.69161 11.5296 1.77789C12.2568 0.92636 13.5899 0.168621 14.8672 0Z" fill="black"/>
<path d="M20.0331 17.6169C20.0331 17.6337 20.0331 17.6485 20.0331 17.6643C19.5536 19.1165 18.8696 20.3612 18.035 21.5162C17.273 22.5648 16.3393 23.976 14.672 23.976C13.2314 23.976 12.2745 23.0496 10.798 23.0243C9.23613 22.999 8.37722 23.7989 6.94921 24.0002C6.78586 24.0002 6.62251 24.0002 6.46232 24.0002C5.41371 23.8485 4.56744 23.018 3.95092 22.2698C2.13298 20.0587 0.728159 17.2027 0.466797 13.5478C0.466797 13.1895 0.466797 12.8323 0.466797 12.4739C0.577454 9.85821 1.84843 7.73148 3.5378 6.70079C4.42938 6.15277 5.65505 5.6859 7.01982 5.89457C7.60472 5.9852 8.20227 6.18544 8.72605 6.38357C9.22243 6.57432 9.84316 6.91262 10.4312 6.8947C10.8296 6.88311 11.2259 6.67549 11.6274 6.529C12.8035 6.10429 13.9565 5.6174 15.4762 5.84609C17.3025 6.12221 18.5988 6.93369 19.3997 8.1857C17.8548 9.16897 16.6333 10.6507 16.842 13.1811C17.0275 15.4796 18.3638 16.8244 20.0331 17.6169Z" fill="black"/>
</svg>
