<svg width="24" height="25" viewBox="0 0 24 25" fill="none" xmlns="http://www.w3.org/2000/svg">
<rect y="0.5" width="24" height="24" rx="12" fill="#EA8913" fill-opacity="0.14"/>
<g clip-path="url(#clip0_2225_4404)">
<path d="M8.62109 10.7773H9.44141V11.5977H8.62109V10.7773Z" fill="#EA8913"/>
<path d="M10.3398 10.7773H11.1602V11.5977H10.3398V10.7773Z" fill="#EA8913"/>
<path d="M8.62109 9.05859H9.44141V9.87891H8.62109V9.05859Z" fill="#EA8913"/>
<path d="M10.3398 9.05859H11.1602V9.87891H10.3398V9.05859Z" fill="#EA8913"/>
<path d="M18.0948 17.5685V13.6496L18.5084 13.9586L18.9993 13.3014L14.9052 10.2432L13.5068 11.2877V9.33539L14.0178 9.71708L14.5087 9.05988L9.89076 5.61035L5.27284 9.05985L5.76374 9.71705L6.27474 9.33536V14.9588C5.87186 15.2879 5.6358 15.8426 5.70839 16.3894C5.46884 16.7195 5.41133 17.1888 5.56057 17.5685H5V18.3889H19V17.5685H18.0948ZM6.74789 17.5685C6.34777 17.5693 6.1465 17.0756 6.43421 16.7975L6.60653 16.6294L6.54375 16.3969C6.40462 15.9087 6.7926 15.3998 7.30103 15.407C7.5498 15.407 7.77854 15.5212 7.92849 15.7205L8.08391 15.9271C8.14934 15.9162 8.36087 15.8642 8.42415 15.8673C8.65859 15.8673 8.85364 16.058 8.85889 16.2924L8.866 16.6087L9.17378 16.6821C9.68729 16.8154 9.59911 17.5573 9.06883 17.5686L6.74789 17.5685ZM10.2562 17.5685C10.4931 16.9781 10.2046 16.25 9.63865 15.9837C9.50598 15.4461 8.98316 15.0388 8.42658 15.047C8.08353 14.7038 7.58308 14.5347 7.09502 14.6003V8.72262L9.89076 6.63424L12.6865 8.72262V11.9005L10.8111 13.3014L11.302 13.9586L11.7156 13.6496V17.5685H10.2562ZM14.4558 17.5685V15.8887H15.3547V17.5685H14.4558ZM16.175 17.5685V15.0684H13.6355V17.5685H12.5359V13.0369L14.9052 11.2671L17.2745 13.0369V17.5685H16.175Z" fill="#EA8913"/>
</g>
<defs>
<clipPath id="clip0_2225_4404">
<rect width="14" height="14" fill="white" transform="translate(5 5)"/>
</clipPath>
</defs>
</svg>
