<svg width="22" height="18" viewBox="0 0 22 18" fill="none" xmlns="http://www.w3.org/2000/svg">
<path d="M20.7047 15.1762C20.7047 15.6443 20.5188 16.0931 20.1879 16.4241C19.8569 16.755 19.4081 16.9409 18.94 16.9409H3.05767C2.58965 16.9409 2.14079 16.755 1.80984 16.4241C1.47889 16.0931 1.29297 15.6443 1.29297 15.1762V5.47036C1.29297 5.00233 1.47889 4.55347 1.80984 4.22252C2.14079 3.89158 2.58965 3.70565 3.05767 3.70565H6.58709L8.35179 1.05859H13.6459L15.4106 3.70565H18.94C19.4081 3.70565 19.8569 3.89158 20.1879 4.22252C20.5188 4.55347 20.7047 5.00233 20.7047 5.47036V15.1762Z" stroke="#212121" stroke-opacity="0.5" stroke-linecap="round" stroke-linejoin="round"/>
<path d="M10.9989 13.4115C12.9481 13.4115 14.5283 11.8314 14.5283 9.88212C14.5283 7.93288 12.9481 6.35271 10.9989 6.35271C9.04961 6.35271 7.46944 7.93288 7.46944 9.88212C7.46944 11.8314 9.04961 13.4115 10.9989 13.4115Z" stroke="#212121" stroke-opacity="0.5" stroke-linecap="round" stroke-linejoin="round"/>
</svg>
