<svg width="151" height="151" viewBox="0 0 151 151" fill="none" xmlns="http://www.w3.org/2000/svg">
<g filter="url(#filter0_f_2101_5951)">
<circle cx="75.5" cy="75.5" r="62.5" fill="#EA8913" fill-opacity="0.15"/>
</g>
<g clip-path="url(#clip0_2101_5951)">
<path d="M76 133C107.48 133 133 107.48 133 76C133 44.5198 107.48 19 76 19C44.5198 19 19 44.5198 19 76C19 107.48 44.5198 133 76 133Z" fill="#EA8913"/>
<path fill-rule="evenodd" clip-rule="evenodd" d="M65.7352 58.6113C66.5145 57.3199 67.5387 54.9375 65.8465 53.223L57.7418 45.1184C57.0293 44.4059 56.0719 44.0273 55.1145 44.0273C54.157 44.0273 53.2219 44.3836 52.4871 45.1184L47.7891 49.8164L62.284 64.3113C63.3527 62.441 64.6219 60.5039 65.7352 58.6113Z" fill="#FFFFFE"/>
<path fill-rule="evenodd" clip-rule="evenodd" d="M82.2563 89.4488C76.1332 85.2629 66.7371 75.8891 62.5512 69.7437C61.7273 68.5414 61.4602 67.1609 61.7273 65.8473L46.7648 50.8848L46.2305 51.4191C44.0039 53.5789 43.4695 56.941 44.6273 61.3941C46.6312 68.9867 53.5559 79.2734 63.1523 88.8699C72.7488 98.4664 83.0133 105.391 90.6504 107.395C95.1035 108.575 98.4656 108.041 100.603 105.814C100.625 105.77 101.071 105.346 101.138 105.28L86.175 90.3172C84.8168 90.5176 83.4586 90.2504 82.2563 89.4488Z" fill="#FFFFFE"/>
<path fill-rule="evenodd" clip-rule="evenodd" d="M106.861 94.2593L98.7559 86.1546C97.0637 84.4624 94.659 85.4866 93.3676 86.2659C91.475 87.4015 89.5379 88.6483 87.623 89.6948L102.118 104.19L106.816 99.4917C107.506 98.8015 107.885 97.8663 107.885 96.8643C107.952 95.8624 107.573 94.9272 106.861 94.2593Z" fill="#FFFFFE"/>
<path fill-rule="evenodd" clip-rule="evenodd" d="M90.2945 67.0051C90.1609 67.1164 90.0051 67.1609 89.8492 67.1609C89.6934 67.1609 89.5375 67.1164 89.4039 67.0051L87.2441 65.3574L75.5547 74.2637H104.121L92.432 65.3574L90.2945 67.0051Z" fill="#FFFFFE"/>
<path fill-rule="evenodd" clip-rule="evenodd" d="M86.0629 64.4453L74.084 55.3164V73.5297L86.0629 64.4453Z" fill="#FFFFFE"/>
<path fill-rule="evenodd" clip-rule="evenodd" d="M104.165 54.6035H75.5762L89.8484 65.4914L104.165 54.6035Z" fill="#FFFFFE"/>
<path fill-rule="evenodd" clip-rule="evenodd" d="M105.612 55.3164L93.6777 64.4453L105.612 73.5297V55.3164Z" fill="#FFFFFE"/>
</g>
<defs>
<filter id="filter0_f_2101_5951" x="0.7" y="0.7" width="149.6" height="149.6" filterUnits="userSpaceOnUse" color-interpolation-filters="sRGB">
<feFlood flood-opacity="0" result="BackgroundImageFix"/>
<feBlend mode="normal" in="SourceGraphic" in2="BackgroundImageFix" result="shape"/>
<feGaussianBlur stdDeviation="6.15" result="effect1_foregroundBlur_2101_5951"/>
</filter>
<clipPath id="clip0_2101_5951">
<rect width="114" height="114" fill="white" transform="translate(19 19)"/>
</clipPath>
</defs>
</svg>
