<svg width="24" height="25" viewBox="0 0 24 25" fill="none" xmlns="http://www.w3.org/2000/svg">
<rect y="0.5" width="24" height="24" rx="12" fill="#EA8913" fill-opacity="0.14"/>
<path d="M12.0019 13.5H11.9319C10.7919 13.35 9.42188 12.82 9.42188 11.12C9.42188 10.1 10.1019 9 11.9919 9C13.8819 9 14.5019 10.36 14.5619 11.08C14.5819 11.36 14.3819 11.6 14.1019 11.62C13.9713 11.6286 13.8425 11.5866 13.742 11.5029C13.6415 11.4191 13.577 11.3 13.5619 11.17C13.5419 10.98 13.3719 10.01 11.9819 10.01C10.9419 10.01 10.4119 10.39 10.4119 11.13C10.4119 11.51 10.4119 12.31 12.0519 12.52C12.1765 12.5393 12.2893 12.6048 12.3679 12.7033C12.4466 12.8019 12.4853 12.9264 12.4765 13.0522C12.4677 13.178 12.412 13.2958 12.3204 13.3825C12.2288 13.4691 12.108 13.5182 11.9819 13.52L12.0019 13.5Z" fill="#EA8913"/>
<path d="M12.0011 17.0005C10.1011 17.0005 9.49106 15.6405 9.43106 14.9205C9.41106 14.6405 9.61106 14.4005 9.89106 14.3805C10.1611 14.3605 10.4011 14.5605 10.4311 14.8305C10.4511 15.0205 10.6211 15.9905 12.0111 15.9905C13.0511 15.9905 13.5811 15.6105 13.5811 14.8705C13.5811 14.4905 13.5811 13.6905 11.9411 13.4805C11.8102 13.4623 11.6918 13.3934 11.6113 13.2886C11.5308 13.1838 11.4948 13.0516 11.5111 12.9205C11.5511 12.6505 11.8011 12.4505 12.0711 12.4905C13.2111 12.6405 14.5811 13.1705 14.5811 14.8705C14.5811 15.8905 13.9011 16.9905 12.0111 16.9905L12.0011 17.0005Z" fill="#EA8913"/>
<path d="M12 20C8.14 20 5 16.86 5 13C5 9.14 8.14 6 12 6C15.86 6 19 9.14 19 13C19 16.86 15.86 20 12 20ZM12 7C8.69 7 6 9.69 6 13C6 16.31 8.69 19 12 19C15.31 19 18 16.31 18 13C18 9.69 15.31 7 12 7Z" fill="#EA8913"/>
<path d="M12 18C11.72 18 11.5 17.78 11.5 17.5V8.5C11.5 8.22 11.72 8 12 8C12.28 8 12.5 8.22 12.5 8.5V17.5C12.5 17.78 12.28 18 12 18Z" fill="#EA8913"/>
</svg>
