<svg width="17" height="17" viewBox="0 0 17 17" fill="none" xmlns="http://www.w3.org/2000/svg">
<path d="M5.5 10C5.5 10 6.625 11.5 8.5 11.5C10.375 11.5 11.5 10 11.5 10M10.75 6.25H10.7575M6.25 6.25H6.2575M16 8.5C16 12.6421 12.6421 16 8.5 16C4.35786 16 1 12.6421 1 8.5C1 4.35786 4.35786 1 8.5 1C12.6421 1 16 4.35786 16 8.5ZM11.125 6.25C11.125 6.45711 10.9571 6.625 10.75 6.625C10.5429 6.625 10.375 6.45711 10.375 6.25C10.375 6.04289 10.5429 5.875 10.75 5.875C10.9571 5.875 11.125 6.04289 11.125 6.25ZM6.625 6.25C6.625 6.45711 6.45711 6.625 6.25 6.625C6.04289 6.625 5.875 6.45711 5.875 6.25C5.875 6.04289 6.04289 5.875 6.25 5.875C6.45711 5.875 6.625 6.04289 6.625 6.25Z" stroke="#7E8582" stroke-linecap="round" stroke-linejoin="round"/>
</svg>
