<svg width="22" height="22" viewBox="0 0 22 22" fill="none" xmlns="http://www.w3.org/2000/svg">
<path d="M8.35225 19.8228H13.6464C18.0581 19.8228 19.8228 18.0581 19.8228 13.6464V8.35225C19.8228 3.94049 18.0581 2.17578 13.6464 2.17578H8.35225C3.94049 2.17578 2.17578 3.94049 2.17578 8.35225V13.6464C2.17578 18.0581 3.94049 19.8228 8.35225 19.8228Z" stroke="#212121" stroke-opacity="0.5" stroke-linecap="round" stroke-linejoin="round"/>
<path d="M8.35064 9.23254C9.32526 9.23254 10.1153 8.44245 10.1153 7.46783C10.1153 6.49321 9.32526 5.70312 8.35064 5.70312C7.37602 5.70312 6.58594 6.49321 6.58594 7.46783C6.58594 8.44245 7.37602 9.23254 8.35064 9.23254Z" stroke="#212121" stroke-opacity="0.5" stroke-linecap="round" stroke-linejoin="round"/>
<path d="M2.76562 17.1307L7.11562 14.2101C7.81268 13.7424 8.81857 13.7954 9.44504 14.3336L9.73621 14.5895C10.4244 15.1807 11.5362 15.1807 12.2244 14.5895L15.895 11.4395C16.5833 10.8483 17.695 10.8483 18.3833 11.4395L19.8215 12.6748" stroke="#212121" stroke-opacity="0.5" stroke-linecap="round" stroke-linejoin="round"/>
</svg>
