<svg width="25" height="24" viewBox="0 0 25 24" fill="none" xmlns="http://www.w3.org/2000/svg">
<g clip-path="url(#clip0_2003_16408)">
<path d="M6.06891 14.5036L5.2335 17.6223L2.18011 17.6869C1.26759 15.9944 0.75 14.0579 0.75 12.0001C0.75 10.0102 1.23394 8.13374 2.09175 6.48145H2.09241L4.81078 6.97982L6.00159 9.68188C5.75236 10.4085 5.61652 11.1885 5.61652 12.0001C5.61661 12.881 5.77617 13.725 6.06891 14.5036Z" fill="#FBBB00"/>
<path d="M24.5402 9.7583C24.678 10.4842 24.7499 11.2339 24.7499 12.0001C24.7499 12.8592 24.6595 13.6972 24.4875 14.5056C23.9033 17.2563 22.3769 19.6583 20.2624 21.3581L20.2618 21.3574L16.8378 21.1827L16.3532 18.1576C17.7563 17.3348 18.8528 16.0471 19.4304 14.5056H13.0137V9.7583H19.524H24.5402Z" fill="#518EF8"/>
<path d="M20.2614 21.3572L20.2621 21.3579C18.2056 23.0109 15.5933 23.9999 12.7496 23.9999C8.17969 23.9999 4.20652 21.4456 2.17969 17.6867L6.06848 14.5034C7.08188 17.208 9.69089 19.1333 12.7496 19.1333C14.0643 19.1333 15.296 18.7779 16.3529 18.1575L20.2614 21.3572Z" fill="#28B446"/>
<path d="M20.4096 2.76262L16.5221 5.94525C15.4283 5.26153 14.1353 4.86656 12.75 4.86656C9.62213 4.86656 6.96431 6.88017 6.00169 9.68175L2.09245 6.48131H2.0918C4.08895 2.63077 8.11224 0 12.75 0C15.6617 0 18.3314 1.03716 20.4096 2.76262Z" fill="#F14336"/>
</g>
<defs>
<clipPath id="clip0_2003_16408">
<rect width="24" height="24" fill="white" transform="translate(0.75)"/>
</clipPath>
</defs>
</svg>
