<svg width="362" height="17" viewBox="0 0 362 17" fill="none" xmlns="http://www.w3.org/2000/svg">
<line x1="0.00525271" y1="7.49366" x2="153.502" y2="8.50664" stroke="url(#paint0_linear_2003_16402)" stroke-dasharray="4 4"/>
<path d="M181.1 9.272C181.1 12.744 178.844 15.192 175.644 15.192C172.428 15.192 170.188 12.744 170.188 9.272C170.188 5.8 172.444 3.336 175.644 3.336C178.86 3.336 181.1 5.784 181.1 9.272ZM179.916 9.272C179.916 6.408 178.172 4.456 175.644 4.456C173.116 4.456 171.388 6.408 171.388 9.272C171.388 12.136 173.116 14.088 175.644 14.088C178.172 14.088 179.916 12.12 179.916 9.272ZM183.841 15H182.689V3.544H186.961C189.281 3.544 190.689 4.824 190.689 6.856C190.689 8.504 189.825 9.656 188.353 10.056L190.801 15H189.521L187.185 10.248H183.841V15ZM183.841 4.584V9.208H186.993C188.577 9.208 189.505 8.344 189.505 6.888C189.505 5.4 188.529 4.584 186.961 4.584H183.841Z" fill="#303744"/>
<line x1="208.505" y1="7.49366" x2="362.002" y2="8.50664" stroke="url(#paint1_linear_2003_16402)" stroke-dasharray="4 4"/>
<defs>
<linearGradient id="paint0_linear_2003_16402" x1="153.495" y1="9.50662" x2="-0.00134647" y2="8.49364" gradientUnits="userSpaceOnUse">
<stop stop-color="#040F25"/>
<stop offset="1" stop-color="#666666" stop-opacity="0"/>
</linearGradient>
<linearGradient id="paint1_linear_2003_16402" x1="208.499" y1="8.49364" x2="361.995" y2="9.50661" gradientUnits="userSpaceOnUse">
<stop stop-color="#040F25"/>
<stop offset="1" stop-color="#666666" stop-opacity="0"/>
</linearGradient>
</defs>
</svg>
