<svg width="80" height="80" viewBox="0 0 80 80" fill="none" xmlns="http://www.w3.org/2000/svg">
<path d="M40.0006 73.2288C58.2767 73.2288 73.2298 58.2757 73.2298 39.9997C73.2298 21.7236 58.2767 6.77051 40.0006 6.77051C21.7246 6.77051 6.77148 21.7236 6.77148 39.9997C6.77148 58.2757 21.7246 73.2288 40.0006 73.2288Z" fill="#FFDFDF"/>
<path d="M44.7617 33.3951C44.3355 28.4451 41.7917 26.4238 36.223 26.4238H36.0442C29.898 26.4238 27.4367 28.8851 27.4367 35.0313V43.9963C27.4367 50.1426 29.898 52.6038 36.0442 52.6038H36.223C41.7505 52.6038 44.2942 50.6101 44.748 45.7426" stroke="#F75454" stroke-width="2" stroke-linecap="round" stroke-linejoin="round"/>
<path d="M36.3759 39.5H52.0234" stroke="#F75454" stroke-width="2" stroke-linecap="round" stroke-linejoin="round"/>
<path d="M48.9563 34.8936L53.5625 39.4998L48.9563 44.1061" stroke="#F75454" stroke-width="2" stroke-linecap="round" stroke-linejoin="round"/>
</svg>
