<svg width="38" height="38" viewBox="0 0 38 38" fill="none" xmlns="http://www.w3.org/2000/svg">
<g filter="url(#filter0_d_2731_20584)">
<rect x="4" width="30" height="30" rx="4" fill="white"/>
</g>
<path d="M19 22.5C23.1421 22.5 26.5 19.1421 26.5 15C26.5 10.8579 23.1421 7.5 19 7.5C14.8579 7.5 11.5 10.8579 11.5 15C11.5 19.1421 14.8579 22.5 19 22.5Z" stroke="#EA8913" stroke-width="1.5" stroke-linecap="round" stroke-linejoin="round"/>
<path d="M19 18C20.6569 18 22 16.6569 22 15C22 13.3431 20.6569 12 19 12C17.3431 12 16 13.3431 16 15C16 16.6569 17.3431 18 19 18Z" stroke="#EA8913" stroke-width="1.5" stroke-linecap="round" stroke-linejoin="round"/>
<path d="M19 7V5" stroke="#EA8913" stroke-width="1.5" stroke-linecap="round" stroke-linejoin="round"/>
<path d="M11 15H9" stroke="#EA8913" stroke-width="1.5" stroke-linecap="round" stroke-linejoin="round"/>
<path d="M19 23V25" stroke="#EA8913" stroke-width="1.5" stroke-linecap="round" stroke-linejoin="round"/>
<path d="M27 15H29" stroke="#EA8913" stroke-width="1.5" stroke-linecap="round" stroke-linejoin="round"/>
<defs>
<filter id="filter0_d_2731_20584" x="0" y="0" width="38" height="38" filterUnits="userSpaceOnUse" color-interpolation-filters="sRGB">
<feFlood flood-opacity="0" result="BackgroundImageFix"/>
<feColorMatrix in="SourceAlpha" type="matrix" values="0 0 0 0 0 0 0 0 0 0 0 0 0 0 0 0 0 0 127 0" result="hardAlpha"/>
<feOffset dy="4"/>
<feGaussianBlur stdDeviation="2"/>
<feComposite in2="hardAlpha" operator="out"/>
<feColorMatrix type="matrix" values="0 0 0 0 0 0 0 0 0 0 0 0 0 0 0 0 0 0 0.25 0"/>
<feBlend mode="normal" in2="BackgroundImageFix" result="effect1_dropShadow_2731_20584"/>
<feBlend mode="normal" in="SourceGraphic" in2="effect1_dropShadow_2731_20584" result="shape"/>
</filter>
</defs>
</svg>
