<svg width="20" height="20" viewBox="0 0 20 20" fill="none" xmlns="http://www.w3.org/2000/svg">
<path d="M14.168 1.66699H5.83464C3.53464 1.66699 1.66797 3.52533 1.66797 5.81699V10.8003V11.6337C1.66797 13.9253 3.53464 15.7837 5.83464 15.7837H7.08464C7.30964 15.7837 7.60964 15.9337 7.7513 16.117L9.0013 17.7753C9.5513 18.5087 10.4513 18.5087 11.0013 17.7753L12.2513 16.117C12.4096 15.9087 12.6596 15.7837 12.918 15.7837H14.168C16.468 15.7837 18.3346 13.9253 18.3346 11.6337V5.81699C18.3346 3.52533 16.468 1.66699 14.168 1.66699ZM10.8346 11.4587H5.83464C5.49297 11.4587 5.20964 11.1753 5.20964 10.8337C5.20964 10.492 5.49297 10.2087 5.83464 10.2087H10.8346C11.1763 10.2087 11.4596 10.492 11.4596 10.8337C11.4596 11.1753 11.1763 11.4587 10.8346 11.4587ZM14.168 7.29199H5.83464C5.49297 7.29199 5.20964 7.00866 5.20964 6.66699C5.20964 6.32533 5.49297 6.04199 5.83464 6.04199H14.168C14.5096 6.04199 14.793 6.32533 14.793 6.66699C14.793 7.00866 14.5096 7.29199 14.168 7.29199Z" fill="#EA8913"/>
</svg>
