<svg width="100" height="100" viewBox="0 0 100 100" fill="none" xmlns="http://www.w3.org/2000/svg">
<rect width="100" height="100" rx="50" fill="#C1CADC"/>
<path d="M49.9994 19.7461C46.8464 19.7461 43.8225 20.9986 41.5929 23.2282C39.3634 25.4577 38.1108 28.4816 38.1108 31.6347C38.1108 34.7877 39.3634 37.8116 41.5929 40.0412C43.8225 42.2707 46.8464 43.5233 49.9994 43.5233C53.1525 43.5233 56.1764 42.2707 58.4059 40.0412C60.6355 37.8116 61.888 34.7877 61.888 31.6347C61.888 28.4816 60.6355 25.4577 58.4059 23.2282C56.1764 20.9986 53.1525 19.7461 49.9994 19.7461ZM37.3183 49.8638C34.1652 49.8638 31.1413 51.1164 28.9118 53.3459C26.6822 55.5755 25.4297 58.5994 25.4297 61.7524V65.5187C25.4297 67.9091 27.1607 69.9445 29.5194 70.3281C43.0819 72.5441 56.917 72.5441 70.4795 70.3281C71.6211 70.1422 72.6593 69.5564 73.4085 68.6753C74.1578 67.7942 74.5692 66.6753 74.5692 65.5187V61.7524C74.5692 58.5994 73.3166 55.5755 71.0871 53.3459C68.8576 51.1164 65.8336 49.8638 62.6806 49.8638H61.6027C61.0162 49.8638 60.4329 49.959 59.8781 50.1365L57.1326 51.0337C52.4975 52.5466 47.5014 52.5466 42.8663 51.0337L40.1208 50.1365C39.5649 49.9556 38.9839 49.8636 38.3993 49.8638H37.3183Z" fill="white"/>
</svg>
