<svg width="120" height="121" viewBox="0 0 120 121" fill="none" xmlns="http://www.w3.org/2000/svg">
<rect y="0.75" width="120" height="120" rx="60" fill="#F1F1F1"/>
<path d="M60 34C52.149 34 45.7617 40.3873 45.7617 48.2383C45.7617 56.0893 52.149 62.4766 60 62.4766C67.851 62.4766 74.2383 56.0893 74.2383 48.2383C74.2383 40.3873 67.851 34 60 34Z" fill="white"/>
<path d="M77.7152 71.7784C73.817 67.8203 68.6494 65.6406 63.1641 65.6406H56.8359C51.3507 65.6406 46.183 67.8203 42.2848 71.7784C38.4058 75.717 36.2695 80.916 36.2695 86.418C36.2695 87.2917 36.9779 88 37.8516 88H82.1484C83.0221 88 83.7305 87.2917 83.7305 86.418C83.7305 80.916 81.5942 75.717 77.7152 71.7784Z" fill="white"/>
</svg>
