<svg width="74" height="73" viewBox="0 0 74 73" fill="none" xmlns="http://www.w3.org/2000/svg">
<circle opacity="0.04" cx="37" cy="36.5" r="36.5" fill="#FF3B30"/>
<circle opacity="0.04" cx="37" cy="36.5" r="30.5" fill="#FF3B30"/>
<path d="M36.7927 22.75C36.155 22.8226 35.4119 22.86 34.6878 22.9986C32.9911 23.3226 31.4745 24.0441 30.2267 25.2573C29.0301 26.4201 28.9729 28.2872 30.0618 29.5254C30.9462 30.531 32.2591 30.5278 33.6575 29.5161C33.7535 29.4463 33.8514 29.3789 33.9461 29.3072C34.9898 28.5151 36.1859 28.205 37.4642 28.3325C38.5185 28.4379 39.4218 28.8908 39.7987 29.9806C40.1626 31.0325 39.6537 31.8265 38.9138 32.4985C38.5425 32.8359 38.1149 33.1122 37.7104 33.4131C35.2803 35.2188 34.2251 38.0588 34.9723 40.7837C35.3279 42.0801 35.9319 42.7604 36.7262 42.7595C37.503 42.7586 38.095 42.149 38.4409 40.8595C38.8002 39.5211 39.4879 38.4004 40.545 37.5282C41.3905 36.8308 42.3156 36.2309 43.1676 35.5414C45.8313 33.3854 46.4788 30.0499 44.7872 27.0805C43.0498 24.0316 40.2235 22.9395 36.7927 22.75Z" fill="#FF3B30"/>
<path d="M37.2358 44.9063C35.2731 44.9095 34.0271 46.1162 34.0313 48.0102C34.0354 49.8824 35.3691 51.2523 37.1817 51.2458C39.084 51.2393 40.4505 49.8856 40.4412 48.0176C40.4324 46.1162 39.1823 44.903 37.2358 44.9063Z" fill="#FF3B30"/>
</svg>
