<svg width="24" height="24" viewBox="0 0 24 24" fill="none" xmlns="http://www.w3.org/2000/svg">
<g clip-path="url(#clip0_2047_8772)">
<path d="M12.7091 5.69031C9.40522 5.86132 6.31623 7.23667 3.94627 9.60668C1.40904 12.1439 0.0117188 15.5055 0.0117188 19.0723V24L1.79676 19.8851C3.88171 15.7306 8.1098 12.9761 12.7091 12.7198V18.3986L23.9884 9.18537L12.7091 0V5.69031ZM14.1147 7.07774V2.95742L21.7644 9.18701L14.1147 15.4355V11.2946H13.4119C10.747 11.2946 8.12999 12.0439 5.84399 13.4615C4.11284 14.5351 2.63788 15.9505 1.50565 17.613C2.22758 11.6846 7.29178 7.07774 13.4119 7.07774H14.1147Z" fill="black"/>
</g>
<defs>
<clipPath id="clip0_2047_8772">
<rect width="24" height="24" fill="white"/>
</clipPath>
</defs>
</svg>
