<svg width="40" height="40" viewBox="0 0 40 40" fill="none" xmlns="http://www.w3.org/2000/svg">
<path d="M12.7919 34.3337C12.3197 34.7225 11.8266 34.7364 11.3127 34.3753C10.7989 34.0142 10.6391 33.542 10.8336 32.9587L13.5836 24.0003L6.50024 18.917C6.00024 18.5559 5.84052 18.0906 6.02107 17.5212C6.20163 16.9517 6.59746 16.667 7.20857 16.667H16.0002L18.7919 7.33366C18.8752 7.0281 19.035 6.79894 19.2711 6.64616C19.5072 6.49338 19.7502 6.41699 20.0002 6.41699C20.2502 6.41699 20.4933 6.49338 20.7294 6.64616C20.9655 6.79894 21.1252 7.0281 21.2086 7.33366L24.0002 16.667H32.7919C33.403 16.667 33.7989 16.9517 33.9794 17.5212C34.16 18.0906 34.0002 18.5559 33.5002 18.917L26.4169 24.0003L29.1669 32.9587C29.3614 33.542 29.2016 34.0142 28.6877 34.3753C28.1739 34.7364 27.6808 34.7225 27.2086 34.3337L20.0002 28.8337L12.7919 34.3337Z" fill="#E2E2E2"/>
</svg>
