<svg width="44" height="44" viewBox="0 0 44 44" fill="none" xmlns="http://www.w3.org/2000/svg">
<g clip-path="url(#clip0_2039_7643)">
<path d="M33.1405 18.6415L32.691 15.6361C32.4681 14.1466 30.6966 13.4803 29.5475 14.4537L27.8385 15.9013C27.1317 16.5001 26.0503 16.2753 25.6406 15.4445L22.9186 9.92519C22.5427 9.16296 21.4559 9.16296 21.0799 9.92519L18.3579 15.4445C17.9482 16.2753 16.8668 16.5001 16.16 15.9013L14.4511 14.4537C13.3018 13.4803 11.5303 14.1466 11.3076 15.6361L10.858 18.6415C10.7172 19.5828 9.71036 20.1239 8.8477 19.7217L5.15446 18.0004C3.46684 17.2138 1.75628 19.0418 2.6531 20.6736L8.86374 31.9741H35.135L41.3457 20.6736C42.2425 19.0419 40.5319 17.2138 38.8443 18.0004L35.1508 19.7217C34.2882 20.1239 33.2813 19.5828 33.1405 18.6415Z" fill="url(#paint0_linear_2039_7643)"/>
<path d="M32.1774 19.8526L31.7668 17.1202C31.5632 15.7659 29.9451 15.1601 28.8954 16.0452L27.3343 17.3613C26.6886 17.9057 25.7009 17.7013 25.3266 16.946L22.8403 11.928C22.4969 11.2349 21.5041 11.2349 21.1607 11.928L18.6743 16.946C18.3001 17.7013 17.3123 17.9057 16.6666 17.3613L15.1057 16.0453C14.056 15.1603 12.4378 15.766 12.2343 17.1202L11.8236 19.8526C11.695 20.7085 10.7754 21.2003 9.98736 20.8348L6.61385 19.2698C5.0723 18.5546 3.50987 20.2166 4.32896 21.7001L10.0019 31.9741H33.9991L39.6721 21.7001C40.4913 20.2166 38.9287 18.5546 37.3872 19.2698L34.0137 20.8348C33.2257 21.2003 32.3061 20.7084 32.1774 19.8526Z" fill="url(#paint1_linear_2039_7643)"/>
<path d="M31.0023 21.3137L30.6391 18.9105C30.459 17.7195 29.0277 17.1867 28.0992 17.9651L26.7185 19.1226C26.1473 19.6014 25.2736 19.4216 24.9426 18.7573L22.7434 14.3439C22.4397 13.7343 21.5615 13.7343 21.2577 14.3439L19.0585 18.7573C18.7275 19.4217 17.8538 19.6014 17.2826 19.1226L15.9017 17.9651C14.9732 17.1867 13.5419 17.7194 13.3619 18.9105L12.9987 21.3137C12.8849 22.0665 12.0715 22.4991 11.3744 22.1775L8.39041 20.801C7.02684 20.1721 5.64481 21.6337 6.36934 22.9385L11.3873 31.9747H32.6136L37.6316 22.9385C38.3561 21.6337 36.9741 20.1721 35.6105 20.801L32.6266 22.1775C31.9295 22.4991 31.1161 22.0665 31.0023 21.3137Z" fill="url(#paint2_linear_2039_7643)"/>
<path d="M35.7562 33.8458H8.24273C7.11953 33.8458 6.20898 32.9353 6.20898 31.8121C6.20898 30.6889 7.11953 29.7783 8.24273 29.7783H35.7561C36.8793 29.7783 37.7899 30.6889 37.7899 31.8121C37.7899 32.9353 36.8793 33.8458 35.7562 33.8458Z" fill="url(#paint3_linear_2039_7643)"/>
<path d="M35.7562 37.9132H8.24273C7.11953 37.9132 6.20898 37.0027 6.20898 35.8795C6.20898 34.7562 7.11953 33.8457 8.24273 33.8457H35.7561C36.8793 33.8457 37.7899 34.7562 37.7899 35.8795C37.7899 37.0027 36.8793 37.9132 35.7562 37.9132Z" fill="url(#paint4_linear_2039_7643)"/>
<path d="M25.2674 9.30719C25.2931 11.1114 23.8512 12.5947 22.0467 12.6205C20.2422 12.6462 18.7585 11.2045 18.7328 9.40045C18.7071 7.59637 20.149 6.11296 21.9535 6.08725C23.758 6.06154 25.2416 7.5031 25.2674 9.30719Z" fill="url(#paint5_linear_2039_7643)"/>
<path d="M24.7274 9.31469C24.7489 10.8203 23.5454 12.0584 22.0394 12.0799C20.5334 12.1014 19.2952 10.8982 19.2737 9.39242C19.2522 7.88676 20.4557 6.64872 21.9617 6.62723C23.4677 6.60584 24.7059 7.80902 24.7274 9.31469Z" fill="url(#paint6_linear_2039_7643)"/>
<path d="M23.4193 6.41113C23.646 6.84768 23.7773 7.34221 23.7848 7.86745C23.8105 9.67153 22.3686 11.1549 20.5641 11.1807C20.0387 11.1882 19.5406 11.0711 19.0977 10.857C19.6494 11.9198 20.7671 12.6389 22.0461 12.6207C23.8505 12.595 25.2925 11.1116 25.2668 9.30745C25.2484 8.02878 24.4976 6.93223 23.4193 6.41113Z" fill="url(#paint7_linear_2039_7643)"/>
<path d="M15.9451 13.9761C15.9708 15.7803 14.5289 17.2636 12.7244 17.2894C10.92 17.3151 9.4362 15.8735 9.41049 14.0694C9.38478 12.2653 10.8267 10.7819 12.6312 10.7562C14.4356 10.7303 15.9193 12.172 15.9451 13.9761Z" fill="url(#paint8_linear_2039_7643)"/>
<path d="M15.4051 13.9836C15.4266 15.4893 14.2232 16.7273 12.7172 16.7488C11.2111 16.7703 9.97294 15.5671 9.95146 14.0614C9.92997 12.5557 11.1334 11.3177 12.6394 11.2962C14.1454 11.2747 15.3836 12.478 15.4051 13.9836Z" fill="url(#paint9_linear_2039_7643)"/>
<path d="M14.0971 11.0801C14.3237 11.5166 14.455 12.0112 14.4625 12.5364C14.4882 14.3405 13.0463 15.8239 11.2418 15.8497C10.7164 15.8572 10.2183 15.74 9.77539 15.526C10.3271 16.5888 11.4448 17.3079 12.7238 17.2897C14.5283 17.264 15.9702 15.7806 15.9445 13.9764C15.9262 12.6976 15.1754 11.6012 14.0971 11.0801Z" fill="url(#paint10_linear_2039_7643)"/>
<path d="M34.5916 13.9761C34.6173 15.7803 33.1754 17.2636 31.3709 17.2894C29.5664 17.3151 28.0827 15.8735 28.057 14.0694C28.0313 12.2653 29.4732 10.7819 31.2777 10.7562C33.0821 10.7303 34.5659 12.172 34.5916 13.9761Z" fill="url(#paint11_linear_2039_7643)"/>
<path d="M34.0516 13.9836C34.0731 15.4893 32.8696 16.7273 31.3636 16.7488C29.8576 16.7703 28.6194 15.5671 28.5979 14.0614C28.5765 12.5557 29.7799 11.3177 31.2859 11.2962C32.7918 11.2747 34.0301 12.478 34.0516 13.9836Z" fill="url(#paint12_linear_2039_7643)"/>
<path d="M32.7435 11.0801C32.9702 11.5166 33.1015 12.0112 33.109 12.5364C33.1347 14.3405 31.6928 15.8239 29.8883 15.8497C29.3629 15.8572 28.8648 15.74 28.4219 15.526C28.9736 16.5888 30.0913 17.3079 31.3703 17.2897C33.1747 17.264 34.6167 15.7806 34.591 13.9764C34.5726 12.6976 33.8218 11.6012 32.7435 11.0801Z" fill="url(#paint13_linear_2039_7643)"/>
<path d="M6.53494 19.0739C6.56065 20.8781 5.11875 22.3614 3.31423 22.3872C1.5098 22.4129 0.0260483 20.9712 0.000338536 19.1671C-0.0253713 17.3631 1.41653 15.8797 3.22105 15.8539C5.02557 15.8281 6.50923 17.2698 6.53494 19.0739Z" fill="url(#paint14_linear_2039_7643)"/>
<path d="M5.99497 19.0813C6.01645 20.587 4.81301 21.825 3.307 21.8465C1.80099 21.868 0.562781 20.6648 0.541299 19.159C0.519816 17.6534 1.72326 16.4153 3.22927 16.3938C4.73528 16.3724 5.97349 17.5756 5.99497 19.0813Z" fill="url(#paint15_linear_2039_7643)"/>
<path d="M4.6869 16.1777C4.91354 16.6143 5.04485 17.1088 5.05236 17.634C5.07807 19.4381 3.63616 20.9215 1.83164 20.9473C1.30623 20.9548 0.808168 20.8377 0.365234 20.6236C0.91696 21.6864 2.03465 22.4055 3.31367 22.3873C5.1181 22.3616 6.56009 20.8782 6.53438 19.0741C6.51609 17.7954 5.76524 16.6988 4.6869 16.1777Z" fill="url(#paint16_linear_2039_7643)"/>
<path d="M43.9998 19.0739C44.0255 20.8781 42.5836 22.3614 40.7791 22.3872C38.9746 22.4129 37.491 20.9712 37.4652 19.1671C37.4395 17.3631 38.8814 15.8797 40.6859 15.8539C42.4904 15.8281 43.9741 17.2698 43.9998 19.0739Z" fill="url(#paint17_linear_2039_7643)"/>
<path d="M43.4598 19.0813C43.4813 20.587 42.2779 21.825 40.7718 21.8465C39.2658 21.868 38.0276 20.6648 38.0061 19.159C37.9847 17.6534 39.1881 16.4153 40.6941 16.3938C42.2001 16.3724 43.4383 17.5756 43.4598 19.0813Z" fill="url(#paint18_linear_2039_7643)"/>
<path d="M42.1517 16.1777C42.3784 16.6143 42.5097 17.1088 42.5172 17.634C42.5429 19.4381 41.101 20.9215 39.2965 20.9473C38.7711 20.9548 38.273 20.8377 37.8301 20.6236C38.3818 21.6864 39.4995 22.4055 40.7785 22.3873C42.5829 22.3616 44.0249 20.8782 43.9992 19.0741C43.9809 17.7954 43.23 16.6988 42.1517 16.1777Z" fill="url(#paint19_linear_2039_7643)"/>
<path d="M21.3222 17.0278L17.5623 22.4619C17.3672 22.7439 17.3672 23.1172 17.5623 23.3992L21.3222 28.8333C21.6497 29.3066 22.3493 29.3066 22.6768 28.8333L26.4367 23.3992C26.6318 23.1173 26.6318 22.7439 26.4367 22.4619L22.6768 17.0278C22.3493 16.5545 21.6497 16.5545 21.3222 17.0278Z" fill="url(#paint20_linear_2039_7643)"/>
<path d="M21.4057 17.7601L18.1126 22.5196C17.9416 22.7666 17.9416 23.0935 18.1126 23.3405L21.4057 28.1C21.6925 28.5146 22.3053 28.5146 22.5921 28.1L25.8852 23.3405C26.0561 23.0936 26.0561 22.7666 25.8852 22.5196L22.5921 17.7601C22.3052 17.3456 21.6925 17.3456 21.4057 17.7601Z" fill="url(#paint21_linear_2039_7643)"/>
<path d="M22.9214 18.2354C22.6835 17.8915 22.1735 17.8462 21.906 18.1676C21.8921 18.1844 21.8787 18.2019 21.866 18.2203L18.8016 22.6493C18.4932 23.0951 18.4932 23.6854 18.8016 24.1313L21.7253 28.3568C22.0238 28.479 22.39 28.3944 22.5931 28.1009L25.8862 23.3413C26.0571 23.0943 26.0571 22.7674 25.8862 22.5204L22.9214 18.2354Z" fill="url(#paint22_linear_2039_7643)"/>
<path d="M22.5918 17.7606C22.4283 17.5242 22.1589 17.4232 21.9043 17.4563V28.4048C22.1589 28.438 22.4283 28.3368 22.5918 28.1005L25.8849 23.341C26.0557 23.0941 26.0557 22.7671 25.8849 22.5201L22.5918 17.7606Z" fill="url(#paint23_linear_2039_7643)"/>
<path d="M21.4056 28.1007C21.6925 28.5152 22.3052 28.5152 22.592 28.1007L25.8851 23.3412C25.9705 23.2177 26.0133 23.0742 26.0133 22.9307H17.9844C17.9844 23.0741 18.0271 23.2177 18.1125 23.3412L21.4056 28.1007Z" fill="url(#paint24_linear_2039_7643)"/>
</g>
<defs>
<linearGradient id="paint0_linear_2039_7643" x1="15.7988" y1="10.258" x2="28.4819" y2="30.8852" gradientUnits="userSpaceOnUse">
<stop stop-color="#FFD945"/>
<stop offset="0.3043" stop-color="#FFCD3E"/>
<stop offset="0.8558" stop-color="#FFAD2B"/>
<stop offset="1" stop-color="#FFA325"/>
</linearGradient>
<linearGradient id="paint1_linear_2039_7643" x1="27.9414" y1="29.7905" x2="11.5255" y2="9.59581" gradientUnits="userSpaceOnUse">
<stop stop-color="#FFD945"/>
<stop offset="0.3043" stop-color="#FFCD3E"/>
<stop offset="0.8558" stop-color="#FFAD2B"/>
<stop offset="1" stop-color="#FFA325"/>
</linearGradient>
<linearGradient id="paint2_linear_2039_7643" x1="14.5233" y1="16.6869" x2="25.3895" y2="27.5531" gradientUnits="userSpaceOnUse">
<stop stop-color="#FFD945"/>
<stop offset="0.3043" stop-color="#FFCD3E"/>
<stop offset="0.8558" stop-color="#FFAD2B"/>
<stop offset="1" stop-color="#FFA325"/>
</linearGradient>
<linearGradient id="paint3_linear_2039_7643" x1="21.9995" y1="29.5253" x2="21.9995" y2="33.9874" gradientUnits="userSpaceOnUse">
<stop stop-color="#FFD945"/>
<stop offset="0.3043" stop-color="#FFCD3E"/>
<stop offset="0.8558" stop-color="#FFAD2B"/>
<stop offset="1" stop-color="#FFA325"/>
</linearGradient>
<linearGradient id="paint4_linear_2039_7643" x1="21.9995" y1="33.5927" x2="21.9995" y2="38.0548" gradientUnits="userSpaceOnUse">
<stop stop-color="#FFD945"/>
<stop offset="0.3043" stop-color="#FFCD3E"/>
<stop offset="0.8558" stop-color="#FFAD2B"/>
<stop offset="1" stop-color="#FFA325"/>
</linearGradient>
<linearGradient id="paint5_linear_2039_7643" x1="20.8162" y1="7.75673" x2="23.8754" y2="12.047" gradientUnits="userSpaceOnUse">
<stop stop-color="#FFD945"/>
<stop offset="0.3043" stop-color="#FFCD3E"/>
<stop offset="0.8558" stop-color="#FFAD2B"/>
<stop offset="1" stop-color="#FFA325"/>
</linearGradient>
<linearGradient id="paint6_linear_2039_7643" x1="22.3009" y1="9.90346" x2="19.105" y2="4.88049" gradientUnits="userSpaceOnUse">
<stop stop-color="#FFD945" stop-opacity="0"/>
<stop offset="1" stop-color="#FBED21"/>
</linearGradient>
<linearGradient id="paint7_linear_2039_7643" x1="22.0996" y1="10.5527" x2="26.4735" y2="2.13758" gradientUnits="userSpaceOnUse">
<stop stop-color="#F35227" stop-opacity="0"/>
<stop offset="1" stop-color="#F35227"/>
</linearGradient>
<linearGradient id="paint8_linear_2039_7643" x1="11.4888" y1="12.4241" x2="14.548" y2="16.7144" gradientUnits="userSpaceOnUse">
<stop stop-color="#FFD945"/>
<stop offset="0.3043" stop-color="#FFCD3E"/>
<stop offset="0.8558" stop-color="#FFAD2B"/>
<stop offset="1" stop-color="#FFA325"/>
</linearGradient>
<linearGradient id="paint9_linear_2039_7643" x1="12.9736" y1="14.5708" x2="9.77761" y2="9.54773" gradientUnits="userSpaceOnUse">
<stop stop-color="#FFD945" stop-opacity="0"/>
<stop offset="1" stop-color="#FBED21"/>
</linearGradient>
<linearGradient id="paint10_linear_2039_7643" x1="12.7751" y1="15.2193" x2="17.149" y2="6.80407" gradientUnits="userSpaceOnUse">
<stop stop-color="#F35227" stop-opacity="0"/>
<stop offset="1" stop-color="#F35227"/>
</linearGradient>
<linearGradient id="paint11_linear_2039_7643" x1="30.1422" y1="12.4307" x2="33.2014" y2="16.7209" gradientUnits="userSpaceOnUse">
<stop stop-color="#FFD945"/>
<stop offset="0.3043" stop-color="#FFCD3E"/>
<stop offset="0.8558" stop-color="#FFAD2B"/>
<stop offset="1" stop-color="#FFA325"/>
</linearGradient>
<linearGradient id="paint12_linear_2039_7643" x1="31.6268" y1="14.5774" x2="28.4309" y2="9.55433" gradientUnits="userSpaceOnUse">
<stop stop-color="#FFD945" stop-opacity="0"/>
<stop offset="1" stop-color="#FBED21"/>
</linearGradient>
<linearGradient id="paint13_linear_2039_7643" x1="31.4233" y1="15.2248" x2="35.7972" y2="6.80973" gradientUnits="userSpaceOnUse">
<stop stop-color="#F35227" stop-opacity="0"/>
<stop offset="1" stop-color="#F35227"/>
</linearGradient>
<linearGradient id="paint14_linear_2039_7643" x1="2.07348" y1="17.5204" x2="5.13268" y2="21.8107" gradientUnits="userSpaceOnUse">
<stop stop-color="#FFD945"/>
<stop offset="0.3043" stop-color="#FFCD3E"/>
<stop offset="0.8558" stop-color="#FFAD2B"/>
<stop offset="1" stop-color="#FFA325"/>
</linearGradient>
<linearGradient id="paint15_linear_2039_7643" x1="3.55806" y1="19.6671" x2="0.36212" y2="14.644" gradientUnits="userSpaceOnUse">
<stop stop-color="#FFD945" stop-opacity="0"/>
<stop offset="1" stop-color="#FBED21"/>
</linearGradient>
<linearGradient id="paint16_linear_2039_7643" x1="3.36252" y1="20.3145" x2="7.73635" y2="11.8994" gradientUnits="userSpaceOnUse">
<stop stop-color="#F35227" stop-opacity="0"/>
<stop offset="1" stop-color="#F35227"/>
</linearGradient>
<linearGradient id="paint17_linear_2039_7643" x1="39.5521" y1="17.5336" x2="42.6113" y2="21.824" gradientUnits="userSpaceOnUse">
<stop stop-color="#FFD945"/>
<stop offset="0.3043" stop-color="#FFCD3E"/>
<stop offset="0.8558" stop-color="#FFAD2B"/>
<stop offset="1" stop-color="#FFA325"/>
</linearGradient>
<linearGradient id="paint18_linear_2039_7643" x1="41.0367" y1="19.6802" x2="37.8408" y2="14.6573" gradientUnits="userSpaceOnUse">
<stop stop-color="#FFD945" stop-opacity="0"/>
<stop offset="1" stop-color="#FBED21"/>
</linearGradient>
<linearGradient id="paint19_linear_2039_7643" x1="40.8309" y1="20.3259" x2="45.2048" y2="11.9108" gradientUnits="userSpaceOnUse">
<stop stop-color="#F35227" stop-opacity="0"/>
<stop offset="1" stop-color="#F35227"/>
</linearGradient>
<linearGradient id="paint20_linear_2039_7643" x1="25.6267" y1="26.5577" x2="12.8271" y2="13.7581" gradientUnits="userSpaceOnUse">
<stop stop-color="#FFD945"/>
<stop offset="0.3043" stop-color="#FFCD3E"/>
<stop offset="0.8558" stop-color="#FFAD2B"/>
<stop offset="1" stop-color="#FFA325"/>
</linearGradient>
<linearGradient id="paint21_linear_2039_7643" x1="19.7771" y1="21.2495" x2="25.2042" y2="25.3547" gradientUnits="userSpaceOnUse">
<stop stop-color="#FF7044"/>
<stop offset="1" stop-color="#F82814"/>
</linearGradient>
<linearGradient id="paint22_linear_2039_7643" x1="22.2468" y1="23.1343" x2="17.4249" y2="13.2452" gradientUnits="userSpaceOnUse">
<stop stop-color="#FF7044" stop-opacity="0"/>
<stop offset="1" stop-color="#FFA325"/>
</linearGradient>
<linearGradient id="paint23_linear_2039_7643" x1="22.3396" y1="22.9221" x2="18.4089" y2="16.5031" gradientUnits="userSpaceOnUse">
<stop stop-color="#F82814" stop-opacity="0"/>
<stop offset="1" stop-color="#C0272D"/>
</linearGradient>
<linearGradient id="paint24_linear_2039_7643" x1="22.7071" y1="24.1892" x2="19.8611" y2="19.5415" gradientUnits="userSpaceOnUse">
<stop stop-color="#F82814" stop-opacity="0"/>
<stop offset="1" stop-color="#C0272D"/>
</linearGradient>
<clipPath id="clip0_2039_7643">
<rect width="44" height="44" fill="white"/>
</clipPath>
</defs>
</svg>
