<svg width="24" height="25" viewBox="0 0 24 25" fill="none" xmlns="http://www.w3.org/2000/svg">
<path d="M21 6.83838C17.67 6.50838 14.32 6.33838 10.98 6.33838C9 6.33838 7.02 6.43838 5.04 6.63838L3 6.83838" stroke="#E73916" stroke-width="1.5" stroke-linecap="round" stroke-linejoin="round"/>
<path d="M8.5 5.8284L8.72 4.5184C8.88 3.5684 9 2.8584 10.69 2.8584H13.31C15 2.8584 15.13 3.6084 15.28 4.5284L15.5 5.8284" stroke="#E73916" stroke-width="1.5" stroke-linecap="round" stroke-linejoin="round"/>
<path d="M18.8504 9.99854L18.2004 20.0685C18.0904 21.6385 18.0004 22.8585 15.2104 22.8585H8.79039C6.00039 22.8585 5.91039 21.6385 5.80039 20.0685L5.15039 9.99854" stroke="#E73916" stroke-width="1.5" stroke-linecap="round" stroke-linejoin="round"/>
<path d="M10.3301 17.3584H13.6601" stroke="#E73916" stroke-width="1.5" stroke-linecap="round" stroke-linejoin="round"/>
<path d="M9.5 13.3584H14.5" stroke="#E73916" stroke-width="1.5" stroke-linecap="round" stroke-linejoin="round"/>
</svg>
