<svg width="24" height="24" viewBox="0 0 24 24" fill="none" xmlns="http://www.w3.org/2000/svg">
<path d="M21.7995 23.05L19.6902 17.425C19.5873 17.1506 19.3249 16.9688 19.0319 16.9688H16.603C17.5836 15.7568 18.3769 14.5239 18.9631 13.2979C19.7863 11.5761 20.2037 9.86203 20.2037 8.20312C20.2037 3.67992 16.5238 0 12.0006 0C7.4774 0 3.79748 3.67992 3.79748 8.20312C3.79748 9.86203 4.2149 11.5761 5.03817 13.2979C5.62439 14.5239 6.4177 15.7568 7.39828 16.9688H4.9694C4.67629 16.9688 4.41398 17.1506 4.31104 17.425L2.20167 23.05C2.02926 23.5096 2.36906 24 2.86003 24H21.1412C21.6322 24 21.9719 23.5096 21.7995 23.05ZM5.20373 8.20312C5.20373 4.45533 8.25281 1.40625 12.0006 1.40625C15.7484 1.40625 18.7975 4.45533 18.7975 8.20312C18.7975 11.4975 16.8597 14.4892 15.234 16.4189C13.9474 17.9462 12.6451 19.0707 12.0006 19.5924C11.356 19.0705 10.0537 17.9461 8.76717 16.4189C7.14154 14.4892 5.20373 11.4975 5.20373 8.20312ZM3.87459 22.5938L5.45662 18.375H8.62917C10.1834 20.0215 11.5197 21.0038 11.5862 21.0524C11.7097 21.1425 11.8552 21.1875 12.0007 21.1875C12.1462 21.1875 12.2917 21.1425 12.4151 21.0524C12.4816 21.0038 13.8179 20.0215 15.3721 18.375H18.5447L20.1267 22.5938H3.87459Z" fill="#232323"/>
<path d="M16.4531 11.4844V10.0781C16.4531 8.79394 15.5092 7.72631 14.2789 7.53187C14.4696 7.1723 14.5781 6.7627 14.5781 6.32812V5.39062C14.5781 3.96905 13.4216 2.8125 12 2.8125C10.5784 2.8125 9.42188 3.96905 9.42188 5.39062V6.32812C9.42188 6.7627 9.53039 7.1723 9.72113 7.53187C8.49075 7.72631 7.54688 8.79394 7.54688 10.0781V11.4844C7.54688 11.8727 7.86169 12.1875 8.25 12.1875H15.75C16.1383 12.1875 16.4531 11.8727 16.4531 11.4844ZM10.8281 5.39062C10.8281 4.74445 11.3538 4.21875 12 4.21875C12.6462 4.21875 13.1719 4.74445 13.1719 5.39062V6.32812C13.1719 6.9743 12.6462 7.5 12 7.5C11.3538 7.5 10.8281 6.9743 10.8281 6.32812V5.39062ZM15.0469 10.7812H8.95312V10.0781C8.95312 9.43195 9.47883 8.90625 10.125 8.90625H13.875C14.5212 8.90625 15.0469 9.43195 15.0469 10.0781V10.7812Z" fill="#232323"/>
</svg>
